<svg width="580" height="507" viewBox="0 0 580 507" fill="none" xmlns="http://www.w3.org/2000/svg">
<g filter="url(#filter0_d_256_1038)">
<rect x="60.0957" y="40.8712" width="419" height="346" rx="8" transform="rotate(0.0158183 60.0957 40.8712)" fill="white"/>
<path d="M89.2419 72.5171C89.1853 71.9441 88.9416 71.499 88.5108 71.1816C88.08 70.8643 87.4953 70.7055 86.7567 70.7053C86.2548 70.7051 85.831 70.7761 85.4853 70.918C85.1396 71.0552 84.8744 71.2469 84.6897 71.4931C84.5097 71.7392 84.4196 72.0186 84.4196 72.3311C84.41 72.5915 84.4644 72.8188 84.5827 73.0129C84.7058 73.2071 84.8738 73.3752 85.0868 73.5173C85.2999 73.6547 85.5461 73.7755 85.8254 73.8797C86.1047 73.9793 86.403 74.0646 86.7202 74.1357L88.0269 74.4485C88.6614 74.5908 89.2437 74.7803 89.7739 75.0172C90.3042 75.2541 90.7634 75.5454 91.1515 75.8912C91.5397 76.2369 91.8402 76.6442 92.0532 77.113C92.2709 77.5818 92.382 78.1192 92.3865 78.7253C92.3816 79.6155 92.1541 80.3872 91.7041 81.0405C91.2588 81.689 90.6148 82.1931 89.7718 82.5527C88.9337 82.9076 87.9227 83.0849 86.739 83.0845C85.5648 83.0842 84.5421 82.904 83.671 82.5439C82.8046 82.1838 82.1277 81.651 81.6402 80.9453C81.1574 80.235 80.9044 79.3566 80.881 78.3102L83.8568 78.311C83.8898 78.7987 84.0294 79.206 84.2755 79.5327C84.5264 79.8548 84.8601 80.0987 85.2767 80.2645C85.6981 80.4256 86.1739 80.5063 86.7042 80.5064C87.2251 80.5066 87.6773 80.4309 88.0608 80.2795C88.4491 80.1281 88.7498 79.9175 88.963 79.6477C89.1761 79.3778 89.2828 79.0677 89.2829 78.7173C89.2829 78.3906 89.186 78.116 88.9919 77.8934C88.8026 77.6708 88.5232 77.4813 88.154 77.325C87.7894 77.1686 87.342 77.0265 86.8118 76.8985L85.2281 76.5003C84.0018 76.2017 83.0337 75.735 82.3236 75.1004C81.6136 74.4657 81.2611 73.611 81.2661 72.5362C81.2616 71.6555 81.4962 70.8861 81.9699 70.2281C82.4483 69.5701 83.1042 69.0565 83.9376 68.6875C84.771 68.3184 85.7181 68.134 86.7787 68.1343C87.8582 68.1346 88.8004 68.3195 89.6052 68.689C90.4148 69.0586 91.0444 69.5725 91.494 70.2307C91.9436 70.889 92.1754 71.6514 92.1894 72.5179L89.2419 72.5171ZM97.0079 83.0874C96.3118 83.0872 95.6916 82.9663 95.1472 82.7246C94.6027 82.4783 94.1719 82.1159 93.8548 81.6376C93.5425 81.1546 93.3864 80.5532 93.3866 79.8335C93.3868 79.2275 93.4982 78.7185 93.7208 78.3066C93.9435 77.8948 94.2466 77.5634 94.6302 77.3126C95.0138 77.0617 95.4494 76.8725 95.9372 76.7448C96.4296 76.617 96.9457 76.5272 97.4855 76.4753C98.12 76.4092 98.6314 76.3478 99.0197 76.2911C99.4079 76.2296 99.6897 76.1397 99.8649 76.0214C100.04 75.9031 100.128 75.7279 100.128 75.4959L100.128 75.4533C100.128 75.0035 99.986 74.6554 99.702 74.4091C99.4227 74.1629 99.025 74.0396 98.5089 74.0395C97.9644 74.0393 97.5311 74.16 97.2091 74.4014C96.8871 74.638 96.6739 74.9362 96.5697 75.2961L93.7714 75.068C93.9137 74.4052 94.1932 73.8323 94.61 73.3495C95.0268 72.8619 95.5643 72.488 96.2225 72.2278C96.8854 71.9628 97.6525 71.8305 98.5237 71.8307C99.1298 71.8309 99.7098 71.902 100.264 72.0442C100.822 72.1864 101.317 72.4067 101.748 72.7052C102.183 73.0036 102.527 73.3872 102.777 73.856C103.028 74.3201 103.154 74.8765 103.153 75.5252L103.151 82.8831L100.282 82.8823L100.282 81.3695L100.197 81.3695C100.022 81.7104 99.7875 82.011 99.4939 82.2713C99.2002 82.5269 98.8474 82.728 98.4355 82.8747C98.0235 83.0166 97.5476 83.0875 97.0079 83.0874ZM97.8749 80.9995C98.32 80.9997 98.713 80.9122 99.054 80.7371C99.3949 80.5573 99.6625 80.3159 99.8567 80.0129C100.051 79.7099 100.148 79.3667 100.148 78.9831L100.149 77.8255C100.054 77.887 99.9236 77.9438 99.7578 77.9958C99.5968 78.0431 99.4145 78.088 99.2109 78.1306C99.0073 78.1684 98.8037 78.2039 98.6001 78.237C98.3965 78.2653 98.2118 78.2913 98.0461 78.3149C97.691 78.3669 97.3808 78.4497 97.1156 78.5633C96.8505 78.6768 96.6444 78.8306 96.4976 79.0247C96.3508 79.2141 96.2773 79.4508 96.2772 79.7349C96.2771 80.1468 96.4262 80.4617 96.7244 80.6796C97.0274 80.8928 97.4109 80.9994 97.8749 80.9995ZM108.028 68.339L108.024 82.8845L104.999 82.8836L105.003 68.3382L108.028 68.339ZM114.919 83.0994C113.797 83.0991 112.831 82.8716 112.022 82.4168C111.217 81.9573 110.597 81.3085 110.162 80.4703C109.726 79.6273 109.509 78.6306 109.509 77.48C109.509 76.3579 109.727 75.3731 110.163 74.5257C110.599 73.6782 111.212 73.0179 112.003 72.5446C112.799 72.0714 113.732 71.8349 114.802 71.8352C115.521 71.8354 116.191 71.9516 116.812 72.1838C117.437 72.4112 117.981 72.7546 118.445 73.214C118.914 73.6734 119.278 74.2512 119.538 74.9473C119.798 75.6386 119.928 76.4483 119.928 77.3764L119.928 78.2073L110.716 78.2048L110.717 76.3298L117.08 76.3316C117.081 75.8959 116.986 75.51 116.797 75.1738C116.607 74.8376 116.345 74.5747 116.008 74.3852C115.677 74.191 115.291 74.0938 114.851 74.0937C114.392 74.0936 113.984 74.2 113.629 74.413C113.279 74.6212 113.004 74.9029 112.805 75.2579C112.606 75.6083 112.504 75.9989 112.499 76.4297L112.499 78.2124C112.499 78.7522 112.598 79.2186 112.797 79.6116C113 80.0047 113.287 80.3078 113.656 80.5209C114.025 80.7341 114.463 80.8408 114.97 80.8409C115.306 80.841 115.614 80.7937 115.893 80.6991C116.172 80.6045 116.412 80.4625 116.611 80.2732C116.809 80.0838 116.961 79.8519 117.065 79.5773L119.864 79.7627C119.721 80.435 119.43 81.0221 118.989 81.5238C118.554 82.0209 117.99 82.409 117.299 82.6881C116.612 82.9626 115.819 83.0997 114.919 83.0994ZM130.48 75.0924L127.71 75.262C127.663 75.0253 127.561 74.8122 127.405 74.6228C127.249 74.4286 127.043 74.2746 126.787 74.1609C126.536 74.0425 126.235 73.9832 125.885 73.9831C125.416 73.983 125.021 74.0823 124.699 74.2811C124.377 74.4751 124.216 74.7355 124.216 75.0622C124.216 75.3226 124.32 75.5428 124.528 75.7228C124.736 75.9028 125.094 76.0473 125.6 76.1563L127.575 76.5546C128.635 76.7727 129.426 77.1233 129.947 77.6064C130.467 78.0895 130.727 78.7241 130.727 79.51C130.727 80.225 130.516 80.8523 130.095 81.392C129.678 81.9316 129.105 82.3529 128.376 82.6557C127.651 82.9538 126.815 83.1027 125.868 83.1024C124.424 83.102 123.274 82.8011 122.417 82.1995C121.565 81.5932 121.065 80.7692 120.919 79.7275L123.895 79.5721C123.985 80.0124 124.202 80.3487 124.548 80.5808C124.894 80.8081 125.336 80.9219 125.876 80.9221C126.406 80.9222 126.832 80.8205 127.154 80.617C127.481 80.4088 127.647 80.1413 127.652 79.8146C127.647 79.54 127.531 79.315 127.304 79.1398C127.077 78.9598 126.726 78.8224 126.253 78.7276L124.364 78.3506C123.299 78.1372 122.506 77.7677 121.985 77.242C121.469 76.7163 121.211 76.0462 121.211 75.2318C121.212 74.5311 121.401 73.9274 121.78 73.4209C122.164 72.9144 122.701 72.5239 123.393 72.2495C124.089 71.9751 124.903 71.838 125.836 71.8382C127.214 71.8386 128.298 72.1301 129.088 72.7127C129.884 73.2953 130.348 74.0885 130.48 75.0924ZM136.317 82.8923L136.321 68.3468L142.06 68.3484C143.158 68.3487 144.096 68.5455 144.872 68.9387C145.653 69.3271 146.247 69.8789 146.654 70.594C147.066 71.3043 147.272 72.1401 147.272 73.1013C147.271 74.0672 147.063 74.8981 146.646 75.594C146.229 76.2852 145.625 76.8153 144.834 77.1844C144.048 77.5535 143.097 77.7379 141.979 77.7376L138.137 77.7365L138.137 75.2649L141.483 75.2658C142.07 75.266 142.558 75.1857 142.946 75.0248C143.334 74.8639 143.623 74.6225 143.812 74.3006C144.007 73.9787 144.104 73.5786 144.104 73.1004C144.104 72.6174 144.007 72.2102 143.813 71.8787C143.624 71.5472 143.333 71.2962 142.94 71.1256C142.552 70.9503 142.062 70.8626 141.47 70.8624L139.396 70.8619L139.392 82.8931L136.317 82.8923ZM144.174 76.2751L147.787 82.8954L144.392 82.8945L140.857 76.2742L144.174 76.2751ZM153.681 83.1101C152.559 83.1098 151.593 82.8823 150.784 82.4275C149.979 81.968 149.359 81.3192 148.923 80.481C148.488 79.638 148.27 78.6413 148.271 77.4907C148.271 76.3686 148.489 75.3838 148.925 74.5364C149.361 73.689 149.974 73.0286 150.765 72.5553C151.561 72.0821 152.493 71.8456 153.564 71.8459C154.283 71.8461 154.953 71.9623 155.573 72.1945C156.198 72.4219 156.743 72.7653 157.207 73.2247C157.675 73.6841 158.04 74.2619 158.3 74.958C158.56 75.6494 158.69 76.459 158.69 77.3871L158.69 78.218L149.478 78.2155L149.478 76.3405L155.842 76.3423C155.842 75.9066 155.748 75.5207 155.558 75.1845C155.369 74.8483 155.106 74.5854 154.77 74.3959C154.439 74.2017 154.053 74.1045 153.613 74.1044C153.153 74.1043 152.746 74.2107 152.391 74.4237C152.04 74.6319 151.766 74.9136 151.567 75.2686C151.368 75.619 151.266 76.0096 151.261 76.4404L151.261 78.2231C151.26 78.7629 151.36 79.2293 151.559 79.6223C151.762 80.0154 152.048 80.3185 152.418 80.5317C152.787 80.7448 153.225 80.8515 153.731 80.8516C154.068 80.8517 154.375 80.8044 154.655 80.7098C154.934 80.6152 155.173 80.4732 155.372 80.2839C155.571 80.0945 155.723 79.8626 155.827 79.588L158.625 79.7734C158.483 80.4457 158.192 81.0328 157.751 81.5345C157.315 82.0316 156.752 82.4197 156.061 82.6989C155.374 82.9733 154.581 83.1104 153.681 83.1101ZM160.162 86.9898L160.166 71.9898L163.149 71.9906L163.148 73.823L163.283 73.823C163.416 73.5295 163.608 73.2312 163.859 72.9283C164.114 72.6206 164.446 72.365 164.853 72.1615C165.265 71.9533 165.777 71.8493 166.387 71.8494C167.183 71.8496 167.917 72.0582 168.589 72.475C169.261 72.8872 169.798 73.5099 170.201 74.3434C170.603 75.1721 170.804 76.2114 170.803 77.4614C170.803 78.6783 170.606 79.7057 170.213 80.5437C169.825 81.3769 169.294 82.0088 168.622 82.4395C167.954 82.8655 167.206 83.0783 166.377 83.0781C165.79 83.078 165.291 82.9808 164.879 82.7865C164.472 82.5923 164.138 82.3483 163.877 82.0547C163.617 81.7563 163.418 81.4556 163.281 81.1525L163.189 81.1525L163.187 86.9906L160.162 86.9898ZM163.126 77.4451C163.126 78.0938 163.216 78.6596 163.395 79.1426C163.575 79.6256 163.835 80.0021 164.176 80.2721C164.517 80.5374 164.931 80.67 165.419 80.6702C165.911 80.6703 166.328 80.5355 166.669 80.2657C167.01 79.9912 167.268 79.6125 167.444 79.1295C167.624 78.6419 167.714 78.0809 167.714 77.4464C167.714 76.8167 167.627 76.2626 167.452 75.7844C167.277 75.3061 167.019 74.932 166.678 74.662C166.337 74.392 165.918 74.257 165.421 74.2568C164.928 74.2567 164.512 74.3868 164.171 74.6471C163.834 74.9074 163.576 75.2767 163.396 75.7549C163.216 76.233 163.126 76.7964 163.126 77.4451ZM177.248 83.1166C176.145 83.1163 175.191 82.8817 174.386 82.4127C173.586 81.939 172.968 81.2807 172.533 80.4378C172.097 79.5901 171.88 78.6076 171.88 77.4901C171.88 76.3633 172.099 75.3785 172.534 74.5358C172.97 73.6884 173.588 73.0304 174.389 72.5619C175.194 72.0886 176.148 71.8521 177.251 71.8524C178.354 71.8527 179.306 72.0897 180.106 72.5634C180.911 73.0324 181.531 73.6907 181.966 74.5384C182.402 75.3813 182.619 76.3662 182.619 77.4931C182.618 78.6105 182.4 79.593 181.965 80.4404C181.529 81.2831 180.908 81.941 180.103 82.4143C179.303 82.8828 178.351 83.1169 177.248 83.1166ZM177.263 80.7729C177.765 80.773 178.184 80.6311 178.52 80.3471C178.856 80.0584 179.11 79.6654 179.28 79.1683C179.456 78.6712 179.543 78.1054 179.543 77.471C179.544 76.8365 179.456 76.2707 179.281 75.7734C179.111 75.2762 178.858 74.8832 178.522 74.5943C178.185 74.3053 177.766 74.1608 177.265 74.1607C176.758 74.1605 176.332 74.3048 175.986 74.5936C175.645 74.8823 175.387 75.2752 175.212 75.7723C175.041 76.2694 174.956 76.8352 174.955 77.4697C174.955 78.1042 175.04 78.67 175.211 79.1672C175.386 79.6644 175.644 80.0575 175.984 80.3464C176.33 80.6306 176.756 80.7727 177.263 80.7729ZM184.085 82.9055L184.088 71.9964L187.021 71.9972L187.02 73.9006L187.134 73.9006C187.333 73.2236 187.667 72.7123 188.136 72.3668C188.605 72.0165 189.144 71.8415 189.755 71.8417C189.907 71.8417 190.07 71.8512 190.245 71.8702C190.421 71.8892 190.574 71.9153 190.707 71.9485L190.706 74.6331C190.564 74.5905 190.368 74.5525 190.117 74.5193C189.866 74.4861 189.636 74.4695 189.428 74.4694C188.983 74.4693 188.585 74.5663 188.235 74.7603C187.889 74.9496 187.614 75.2147 187.411 75.5555C187.212 75.8964 187.112 76.2893 187.112 76.7344L187.11 82.9063L184.085 82.9055ZM198.121 72.0002L198.12 74.273L191.55 74.2711L191.551 71.9984L198.121 72.0002ZM193.043 69.3852L196.069 69.386L196.066 79.5565C196.066 79.8358 196.108 80.0537 196.194 80.2099C196.279 80.3615 196.397 80.468 196.549 80.5296C196.705 80.5912 196.885 80.6221 197.088 80.6221C197.23 80.6221 197.373 80.6104 197.515 80.5867C197.657 80.5583 197.766 80.5371 197.841 80.5229L198.317 82.7744C198.165 82.8217 197.952 82.8761 197.677 82.9376C197.403 83.0038 197.069 83.044 196.676 83.0581C195.947 83.0863 195.307 82.989 194.758 82.7664C194.214 82.5437 193.79 82.1979 193.487 81.7291C193.184 81.2602 193.035 80.6683 193.04 79.9534L193.043 69.3852Z" fill="#1D1E25"/>
<g clip-path="url(#clip0_256_1038)">
<mask id="mask0_256_1038" style="mask-type:luminance" maskUnits="userSpaceOnUse" x="85" y="114" width="369" height="261">
<rect x="85.9653" y="114.878" width="367.22" height="260" transform="rotate(0.0158183 85.9653 114.878)" fill="white"/>
</mask>
<g mask="url(#mask0_256_1038)">
<g clip-path="url(#clip1_256_1038)">
<path d="M422.767 356.608C422.767 357.528 422.6 358.324 422.268 358.994C421.935 359.664 421.479 360.181 420.899 360.545C420.32 360.908 419.658 361.09 418.914 361.09C418.169 361.089 417.507 360.907 416.928 360.544C416.348 360.18 415.893 359.663 415.56 358.992C415.228 358.322 415.062 357.526 415.063 356.606C415.063 355.685 415.229 354.89 415.562 354.219C415.894 353.549 416.35 353.032 416.93 352.669C417.51 352.305 418.172 352.123 418.916 352.124C419.66 352.124 420.322 352.306 420.902 352.67C421.481 353.033 421.937 353.551 422.269 354.221C422.601 354.892 422.767 355.687 422.767 356.608ZM421.744 356.607C421.745 355.852 421.618 355.214 421.366 354.694C421.116 354.174 420.776 353.78 420.347 353.513C419.921 353.246 419.444 353.112 418.916 353.112C418.387 353.112 417.909 353.246 417.48 353.513C417.053 353.779 416.714 354.173 416.461 354.693C416.211 355.212 416.085 355.85 416.085 356.606C416.085 357.362 416.21 357.999 416.46 358.519C416.712 359.039 417.052 359.433 417.478 359.7C417.907 359.967 418.385 360.101 418.914 360.101C419.442 360.101 419.92 359.968 420.346 359.701C420.775 359.434 421.114 359.04 421.365 358.521C421.618 358.001 421.744 357.363 421.744 356.607ZM427.066 361.109C426.452 361.109 425.924 360.964 425.48 360.674C425.037 360.384 424.697 359.985 424.458 359.476C424.22 358.967 424.1 358.386 424.101 357.733C424.101 357.068 424.223 356.482 424.468 355.973C424.715 355.462 425.059 355.063 425.499 354.776C425.942 354.486 426.459 354.342 427.05 354.342C427.511 354.342 427.925 354.427 428.295 354.598C428.664 354.768 428.966 355.007 429.202 355.314C429.438 355.621 429.584 355.979 429.641 356.388L428.635 356.388C428.558 356.089 428.388 355.825 428.124 355.595C427.863 355.362 427.51 355.245 427.067 355.245C426.675 355.245 426.331 355.347 426.036 355.552C425.743 355.753 425.514 356.039 425.349 356.408C425.187 356.775 425.106 357.205 425.106 357.699C425.106 358.205 425.186 358.645 425.345 359.02C425.506 359.395 425.734 359.687 426.026 359.894C426.321 360.102 426.668 360.205 427.066 360.205C427.327 360.206 427.564 360.16 427.777 360.069C427.991 359.978 428.171 359.848 428.319 359.677C428.467 359.507 428.572 359.302 428.634 359.064L429.64 359.064C429.583 359.451 429.442 359.798 429.218 360.108C428.996 360.415 428.702 360.659 428.335 360.841C427.972 361.02 427.548 361.109 427.066 361.109ZM433.958 354.429L433.958 355.281L430.566 355.28L430.566 354.428L433.958 354.429ZM431.555 352.86L432.561 352.86L432.559 359.099C432.559 359.383 432.6 359.596 432.682 359.738C432.768 359.878 432.876 359.971 433.006 360.02C433.14 360.065 433.28 360.088 433.428 360.088C433.539 360.088 433.63 360.082 433.701 360.071C433.772 360.057 433.829 360.045 433.871 360.037L434.076 360.94C434.007 360.966 433.912 360.991 433.79 361.017C433.668 361.045 433.513 361.06 433.325 361.059C433.041 361.059 432.763 360.998 432.49 360.876C432.22 360.754 431.996 360.568 431.817 360.318C431.641 360.068 431.553 359.752 431.553 359.372L431.555 352.86Z" fill="#808D9E"/>
<path fill-rule="evenodd" clip-rule="evenodd" d="M423.842 343.972L423.893 160.972L425.113 160.972L425.062 343.972L423.842 343.972Z" fill="#E9ECF2"/>
</g>
<g clip-path="url(#clip2_256_1038)">
<path d="M366.844 354.41C366.793 353.979 366.586 353.643 366.222 353.405C365.859 353.166 365.413 353.046 364.884 353.046C364.498 353.046 364.16 353.109 363.87 353.234C363.583 353.358 363.358 353.53 363.196 353.749C363.037 353.968 362.958 354.216 362.958 354.495C362.958 354.728 363.013 354.928 363.124 355.096C363.237 355.26 363.382 355.398 363.558 355.509C363.734 355.617 363.919 355.707 364.112 355.778C364.305 355.846 364.483 355.901 364.645 355.944L365.531 356.183C365.758 356.243 366.011 356.325 366.289 356.43C366.571 356.535 366.839 356.679 367.095 356.861C367.353 357.04 367.566 357.27 367.734 357.551C367.901 357.833 367.985 358.178 367.985 358.587C367.985 359.059 367.861 359.485 367.614 359.865C367.369 360.246 367.011 360.548 366.54 360.773C366.071 360.997 365.501 361.109 364.831 361.109C364.206 361.109 363.665 361.008 363.207 360.806C362.753 360.604 362.395 360.323 362.134 359.962C361.875 359.601 361.729 359.182 361.695 358.704L362.786 358.705C362.814 359.034 362.925 359.307 363.118 359.523C363.314 359.736 363.561 359.895 363.86 360.001C364.161 360.103 364.484 360.154 364.831 360.154C365.234 360.154 365.597 360.089 365.918 359.958C366.239 359.825 366.493 359.64 366.681 359.405C366.868 359.166 366.962 358.888 366.962 358.57C366.962 358.28 366.881 358.044 366.719 357.862C366.558 357.68 366.345 357.532 366.08 357.419C365.816 357.305 365.531 357.206 365.224 357.12L364.15 356.813C363.468 356.617 362.929 356.337 362.531 355.973C362.133 355.609 361.935 355.134 361.935 354.545C361.935 354.057 362.067 353.631 362.332 353.267C362.599 352.901 362.957 352.617 363.406 352.415C363.857 352.211 364.362 352.109 364.919 352.109C365.481 352.109 365.981 352.21 366.418 352.412C366.856 352.611 367.202 352.884 367.458 353.23C367.716 353.577 367.853 353.97 367.867 354.411L366.844 354.41ZM372.33 361.094C371.699 361.094 371.155 360.954 370.698 360.676C370.243 360.394 369.893 360.002 369.646 359.499C369.401 358.994 369.279 358.405 369.28 357.735C369.28 357.065 369.402 356.474 369.646 355.962C369.894 355.448 370.238 355.048 370.678 354.761C371.121 354.471 371.638 354.327 372.229 354.327C372.57 354.327 372.907 354.384 373.239 354.497C373.572 354.611 373.874 354.796 374.147 355.052C374.419 355.305 374.637 355.64 374.798 356.058C374.96 356.475 375.041 356.989 375.041 357.6L375.041 358.026L369.995 358.025L369.996 357.156L374.018 357.157C374.018 356.787 373.945 356.458 373.797 356.168C373.652 355.878 373.445 355.649 373.175 355.482C372.908 355.314 372.593 355.23 372.229 355.23C371.829 355.23 371.482 355.329 371.189 355.528C370.899 355.724 370.676 355.98 370.52 356.295C370.364 356.61 370.285 356.948 370.285 357.309L370.285 357.889C370.285 358.383 370.37 358.802 370.541 359.146C370.714 359.487 370.954 359.747 371.26 359.926C371.567 360.102 371.924 360.19 372.33 360.19C372.594 360.19 372.833 360.154 373.046 360.08C373.262 360.003 373.448 359.89 373.604 359.739C373.761 359.586 373.881 359.395 373.967 359.168L374.938 359.441C374.836 359.771 374.664 360.06 374.422 360.31C374.181 360.557 373.882 360.75 373.527 360.89C373.172 361.026 372.773 361.094 372.33 361.094ZM376.569 363.413L376.572 354.413L377.543 354.413L377.543 355.453L377.662 355.453C377.736 355.34 377.838 355.195 377.969 355.019C378.103 354.84 378.293 354.681 378.54 354.542C378.79 354.4 379.128 354.329 379.555 354.329C380.106 354.329 380.592 354.467 381.012 354.742C381.432 355.018 381.76 355.409 381.996 355.915C382.232 356.42 382.349 357.017 382.349 357.705C382.349 358.398 382.231 358.999 381.995 359.507C381.759 360.013 381.432 360.405 381.015 360.683C380.597 360.958 380.115 361.096 379.57 361.096C379.149 361.096 378.813 361.026 378.56 360.887C378.307 360.745 378.113 360.584 377.976 360.405C377.84 360.223 377.735 360.073 377.661 359.953L377.576 359.953L377.575 363.413L376.569 363.413ZM377.559 357.686C377.559 358.18 377.632 358.617 377.776 358.994C377.921 359.369 378.133 359.664 378.411 359.877C378.689 360.087 379.03 360.192 379.434 360.192C379.854 360.192 380.205 360.082 380.486 359.86C380.77 359.636 380.984 359.335 381.126 358.957C381.271 358.576 381.343 358.153 381.343 357.687C381.344 357.227 381.273 356.812 381.131 356.443C380.992 356.071 380.78 355.777 380.496 355.561C380.215 355.342 379.861 355.232 379.435 355.232C379.026 355.232 378.682 355.336 378.404 355.543C378.125 355.747 377.915 356.034 377.773 356.404C377.631 356.77 377.56 357.198 377.559 357.686Z" fill="#808D9E"/>
<path fill-rule="evenodd" clip-rule="evenodd" d="M371.382 343.957L371.433 160.957L372.653 160.958L372.602 343.957L371.382 343.957Z" fill="#E9ECF2"/>
</g>
<g clip-path="url(#clip3_256_1038)">
<path d="M307.915 360.94L306.807 360.939L310.014 352.213L311.105 352.213L314.307 360.941L313.199 360.941L310.593 353.594L310.525 353.594L307.915 360.94ZM308.325 357.531L312.791 357.532L312.791 358.469L308.325 358.468L308.325 357.531ZM319.656 358.267L319.657 354.397L320.662 354.398L320.661 360.943L319.655 360.943L319.655 359.835L319.587 359.835C319.434 360.167 319.195 360.45 318.871 360.683C318.547 360.913 318.138 361.028 317.644 361.028C317.234 361.027 316.871 360.938 316.553 360.759C316.235 360.577 315.985 360.304 315.803 359.94C315.621 359.574 315.53 359.112 315.531 358.555L315.532 354.396L316.537 354.397L316.536 358.487C316.536 358.965 316.67 359.345 316.937 359.63C317.206 359.914 317.55 360.056 317.968 360.056C318.218 360.056 318.472 359.992 318.731 359.864C318.992 359.737 319.211 359.541 319.387 359.277C319.566 359.012 319.656 358.676 319.656 358.267ZM325.144 363.535C324.658 363.535 324.241 363.473 323.891 363.347C323.542 363.225 323.251 363.063 323.018 362.861C322.788 362.662 322.604 362.449 322.468 362.222L323.269 361.66C323.36 361.779 323.475 361.916 323.614 362.069C323.754 362.225 323.944 362.36 324.185 362.474C324.43 362.591 324.749 362.649 325.144 362.649C325.673 362.649 326.109 362.521 326.453 362.266C326.796 362.01 326.968 361.61 326.968 361.064L326.969 359.735L326.884 359.735C326.81 359.854 326.705 360.002 326.568 360.178C326.435 360.351 326.241 360.506 325.988 360.642C325.738 360.776 325.4 360.842 324.974 360.842C324.446 360.842 323.971 360.717 323.551 360.467C323.133 360.217 322.803 359.853 322.558 359.375C322.317 358.898 322.196 358.319 322.197 357.637C322.197 356.966 322.315 356.383 322.551 355.885C322.787 355.386 323.115 354.999 323.536 354.727C323.956 354.451 324.442 354.314 324.993 354.314C325.419 354.314 325.757 354.385 326.007 354.527C326.26 354.666 326.453 354.825 326.587 355.004C326.723 355.181 326.828 355.326 326.902 355.439L327.004 355.439L327.004 354.399L327.976 354.4L327.974 361.133C327.974 361.695 327.846 362.153 327.59 362.505C327.337 362.86 326.996 363.12 326.567 363.284C326.141 363.452 325.667 363.535 325.144 363.535ZM325.111 359.939C325.514 359.939 325.855 359.847 326.134 359.662C326.412 359.477 326.624 359.212 326.769 358.865C326.914 358.519 326.986 358.104 326.986 357.621C326.987 357.149 326.916 356.733 326.774 356.372C326.632 356.012 326.422 355.729 326.143 355.524C325.865 355.32 325.521 355.217 325.112 355.217C324.686 355.217 324.331 355.325 324.047 355.541C323.765 355.757 323.554 356.046 323.412 356.41C323.272 356.773 323.202 357.177 323.202 357.62C323.202 358.075 323.273 358.477 323.415 358.826C323.56 359.173 323.773 359.445 324.054 359.644C324.338 359.84 324.69 359.939 325.111 359.939Z" fill="#808D9E"/>
<path fill-rule="evenodd" clip-rule="evenodd" d="M316.482 343.942L316.533 160.942L317.753 160.942L317.702 343.942L316.482 343.942Z" fill="#E9ECF2"/>
</g>
<g clip-path="url(#clip4_256_1038)">
<path d="M261.47 352.2L262.526 352.2L262.525 358.438C262.525 358.995 262.422 359.468 262.218 359.857C262.013 360.247 261.724 360.542 261.352 360.744C260.98 360.945 260.541 361.046 260.035 361.046C259.558 361.046 259.133 360.959 258.761 360.785C258.389 360.609 258.097 360.359 257.884 360.035C257.671 359.711 257.564 359.326 257.564 358.88L258.604 358.881C258.604 359.128 258.665 359.344 258.787 359.528C258.912 359.71 259.083 359.852 259.298 359.955C259.514 360.057 259.76 360.108 260.036 360.108C260.34 360.108 260.598 360.044 260.811 359.917C261.024 359.789 261.186 359.601 261.297 359.354C261.411 359.104 261.468 358.799 261.468 358.438L261.47 352.2ZM268.631 358.253L268.632 354.383L269.638 354.384L269.636 360.929L268.631 360.929L268.631 359.821L268.563 359.821C268.409 360.153 268.171 360.436 267.847 360.669C267.523 360.899 267.114 361.014 266.619 361.013C266.21 361.013 265.847 360.924 265.528 360.745C265.21 360.563 264.96 360.29 264.779 359.926C264.597 359.56 264.506 359.098 264.506 358.541L264.507 354.382L265.513 354.382L265.512 358.473C265.512 358.951 265.645 359.331 265.912 359.616C266.182 359.9 266.526 360.042 266.943 360.042C267.193 360.042 267.448 359.978 267.706 359.85C267.968 359.723 268.186 359.527 268.363 359.263C268.542 358.998 268.631 358.662 268.631 358.253ZM272.486 352.203L272.484 360.93L271.478 360.93L271.481 352.202L272.486 352.203Z" fill="#808D9E"/>
<path fill-rule="evenodd" clip-rule="evenodd" d="M264.022 343.928L264.073 160.928L266.513 160.928L266.462 343.928L264.022 343.928Z" fill="#E9ECF2"/>
<path opacity="0.1" fill-rule="evenodd" clip-rule="evenodd" d="M242.062 343.921L242.113 160.921L290.913 160.935L290.862 343.935L242.062 343.921Z" fill="url(#paint0_linear_256_1038)"/>
</g>
<g clip-path="url(#clip5_256_1038)">
<path d="M208.754 352.185L209.81 352.185L209.809 358.424C209.809 358.981 209.706 359.454 209.502 359.843C209.297 360.232 209.008 360.527 208.636 360.729C208.264 360.931 207.825 361.031 207.319 361.031C206.842 361.031 206.417 360.944 206.045 360.771C205.673 360.595 205.381 360.345 205.168 360.021C204.955 359.697 204.848 359.312 204.848 358.866L205.888 358.866C205.888 359.113 205.949 359.329 206.071 359.514C206.196 359.696 206.367 359.838 206.582 359.94C206.798 360.042 207.044 360.094 207.32 360.094C207.624 360.094 207.882 360.03 208.095 359.902C208.308 359.774 208.47 359.587 208.581 359.34C208.695 359.09 208.752 358.784 208.752 358.424L208.754 352.185ZM215.915 358.238L215.916 354.369L216.922 354.369L216.92 360.915L215.915 360.914L215.915 359.806L215.847 359.806C215.693 360.139 215.454 360.421 215.131 360.654C214.807 360.884 214.397 360.999 213.903 360.999C213.494 360.999 213.13 360.909 212.812 360.73C212.494 360.548 212.244 360.275 212.063 359.912C211.881 359.545 211.79 359.084 211.79 358.527L211.791 354.368L212.797 354.368L212.796 358.459C212.796 358.936 212.929 359.317 213.196 359.601C213.466 359.885 213.81 360.027 214.227 360.027C214.477 360.027 214.732 359.964 214.99 359.836C215.252 359.708 215.47 359.512 215.647 359.248C215.826 358.984 215.915 358.647 215.915 358.238ZM219.769 356.978L219.768 360.915L218.762 360.915L218.764 354.37L219.736 354.37L219.735 355.393L219.821 355.393C219.974 355.06 220.207 354.793 220.52 354.592C220.832 354.387 221.236 354.285 221.73 354.285C222.173 354.285 222.561 354.376 222.893 354.558C223.226 354.737 223.484 355.01 223.669 355.377C223.853 355.74 223.945 356.201 223.945 356.757L223.944 360.916L222.938 360.916L222.939 356.825C222.94 356.311 222.806 355.91 222.539 355.623C222.272 355.334 221.906 355.189 221.44 355.188C221.119 355.188 220.832 355.258 220.579 355.397C220.329 355.536 220.132 355.739 219.987 356.006C219.842 356.273 219.769 356.597 219.769 356.978Z" fill="#808D9E"/>
<path fill-rule="evenodd" clip-rule="evenodd" d="M216.442 343.914L216.493 160.914L217.713 160.915L217.662 343.915L216.442 343.914Z" fill="#E9ECF2"/>
</g>
<g clip-path="url(#clip6_256_1038)">
<path d="M148.215 352.168L149.476 352.169L152.44 359.414L152.542 359.414L155.51 352.17L156.772 352.171L156.769 360.898L155.781 360.898L155.782 354.267L155.697 354.267L152.968 360.897L152.014 360.897L149.288 354.265L149.203 354.265L149.201 360.896L148.212 360.896L148.215 352.168ZM160.678 361.052C160.263 361.052 159.887 360.974 159.549 360.818C159.211 360.659 158.942 360.43 158.744 360.131C158.545 359.83 158.445 359.467 158.446 359.04C158.446 358.665 158.52 358.361 158.667 358.129C158.815 357.893 159.013 357.708 159.26 357.575C159.507 357.441 159.78 357.342 160.078 357.277C160.379 357.209 160.682 357.155 160.986 357.115C161.384 357.064 161.706 357.026 161.953 357C162.203 356.972 162.385 356.925 162.499 356.86C162.615 356.794 162.674 356.681 162.674 356.519L162.674 356.485C162.674 356.064 162.559 355.738 162.329 355.505C162.101 355.272 161.756 355.155 161.293 355.155C160.813 355.155 160.437 355.26 160.164 355.47C159.891 355.68 159.699 355.904 159.588 356.143L158.634 355.802C158.805 355.404 159.032 355.095 159.316 354.873C159.603 354.649 159.916 354.493 160.254 354.405C160.595 354.314 160.93 354.268 161.259 354.268C161.47 354.269 161.711 354.294 161.984 354.345C162.259 354.394 162.525 354.495 162.781 354.648C163.039 354.802 163.254 355.033 163.424 355.343C163.594 355.653 163.679 356.067 163.679 356.587L163.678 360.9L162.672 360.9L162.673 360.013L162.621 360.013C162.553 360.155 162.44 360.307 162.28 360.469C162.121 360.631 161.91 360.769 161.645 360.882C161.381 360.996 161.059 361.053 160.678 361.052ZM160.832 360.149C161.229 360.149 161.565 360.071 161.837 359.915C162.113 359.759 162.32 359.557 162.46 359.31C162.602 359.063 162.673 358.803 162.673 358.53L162.673 357.61C162.631 357.661 162.537 357.708 162.392 357.75C162.25 357.79 162.085 357.826 161.898 357.857C161.713 357.885 161.533 357.911 161.356 357.933C161.183 357.953 161.042 357.97 160.935 357.984C160.673 358.018 160.429 358.074 160.202 358.15C159.977 358.224 159.795 358.336 159.656 358.487C159.52 358.634 159.451 358.836 159.451 359.092C159.451 359.441 159.58 359.706 159.839 359.885C160.1 360.061 160.431 360.149 160.832 360.149ZM165.926 363.355C165.756 363.355 165.604 363.341 165.47 363.312C165.337 363.287 165.244 363.261 165.193 363.235L165.449 362.349C165.694 362.412 165.909 362.435 166.097 362.418C166.284 362.401 166.451 362.317 166.596 362.166C166.743 362.019 166.878 361.779 167.001 361.446L167.188 360.935L164.77 354.355L165.861 354.355L167.666 359.571L167.734 359.571L169.542 354.356L170.633 354.356L167.853 361.856C167.728 362.194 167.573 362.473 167.388 362.695C167.203 362.919 166.989 363.085 166.745 363.193C166.503 363.301 166.23 363.355 165.926 363.355Z" fill="#808D9E"/>
<path fill-rule="evenodd" clip-rule="evenodd" d="M160.336 343.899L160.386 160.899L161.579 160.899L161.528 343.899L160.336 343.899Z" fill="#E9ECF2"/>
</g>
<g clip-path="url(#clip7_256_1038)">
<path d="M98.9497 340.362L96.1234 348.137L94.9691 348.137L98.2234 339.606L98.9675 339.607L98.9497 340.362ZM101.315 348.138L98.4869 340.362L98.4695 339.606L99.2136 339.607L102.475 348.139L101.315 348.138ZM101.169 344.98L101.169 345.906L96.3759 345.905L96.3762 344.979L101.169 344.98ZM104.625 343.018L104.622 350.577L103.533 350.577L103.535 341.799L104.531 341.8L104.625 343.018ZM108.896 344.918L108.895 345.041C108.895 345.502 108.841 345.93 108.731 346.324C108.622 346.715 108.461 347.055 108.25 347.344C108.043 347.633 107.787 347.857 107.483 348.017C107.178 348.177 106.828 348.257 106.434 348.257C106.031 348.257 105.676 348.19 105.367 348.058C105.059 347.925 104.797 347.731 104.582 347.477C104.368 347.223 104.196 346.919 104.067 346.563C103.942 346.208 103.856 345.807 103.809 345.362L103.81 344.706C103.857 344.237 103.945 343.817 104.074 343.446C104.203 343.075 104.373 342.758 104.584 342.497C104.799 342.231 105.058 342.03 105.363 341.893C105.668 341.753 106.019 341.683 106.418 341.683C106.816 341.683 107.17 341.761 107.478 341.918C107.787 342.07 108.047 342.289 108.258 342.574C108.468 342.859 108.626 343.201 108.732 343.599C108.841 343.994 108.896 344.434 108.896 344.918ZM107.806 345.041L107.806 344.918C107.806 344.601 107.773 344.304 107.706 344.027C107.64 343.746 107.537 343.5 107.396 343.289C107.259 343.074 107.084 342.906 106.869 342.785C106.654 342.659 106.398 342.597 106.101 342.597C105.828 342.597 105.59 342.644 105.386 342.737C105.187 342.831 105.017 342.958 104.876 343.118C104.736 343.274 104.621 343.454 104.531 343.657C104.445 343.856 104.38 344.063 104.337 344.278L104.337 345.796C104.415 346.069 104.524 346.327 104.665 346.569C104.805 346.807 104.993 347.001 105.227 347.149C105.461 347.294 105.756 347.366 106.112 347.366C106.405 347.366 106.657 347.306 106.868 347.185C107.082 347.06 107.258 346.89 107.395 346.675C107.536 346.46 107.639 346.214 107.706 345.937C107.772 345.656 107.806 345.357 107.806 345.041ZM111.449 342.798L111.447 348.141L110.363 348.141L110.365 341.801L111.42 341.801L111.449 342.798ZM113.429 341.767L113.423 342.775C113.333 342.755 113.247 342.743 113.165 342.739C113.087 342.732 112.997 342.728 112.896 342.728C112.646 342.728 112.425 342.767 112.234 342.845C112.042 342.923 111.88 343.032 111.747 343.173C111.614 343.313 111.509 343.481 111.431 343.676C111.357 343.868 111.308 344.079 111.284 344.309L110.979 344.485C110.98 344.102 111.017 343.743 111.091 343.407C111.169 343.071 111.288 342.774 111.449 342.516C111.609 342.255 111.812 342.052 112.058 341.907C112.308 341.759 112.605 341.685 112.949 341.685C113.027 341.685 113.117 341.694 113.218 341.714C113.32 341.73 113.39 341.747 113.429 341.767Z" fill="#92929D"/>
<path fill-rule="evenodd" clip-rule="evenodd" d="M105.436 343.884L105.487 160.884L106.679 160.884L106.629 343.884L105.436 343.884Z" fill="#F1F1F5"/>
</g>
<g filter="url(#filter1_d_256_1038)">
<path d="M274.06 168.93C274.062 162.303 279.436 156.932 286.063 156.934L334.063 156.947C340.691 156.949 346.062 162.323 346.06 168.95L346.056 182.95C346.054 189.578 340.68 194.949 334.053 194.947L274.053 194.93L274.06 168.93Z" fill="white"/>
</g>
<path d="M308.581 181.079C307.842 181.079 307.186 180.954 306.613 180.706C306.042 180.457 305.595 180.117 305.27 179.686C304.949 179.252 304.79 178.76 304.794 178.209C304.79 177.782 304.883 177.389 305.072 177.031C305.261 176.673 305.517 176.375 305.838 176.137C306.163 175.895 306.524 175.741 306.922 175.674L306.922 175.605C306.399 175.489 305.974 175.222 305.65 174.804C305.328 174.383 305.169 173.897 305.173 173.347C305.17 172.824 305.316 172.356 305.611 171.945C305.906 171.534 306.31 171.211 306.824 170.976C307.338 170.738 307.924 170.619 308.584 170.619C309.237 170.619 309.819 170.738 310.329 170.977C310.843 171.213 311.247 171.536 311.542 171.947C311.84 172.358 311.989 172.825 311.989 173.349C311.989 173.899 311.824 174.385 311.496 174.806C311.171 175.223 310.752 175.49 310.238 175.606L310.238 175.675C310.636 175.742 310.994 175.896 311.312 176.138C311.633 176.377 311.888 176.675 312.077 177.033C312.269 177.391 312.365 177.784 312.365 178.211C312.365 178.762 312.203 179.254 311.878 179.688C311.553 180.119 311.105 180.458 310.535 180.707C309.968 180.955 309.317 181.079 308.581 181.079ZM308.582 179.657C308.963 179.657 309.294 179.593 309.576 179.464C309.858 179.331 310.076 179.145 310.232 178.907C310.388 178.668 310.468 178.393 310.471 178.082C310.468 177.757 310.384 177.47 310.218 177.222C310.056 176.97 309.832 176.772 309.547 176.63C309.265 176.487 308.944 176.416 308.582 176.416C308.218 176.416 307.893 176.487 307.608 176.629C307.323 176.772 307.097 176.969 306.932 177.221C306.769 177.469 306.69 177.756 306.693 178.081C306.689 178.392 306.766 178.667 306.921 178.906C307.077 179.141 307.296 179.325 307.577 179.458C307.862 179.591 308.197 179.657 308.582 179.657ZM308.583 175.019C308.894 175.019 309.169 174.956 309.408 174.83C309.65 174.704 309.841 174.528 309.98 174.303C310.119 174.078 310.191 173.818 310.194 173.523C310.191 173.231 310.121 172.976 309.985 172.757C309.85 172.535 309.661 172.364 309.419 172.245C309.177 172.122 308.899 172.061 308.584 172.061C308.262 172.06 307.979 172.122 307.733 172.244C307.491 172.364 307.302 172.534 307.167 172.756C307.034 172.975 306.969 173.23 306.972 173.522C306.969 173.817 307.035 174.077 307.171 174.302C307.31 174.524 307.501 174.7 307.743 174.83C307.988 174.956 308.268 175.019 308.583 175.019ZM313.999 180.941L313.999 179.609L317.535 176.145C317.873 175.803 318.155 175.5 318.381 175.235C318.606 174.97 318.775 174.713 318.888 174.465C319.001 174.216 319.057 173.951 319.057 173.669C319.057 173.348 318.984 173.073 318.839 172.844C318.693 172.612 318.492 172.433 318.237 172.307C317.982 172.181 317.692 172.118 317.367 172.118C317.032 172.118 316.739 172.187 316.487 172.326C316.235 172.462 316.04 172.656 315.9 172.908C315.764 173.16 315.696 173.46 315.696 173.808L313.941 173.807C313.941 173.161 314.089 172.599 314.384 172.122C314.679 171.645 315.085 171.275 315.603 171.013C316.123 170.752 316.72 170.621 317.392 170.621C318.075 170.621 318.675 170.749 319.192 171.005C319.709 171.26 320.11 171.61 320.395 172.054C320.683 172.498 320.827 173.005 320.827 173.575C320.827 173.956 320.754 174.331 320.608 174.699C320.462 175.067 320.205 175.474 319.837 175.922C319.472 176.369 318.96 176.911 318.3 177.547L316.545 179.331L316.545 179.401L320.98 179.402L320.979 180.943L313.999 180.941ZM326.458 181.139C325.639 181.138 324.936 180.931 324.35 180.517C323.767 180.099 323.318 179.497 323.003 178.712C322.692 177.923 322.536 176.973 322.537 175.863C322.54 174.752 322.698 173.808 323.01 173.029C323.325 172.247 323.774 171.65 324.357 171.24C324.944 170.829 325.645 170.624 326.461 170.624C327.276 170.624 327.977 170.83 328.563 171.241C329.15 171.652 329.599 172.249 329.91 173.031C330.225 173.813 330.382 174.758 330.382 175.865C330.381 176.979 330.224 177.93 329.909 178.718C329.597 179.504 329.148 180.104 328.561 180.518C327.977 180.932 327.276 181.139 326.458 181.139ZM326.458 179.583C327.095 179.583 327.597 179.27 327.965 178.643C328.336 178.014 328.522 177.087 328.522 175.864C328.523 175.056 328.438 174.376 328.269 173.826C328.101 173.276 327.862 172.861 327.554 172.583C327.246 172.301 326.881 172.16 326.46 172.16C325.827 172.16 325.327 172.475 324.959 173.104C324.59 173.73 324.405 174.65 324.401 175.863C324.397 176.675 324.478 177.358 324.644 177.912C324.813 178.465 325.051 178.883 325.36 179.165C325.668 179.443 326.034 179.582 326.458 179.583Z" fill="#1D1E25"/>
<rect x="285.06" y="171.076" width="10" height="10" rx="2" transform="rotate(0.0158183 285.06 171.076)" fill="#2280FF"/>
<path d="M77.0367 254.763C81.535 256.61 92.17 261.759 98.7238 267.577C106.916 274.848 133.425 282.818 149.336 265.514C165.247 248.21 172.479 241.981 184.047 241.984C195.616 241.987 203.329 239.566 216.348 221.569C229.367 203.572 233.614 194.877 249.614 194.924C265.082 194.969 272.909 205.661 276.603 211.547L285.275 225.05C288.808 230.705 298.31 240.284 312.224 241.307C326.138 242.331 336.837 237.158 347.936 228.529C358.272 220.492 376.379 211.921 391.799 228.541C404.135 241.837 410.432 246.547 412.039 247.239" stroke="#2280FF" stroke-width="3" stroke-linecap="round"/>
<path d="M53.0348 261.49C58.245 262.837 70.5632 266.589 78.1546 270.827C87.6437 276.124 118.347 281.932 136.774 269.33C155.2 256.728 163.576 252.192 176.974 252.195C190.373 252.199 199.306 250.436 214.383 237.329C229.46 224.222 234.377 217.888 252.909 217.925C270.824 217.959 279.89 225.749 284.169 230.036L294.215 239.873C298.308 243.992 309.314 250.971 325.429 251.718C341.545 252.465 353.936 248.698 366.79 242.414C378.76 236.562 399.731 230.32 417.593 242.428C431.882 252.114 439.176 255.546 441.036 256.05" stroke="#FF5555" stroke-width="3" stroke-linecap="round"/>
</g>
<rect x="85.9536" y="156.878" width="59.78" height="203" transform="rotate(0.0158183 85.9536 156.878)" fill="white"/>
<path d="M101.513 166.155L101.51 174.883L100.453 174.882L100.455 167.263L100.404 167.263L98.2732 168.677L98.2735 167.603L100.456 166.155L101.513 166.155ZM105.061 172.497L105.044 171.253L105.249 171.253L108.113 168.339L109.358 168.339L106.306 171.424L106.22 171.424L105.061 172.497ZM104.123 174.883L104.125 166.156L105.131 166.156L105.129 174.884L104.123 174.883ZM108.282 174.885L105.726 171.645L106.442 170.947L109.56 174.885L108.282 174.885Z" fill="#808D9E"/>
<path d="M108.561 345.004C107.919 345.004 107.373 344.829 106.921 344.479C106.469 344.127 106.124 343.617 105.886 342.949C105.647 342.279 105.528 341.469 105.529 340.52C105.529 339.577 105.648 338.772 105.887 338.104C106.129 337.434 106.476 336.922 106.927 336.57C107.382 336.215 107.928 336.038 108.564 336.038C109.2 336.038 109.744 336.216 110.196 336.571C110.65 336.924 110.997 337.435 111.235 338.106C111.477 338.773 111.597 339.579 111.597 340.522C111.597 341.471 111.477 342.28 111.238 342.951C110.999 343.618 110.654 344.128 110.202 344.48C109.75 344.83 109.204 345.004 108.561 345.004ZM108.562 344.066C109.198 344.067 109.692 343.76 110.045 343.146C110.397 342.533 110.574 341.658 110.574 340.522C110.574 339.766 110.493 339.122 110.332 338.591C110.173 338.06 109.943 337.655 109.642 337.376C109.343 337.098 108.984 336.959 108.564 336.958C107.933 336.958 107.44 337.269 107.085 337.891C106.729 338.511 106.552 339.387 106.551 340.52C106.551 341.276 106.631 341.918 106.789 342.447C106.948 342.975 107.177 343.377 107.475 343.653C107.776 343.928 108.138 344.066 108.562 344.066Z" fill="#808D9E"/>
<g clip-path="url(#clip8_256_1038)">
<path d="M88.6446 310.879L88.6448 310.112L91.5264 306.959C91.8645 306.59 92.143 306.269 92.3619 305.997C92.5807 305.721 92.7427 305.463 92.8479 305.221C92.9559 304.977 93.0099 304.721 93.01 304.454C93.0101 304.147 92.9363 303.882 92.7886 303.657C92.6438 303.433 92.445 303.259 92.1922 303.137C91.9394 303.015 91.6553 302.954 91.34 302.954C91.0047 302.954 90.7121 303.023 90.4621 303.162C90.2149 303.299 90.0231 303.49 89.8866 303.737C89.753 303.985 89.6862 304.274 89.6861 304.607L88.6804 304.606C88.6806 304.095 88.7986 303.646 89.0345 303.26C89.2704 302.874 89.5915 302.573 89.9978 302.357C90.407 302.141 90.8658 302.033 91.3743 302.033C91.8857 302.033 92.3388 302.141 92.7336 302.357C93.1284 302.574 93.438 302.865 93.6623 303.231C93.8867 303.598 93.9988 304.006 93.9986 304.454C93.9986 304.775 93.9402 305.089 93.8237 305.396C93.7099 305.7 93.511 306.04 93.2268 306.414C92.9454 306.787 92.5547 307.241 92.0545 307.778L90.0937 309.874L90.0937 309.942L94.1505 309.943L94.1503 310.881L88.6446 310.879ZM98.8425 311.001C98.2004 311.001 97.6536 310.826 97.202 310.477C96.7504 310.124 96.4054 309.614 96.1669 308.947C95.9285 308.276 95.8094 307.466 95.8096 306.517C95.8099 305.574 95.9294 304.769 96.1683 304.101C96.4099 303.431 96.7567 302.92 97.2085 302.568C97.6631 302.213 98.2086 302.035 98.845 302.035C99.4813 302.035 100.025 302.213 100.477 302.568C100.931 302.921 101.278 303.432 101.516 304.103C101.758 304.77 101.878 305.576 101.878 306.519C101.878 307.468 101.758 308.278 101.519 308.948C101.28 309.616 100.935 310.125 100.483 310.478C100.031 310.827 99.4845 311.001 98.8425 311.001ZM98.8428 310.064C99.4791 310.064 99.9735 309.757 100.326 309.144C100.678 308.53 100.855 307.655 100.855 306.519C100.855 305.763 100.775 305.12 100.613 304.588C100.454 304.057 100.224 303.652 99.9227 303.374C99.6245 303.095 99.2652 302.956 98.8447 302.956C98.214 302.956 97.721 303.267 97.3658 303.889C97.0105 304.508 96.8327 305.384 96.8324 306.518C96.8322 307.273 96.9115 307.915 97.0705 308.444C97.2294 308.972 97.458 309.374 97.7562 309.65C98.0573 309.926 98.4195 310.064 98.8428 310.064ZM106.428 311.003C105.786 311.003 105.239 310.828 104.788 310.479C104.336 310.126 103.991 309.616 103.753 308.949C103.514 308.278 103.395 307.468 103.395 306.52C103.396 305.576 103.515 304.771 103.754 304.103C103.996 303.433 104.342 302.922 104.794 302.57C105.249 302.215 105.794 302.037 106.431 302.037C107.067 302.038 107.611 302.215 108.063 302.571C108.517 302.923 108.864 303.434 109.102 304.105C109.343 304.773 109.464 305.578 109.464 306.521C109.463 307.47 109.344 308.28 109.105 308.95C108.866 309.618 108.521 310.127 108.069 310.48C107.617 310.829 107.07 311.003 106.428 311.003ZM106.428 310.066C107.065 310.066 107.559 309.759 107.912 309.146C108.264 308.532 108.44 307.657 108.441 306.521C108.441 305.765 108.36 305.122 108.198 304.59C108.04 304.059 107.809 303.654 107.508 303.376C107.21 303.097 106.851 302.958 106.43 302.958C105.8 302.958 105.307 303.269 104.951 303.891C104.596 304.51 104.418 305.386 104.418 306.52C104.418 307.275 104.497 307.918 104.656 308.446C104.815 308.974 105.044 309.377 105.342 309.652C105.643 309.928 106.005 310.066 106.428 310.066Z" fill="#808D9E"/>
</g>
<g clip-path="url(#clip9_256_1038)">
<path d="M88.4498 275.089L88.4501 274.22L92.287 268.153L92.9176 268.153L92.9173 269.5L92.4911 269.499L89.5921 274.084L89.5921 274.152L94.7569 274.154L94.7566 275.091L88.4498 275.089ZM92.5573 276.88L92.5579 274.826L92.558 274.421L92.5597 268.153L93.5654 268.153L93.563 276.88L92.5573 276.88ZM99.2854 277.001C98.6433 277.001 98.0965 276.826 97.6449 276.477C97.1933 276.124 96.8482 275.614 96.6098 274.947C96.3713 274.276 96.2522 273.466 96.2525 272.518C96.2528 271.574 96.3723 270.769 96.6111 270.101C96.8528 269.431 97.1995 268.92 97.6513 268.568C98.106 268.213 98.6515 268.035 99.2878 268.035C99.9242 268.036 100.468 268.213 100.92 268.569C101.374 268.921 101.721 269.432 101.959 270.103C102.2 270.771 102.321 271.576 102.321 272.519C102.32 273.468 102.201 274.278 101.962 274.948C101.723 275.616 101.378 276.126 100.926 276.478C100.474 276.827 99.9274 277.002 99.2854 277.001ZM99.2856 276.064C99.922 276.064 100.416 275.757 100.769 275.144C101.121 274.53 101.298 273.655 101.298 272.519C101.298 271.763 101.217 271.12 101.056 270.588C100.897 270.057 100.667 269.652 100.366 269.374C100.067 269.095 99.708 268.956 99.2876 268.956C98.6569 268.956 98.1639 269.267 97.8086 269.889C97.4534 270.508 97.2756 271.384 97.2752 272.518C97.275 273.274 97.3544 273.916 97.5133 274.444C97.6723 274.973 97.9009 275.375 98.1991 275.65C98.5002 275.926 98.8623 276.064 99.2856 276.064ZM106.871 277.003C106.229 277.003 105.682 276.828 105.231 276.479C104.779 276.126 104.434 275.616 104.196 274.949C103.957 274.278 103.838 273.469 103.838 272.52C103.838 271.576 103.958 270.771 104.197 270.104C104.439 269.433 104.785 268.922 105.237 268.57C105.692 268.215 106.237 268.037 106.874 268.038C107.51 268.038 108.054 268.215 108.506 268.571C108.96 268.923 109.306 269.435 109.545 270.105C109.786 270.773 109.907 271.578 109.906 272.521C109.906 273.47 109.787 274.28 109.548 274.95C109.309 275.618 108.964 276.128 108.512 276.48C108.06 276.829 107.513 277.004 106.871 277.003ZM106.871 276.066C107.508 276.066 108.002 275.759 108.355 275.146C108.707 274.532 108.883 273.657 108.884 272.521C108.884 271.765 108.803 271.122 108.641 270.591C108.482 270.059 108.252 269.654 107.951 269.376C107.653 269.097 107.294 268.958 106.873 268.958C106.243 268.958 105.75 269.269 105.394 269.891C105.039 270.51 104.861 271.386 104.861 272.52C104.861 273.276 104.94 273.918 105.099 274.446C105.258 274.975 105.487 275.377 105.785 275.652C106.086 275.928 106.448 276.066 106.871 276.066Z" fill="#808D9E"/>
</g>
<g clip-path="url(#clip10_256_1038)">
<path d="M91.5613 242.999C91.2034 242.993 90.8454 242.925 90.4875 242.794C90.1296 242.664 89.803 242.443 89.5076 242.134C89.2122 241.821 88.9751 241.399 88.7963 240.868C88.6175 240.334 88.5282 239.663 88.5284 238.856C88.5286 238.084 88.6012 237.399 88.7463 236.802C88.8913 236.203 89.1017 235.699 89.3774 235.29C89.6531 234.878 89.9855 234.566 90.3748 234.353C90.7669 234.14 91.2087 234.033 91.7002 234.033C92.1888 234.033 92.6234 234.132 93.0041 234.328C93.3875 234.521 93.7 234.791 93.9413 235.138C94.1827 235.484 94.3389 235.884 94.4098 236.335L93.37 236.335C93.2735 235.943 93.0861 235.618 92.8078 235.359C92.5294 235.1 92.1601 234.971 91.6999 234.971C91.0238 234.971 90.491 235.265 90.1017 235.853C89.7151 236.44 89.5203 237.266 89.5172 238.328L89.5854 238.328C89.7445 238.087 89.9335 237.881 90.1523 237.71C90.3739 237.537 90.6183 237.404 90.8853 237.31C91.1524 237.216 91.4351 237.17 91.7334 237.17C92.2334 237.17 92.6908 237.295 93.1055 237.545C93.5202 237.792 93.8525 238.135 94.1023 238.572C94.3522 239.007 94.4771 239.506 94.4769 240.068C94.4768 240.608 94.3559 241.102 94.1143 241.551C93.8727 241.997 93.5331 242.352 93.0955 242.616C92.6608 242.877 92.1494 243.005 91.5613 242.999ZM91.5616 242.062C91.9195 242.062 92.2406 241.972 92.5247 241.794C92.8117 241.615 93.0376 241.375 93.2025 241.074C93.3702 240.772 93.4541 240.437 93.4542 240.068C93.4543 239.707 93.3734 239.379 93.2116 239.083C93.0526 238.785 92.8324 238.548 92.5512 238.372C92.2729 238.195 91.9547 238.107 91.5968 238.107C91.3269 238.107 91.0755 238.161 90.8425 238.269C90.6095 238.374 90.4049 238.519 90.2287 238.703C90.0554 238.888 89.9189 239.1 89.8194 239.338C89.72 239.574 89.6702 239.823 89.6701 240.084C89.67 240.431 89.7509 240.754 89.9127 241.056C90.0774 241.357 90.3018 241.6 90.5858 241.784C90.8727 241.969 91.198 242.062 91.5616 242.062ZM99.0842 243.001C98.4421 243.001 97.8953 242.826 97.4437 242.477C96.9921 242.124 96.6471 241.614 96.4086 240.947C96.1702 240.276 96.0511 239.466 96.0513 238.518C96.0516 237.574 96.1711 236.769 96.41 236.101C96.6516 235.431 96.9984 234.92 97.4502 234.568C97.9048 234.213 98.4503 234.035 99.0867 234.035C99.723 234.036 100.267 234.213 100.719 234.569C101.173 234.921 101.52 235.432 101.758 236.103C101.999 236.771 102.12 237.576 102.12 238.519C102.119 239.468 102 240.278 101.761 240.948C101.522 241.616 101.177 242.125 100.725 242.478C100.273 242.827 99.7262 243.001 99.0842 243.001ZM99.0845 242.064C99.7208 242.064 100.215 241.757 100.568 241.144C100.92 240.53 101.096 239.655 101.097 238.519C101.097 237.763 101.016 237.12 100.854 236.588C100.695 236.057 100.465 235.652 100.164 235.374C99.8662 235.095 99.5069 234.956 99.0864 234.956C98.4557 234.956 97.9627 235.267 97.6075 235.889C97.2522 236.508 97.0744 237.384 97.0741 238.518C97.0739 239.273 97.1532 239.916 97.3122 240.444C97.4711 240.972 97.6997 241.374 97.9979 241.65C98.299 241.926 98.6612 242.064 99.0845 242.064ZM106.67 243.003C106.028 243.003 105.481 242.828 105.029 242.479C104.578 242.126 104.233 241.616 103.994 240.949C103.756 240.278 103.637 239.468 103.637 238.52C103.637 237.576 103.757 236.771 103.996 236.104C104.237 235.433 104.584 234.922 105.036 234.57C105.491 234.215 106.036 234.037 106.672 234.037C107.309 234.038 107.853 234.215 108.304 234.571C108.759 234.923 109.105 235.434 109.344 236.105C109.585 236.773 109.705 237.578 109.705 238.521C109.705 239.47 109.585 240.28 109.347 240.95C109.108 241.618 108.762 242.128 108.311 242.48C107.859 242.829 107.312 243.004 106.67 243.003ZM106.67 242.066C107.307 242.066 107.801 241.759 108.153 241.146C108.506 240.532 108.682 239.657 108.683 238.521C108.683 237.765 108.602 237.122 108.44 236.591C108.281 236.059 108.051 235.654 107.75 235.376C107.452 235.097 107.093 234.958 106.672 234.958C106.041 234.958 105.548 235.269 105.193 235.891C104.838 236.51 104.66 237.386 104.66 238.52C104.66 239.276 104.739 239.918 104.898 240.446C105.057 240.975 105.285 241.377 105.584 241.652C105.885 241.928 106.247 242.066 106.67 242.066Z" fill="#808D9E"/>
</g>
<g clip-path="url(#clip11_256_1038)">
<path d="M91.4683 208.999C90.8831 208.999 90.3661 208.895 89.9173 208.688C89.4713 208.477 89.1234 208.189 88.8735 207.822C88.6236 207.453 88.5001 207.032 88.5031 206.561C88.5004 206.192 88.5729 205.851 88.7207 205.538C88.8685 205.223 89.0703 204.96 89.326 204.75C89.5846 204.537 89.873 204.402 90.1912 204.345L90.1912 204.294C89.7736 204.186 89.4413 203.952 89.1943 203.591C88.9472 203.227 88.8252 202.814 88.8281 202.351C88.8254 201.908 88.9377 201.511 89.1651 201.162C89.3925 200.813 89.7051 200.537 90.1028 200.335C90.5035 200.134 90.9595 200.033 91.4708 200.033C91.9765 200.033 92.4282 200.134 92.8258 200.336C93.2235 200.538 93.5359 200.814 93.7631 201.163C93.9931 201.513 94.1095 201.909 94.1122 202.352C94.1093 202.815 93.9827 203.229 93.7326 203.592C93.4854 203.953 93.1572 204.187 92.748 204.295L92.748 204.346C93.0634 204.403 93.3474 204.538 93.6002 204.751C93.853 204.962 94.0546 205.224 94.2051 205.54C94.3556 205.852 94.4322 206.193 94.4349 206.563C94.4319 207.034 94.304 207.455 94.051 207.824C93.8009 208.19 93.4529 208.478 93.0068 208.689C92.5635 208.896 92.0507 208.999 91.4683 208.999ZM91.4686 208.062C91.8635 208.062 92.2044 207.998 92.4914 207.87C92.7783 207.742 93 207.562 93.1563 207.329C93.3126 207.096 93.3922 206.824 93.3952 206.511C93.3924 206.182 93.3073 205.89 93.1397 205.637C92.9722 205.385 92.7435 205.186 92.4538 205.041C92.1669 204.896 91.8388 204.823 91.4695 204.823C91.0973 204.823 90.7649 204.895 90.4723 205.04C90.1825 205.185 89.9537 205.384 89.786 205.637C89.6212 205.889 89.5401 206.18 89.5429 206.51C89.54 206.823 89.6152 207.095 89.7685 207.328C89.9247 207.561 90.1477 207.742 90.4374 207.87C90.7271 207.998 91.0709 208.062 91.4686 208.062ZM91.4697 203.92C91.7822 203.92 92.0592 203.857 92.3008 203.732C92.5451 203.607 92.7369 203.433 92.8762 203.208C93.0155 202.984 93.0865 202.721 93.0895 202.42C93.0867 202.125 93.0172 201.868 92.8809 201.649C92.7446 201.427 92.5557 201.257 92.3143 201.137C92.0728 201.015 91.7916 200.954 91.4706 200.954C91.1439 200.954 90.8583 201.015 90.614 201.137C90.3696 201.256 90.1807 201.426 90.0471 201.648C89.9135 201.867 89.8481 202.124 89.8508 202.419C89.8479 202.72 89.9146 202.983 90.0509 203.208C90.19 203.432 90.3818 203.607 90.626 203.732C90.8703 203.857 91.1516 203.92 91.4697 203.92ZM98.9997 209.001C98.3577 209.001 97.8108 208.826 97.3592 208.477C96.9076 208.124 96.5626 207.614 96.3242 206.947C96.0857 206.276 95.9666 205.466 95.9669 204.517C95.9671 203.574 96.0867 202.769 96.3255 202.101C96.5672 201.431 96.9139 200.92 97.3657 200.568C97.8203 200.213 98.3658 200.035 99.0022 200.035C99.6386 200.036 100.183 200.213 100.634 200.568C101.089 200.921 101.435 201.432 101.674 202.103C101.915 202.771 102.035 203.576 102.035 204.519C102.035 205.468 101.915 206.278 101.676 206.948C101.438 207.616 101.092 208.125 100.64 208.478C100.189 208.827 99.6418 209.001 98.9997 209.001ZM99 208.064C99.6363 208.064 100.131 207.757 100.483 207.144C100.836 206.53 101.012 205.655 101.012 204.519C101.013 203.763 100.932 203.12 100.77 202.588C100.611 202.057 100.381 201.652 100.08 201.374C99.7817 201.095 99.4224 200.956 99.0019 200.956C98.3713 200.956 97.8783 201.267 97.523 201.889C97.1677 202.508 96.9899 203.384 96.9896 204.518C96.9894 205.273 97.0688 205.916 97.2277 206.444C97.3866 206.972 97.6152 207.374 97.9134 207.65C98.2145 207.926 98.5767 208.064 99 208.064ZM106.585 209.003C105.943 209.003 105.397 208.828 104.945 208.479C104.493 208.126 104.148 207.616 103.91 206.949C103.671 206.278 103.552 205.468 103.553 204.52C103.553 203.576 103.672 202.771 103.911 202.103C104.153 201.433 104.5 200.922 104.951 200.57C105.406 200.215 105.952 200.037 106.588 200.037C107.224 200.038 107.768 200.215 108.22 200.571C108.674 200.923 109.021 201.434 109.259 202.105C109.501 202.773 109.621 203.578 109.621 204.521C109.621 205.47 109.501 206.28 109.262 206.95C109.023 207.618 108.678 208.128 108.226 208.48C107.774 208.829 107.227 209.004 106.585 209.003ZM106.586 208.066C107.222 208.066 107.716 207.759 108.069 207.146C108.421 206.532 108.598 205.657 108.598 204.521C108.598 203.765 108.517 203.122 108.356 202.591C108.197 202.059 107.967 201.654 107.666 201.376C107.367 201.097 107.008 200.958 106.588 200.958C105.957 200.958 105.464 201.269 105.109 201.891C104.753 202.51 104.576 203.386 104.575 204.52C104.575 205.276 104.654 205.918 104.813 206.446C104.972 206.975 105.201 207.377 105.499 207.652C105.8 207.928 106.162 208.066 106.586 208.066Z" fill="#808D9E"/>
</g>
<g filter="url(#filter2_d_256_1038)">
<rect x="258.054" y="190.926" width="14" height="14" rx="7" transform="rotate(0.0158183 258.054 190.926)" fill="#2280FF"/>
<rect x="259.054" y="191.926" width="12" height="12" rx="6" transform="rotate(0.0158183 259.054 191.926)" stroke="white" stroke-width="2"/>
</g>
<rect x="255.543" y="121.925" width="12.2" height="10" rx="2" transform="rotate(0.0158183 255.543 121.925)" fill="#FF5555"/>
<path d="M286.929 124.934L285.696 124.934C285.623 124.579 285.495 124.267 285.313 123.999C285.134 123.73 284.915 123.505 284.657 123.322C284.402 123.137 284.118 122.997 283.807 122.905C283.495 122.812 283.171 122.765 282.833 122.765C282.216 122.765 281.658 122.921 281.157 123.232C280.66 123.543 280.264 124.002 279.968 124.609C279.677 125.215 279.531 125.959 279.53 126.841C279.53 127.723 279.676 128.467 279.967 129.073C280.262 129.68 280.658 130.139 281.155 130.451C281.655 130.762 282.214 130.918 282.83 130.919C283.168 130.919 283.493 130.872 283.805 130.78C284.116 130.687 284.4 130.549 284.655 130.367C284.914 130.182 285.132 129.955 285.311 129.686C285.494 129.415 285.622 129.103 285.695 128.752L286.927 128.752C286.835 129.272 286.665 129.738 286.42 130.149C286.175 130.56 285.87 130.909 285.505 131.198C285.14 131.483 284.731 131.7 284.277 131.849C283.826 131.998 283.344 132.072 282.83 132.072C281.962 132.072 281.189 131.859 280.513 131.435C279.837 131.01 279.306 130.407 278.918 129.625C278.53 128.843 278.337 127.914 278.337 126.841C278.337 125.767 278.532 124.839 278.92 124.057C279.308 123.275 279.84 122.671 280.516 122.247C281.192 121.823 281.964 121.611 282.833 121.612C283.347 121.612 283.829 121.687 284.28 121.836C284.734 121.985 285.143 122.204 285.507 122.492C285.872 122.778 286.177 123.126 286.422 123.537C286.667 123.944 286.836 124.41 286.929 124.934ZM291.362 132.094C290.673 132.094 290.068 131.93 289.548 131.601C289.031 131.273 288.626 130.814 288.335 130.224C288.047 129.634 287.903 128.945 287.903 128.156C287.903 127.36 288.048 126.666 288.336 126.073C288.628 125.48 289.032 125.019 289.55 124.691C290.07 124.363 290.675 124.199 291.364 124.199C292.054 124.199 292.657 124.364 293.174 124.692C293.694 125.02 294.098 125.481 294.386 126.074C294.678 126.668 294.824 127.362 294.823 128.158C294.823 128.946 294.677 129.636 294.385 130.226C294.097 130.816 293.692 131.274 293.172 131.602C292.655 131.93 292.051 132.094 291.362 132.094ZM291.362 131.04C291.886 131.04 292.317 130.906 292.655 130.638C292.993 130.369 293.244 130.017 293.406 129.579C293.569 129.142 293.65 128.668 293.65 128.157C293.65 127.647 293.569 127.171 293.407 126.73C293.245 126.29 292.994 125.933 292.656 125.661C292.319 125.389 291.888 125.253 291.364 125.253C290.84 125.253 290.409 125.389 290.071 125.661C289.733 125.932 289.483 126.288 289.32 126.729C289.158 127.17 289.076 127.646 289.076 128.156C289.076 128.666 289.157 129.14 289.319 129.578C289.482 130.016 289.732 130.369 290.07 130.637C290.408 130.906 290.839 131.04 291.362 131.04ZM296.113 131.936L296.115 124.3L297.249 124.3L297.249 125.494L297.348 125.494C297.507 125.086 297.764 124.769 298.119 124.544C298.474 124.316 298.9 124.201 299.397 124.201C299.901 124.202 300.32 124.316 300.654 124.545C300.992 124.77 301.256 125.087 301.445 125.495L301.524 125.495C301.72 125.1 302.013 124.787 302.404 124.555C302.796 124.32 303.265 124.203 303.812 124.203C304.494 124.203 305.053 124.417 305.487 124.845C305.921 125.269 306.138 125.93 306.138 126.828L306.136 131.939L304.963 131.939L304.964 126.828C304.964 126.265 304.81 125.862 304.502 125.62C304.194 125.378 303.831 125.257 303.414 125.257C302.877 125.256 302.461 125.419 302.166 125.743C301.87 126.065 301.723 126.472 301.723 126.966L301.721 131.938L300.528 131.938L300.53 126.707C300.53 126.273 300.389 125.924 300.107 125.658C299.826 125.39 299.463 125.255 299.019 125.255C298.714 125.255 298.429 125.336 298.163 125.499C297.902 125.661 297.689 125.886 297.527 126.175C297.368 126.46 297.288 126.789 297.288 127.164L297.287 131.937L296.113 131.936ZM307.781 134.803L307.783 124.303L308.917 124.304L308.917 125.517L309.056 125.517C309.142 125.384 309.261 125.215 309.414 125.01C309.57 124.801 309.792 124.615 310.08 124.453C310.372 124.287 310.766 124.205 311.264 124.205C311.907 124.205 312.473 124.366 312.964 124.687C313.454 125.009 313.837 125.465 314.112 126.055C314.387 126.645 314.524 127.341 314.524 128.143C314.524 128.952 314.386 129.653 314.111 130.246C313.835 130.836 313.454 131.293 312.967 131.618C312.48 131.939 311.918 132.1 311.281 132.1C310.791 132.1 310.398 132.018 310.103 131.856C309.808 131.69 309.581 131.503 309.422 131.294C309.263 131.082 309.141 130.906 309.054 130.767L308.955 130.767L308.954 134.804L307.781 134.803ZM308.936 128.122C308.936 128.698 309.02 129.207 309.189 129.648C309.358 130.086 309.605 130.429 309.929 130.677C310.254 130.923 310.652 131.046 311.123 131.046C311.613 131.046 312.022 130.917 312.351 130.658C312.682 130.396 312.931 130.045 313.097 129.604C313.266 129.16 313.35 128.667 313.351 128.123C313.351 127.586 313.268 127.102 313.102 126.671C312.94 126.237 312.693 125.894 312.362 125.642C312.034 125.387 311.621 125.259 311.124 125.259C310.647 125.259 310.246 125.379 309.921 125.621C309.596 125.86 309.351 126.195 309.185 126.625C309.019 127.053 308.936 127.552 308.936 128.122ZM319.014 132.102C318.278 132.102 317.644 131.939 317.11 131.614C316.58 131.286 316.171 130.828 315.883 130.242C315.598 129.652 315.455 128.965 315.456 128.183C315.456 127.401 315.599 126.712 315.884 126.115C316.172 125.515 316.574 125.048 317.087 124.713C317.604 124.376 318.208 124.207 318.897 124.207C319.295 124.207 319.688 124.273 320.075 124.406C320.463 124.539 320.816 124.754 321.134 125.053C321.452 125.348 321.706 125.739 321.894 126.226C322.083 126.713 322.178 127.313 322.177 128.026L322.177 128.523L316.291 128.521L316.291 127.507L320.984 127.509C320.984 127.078 320.898 126.693 320.726 126.355C320.557 126.017 320.315 125.75 320 125.554C319.689 125.359 319.321 125.261 318.897 125.261C318.43 125.261 318.025 125.377 317.684 125.609C317.346 125.837 317.085 126.135 316.903 126.503C316.72 126.871 316.629 127.265 316.629 127.686L316.629 128.362C316.629 128.939 316.728 129.428 316.927 129.829C317.129 130.227 317.409 130.53 317.767 130.739C318.125 130.945 318.541 131.048 319.015 131.048C319.323 131.048 319.601 131.005 319.85 130.919C320.102 130.829 320.319 130.697 320.501 130.521C320.684 130.342 320.824 130.12 320.924 129.855L322.057 130.174C321.938 130.558 321.737 130.896 321.456 131.188C321.174 131.476 320.826 131.701 320.411 131.864C319.997 132.023 319.531 132.102 319.014 132.102ZM326.784 124.308L326.784 125.303L322.827 125.302L322.827 124.307L326.784 124.308ZM323.981 122.478L325.154 122.478L325.152 129.757C325.152 130.088 325.2 130.337 325.296 130.503C325.395 130.665 325.521 130.775 325.674 130.831C325.829 130.884 325.994 130.911 326.166 130.911C326.295 130.911 326.401 130.904 326.484 130.891C326.567 130.874 326.633 130.861 326.683 130.851L326.921 131.905C326.842 131.935 326.731 131.965 326.588 131.995C326.446 132.028 326.265 132.044 326.046 132.044C325.715 132.044 325.39 131.973 325.072 131.83C324.757 131.687 324.495 131.47 324.287 131.179C324.081 130.887 323.978 130.519 323.979 130.075L323.981 122.478ZM328.047 131.945L328.049 124.309L329.222 124.309L329.22 131.946L328.047 131.945ZM328.646 123.036C328.417 123.036 328.22 122.958 328.054 122.802C327.892 122.647 327.811 122.459 327.811 122.241C327.811 122.022 327.892 121.835 328.055 121.679C328.221 121.523 328.418 121.445 328.646 121.445C328.875 121.445 329.071 121.523 329.233 121.679C329.399 121.835 329.482 122.022 329.481 122.241C329.481 122.46 329.399 122.647 329.233 122.803C329.07 122.958 328.875 123.036 328.646 123.036ZM334.192 124.311L334.192 125.305L330.235 125.304L330.235 124.309L334.192 124.311ZM331.389 122.48L332.562 122.481L332.56 129.759C332.56 130.09 332.608 130.339 332.704 130.505C332.804 130.667 332.929 130.777 333.082 130.833C333.238 130.886 333.402 130.913 333.574 130.913C333.703 130.913 333.809 130.906 333.892 130.893C333.975 130.876 334.041 130.863 334.091 130.853L334.329 131.907C334.25 131.937 334.139 131.967 333.996 131.997C333.854 132.03 333.673 132.046 333.454 132.046C333.123 132.046 332.798 131.975 332.48 131.832C332.165 131.689 331.903 131.472 331.695 131.181C331.489 130.889 331.387 130.521 331.387 130.077L331.389 122.48ZM338.475 132.107C337.786 132.107 337.181 131.943 336.661 131.614C336.144 131.286 335.74 130.827 335.448 130.237C335.16 129.647 335.016 128.958 335.016 128.169C335.016 127.373 335.161 126.679 335.449 126.086C335.741 125.493 336.146 125.032 336.663 124.704C337.183 124.376 337.788 124.212 338.478 124.212C339.167 124.212 339.77 124.377 340.287 124.705C340.807 125.033 341.212 125.494 341.5 126.087C341.791 126.681 341.937 127.375 341.937 128.171C341.936 128.959 341.79 129.649 341.499 130.239C341.21 130.829 340.806 131.287 340.285 131.615C339.768 131.943 339.165 132.107 338.475 132.107ZM338.476 131.053C338.999 131.053 339.43 130.919 339.768 130.651C340.107 130.382 340.357 130.03 340.519 129.592C340.682 129.155 340.763 128.681 340.763 128.17C340.764 127.66 340.682 127.184 340.52 126.743C340.358 126.303 340.108 125.946 339.77 125.674C339.432 125.402 339.001 125.266 338.477 125.266C337.954 125.266 337.523 125.402 337.185 125.674C336.846 125.945 336.596 126.301 336.434 126.742C336.271 127.183 336.19 127.659 336.19 128.169C336.189 128.679 336.27 129.153 336.433 129.591C336.595 130.029 336.845 130.382 337.183 130.65C337.521 130.919 337.952 131.053 338.476 131.053ZM343.227 131.949L343.229 124.313L344.362 124.313L344.362 125.467L344.442 125.467C344.581 125.089 344.833 124.782 345.197 124.547C345.562 124.312 345.973 124.194 346.431 124.195C346.517 124.195 346.624 124.196 346.754 124.2C346.883 124.203 346.981 124.208 347.047 124.215L347.047 125.408C347.007 125.398 346.916 125.383 346.773 125.363C346.634 125.34 346.487 125.328 346.331 125.328C345.96 125.328 345.628 125.406 345.336 125.561C345.048 125.714 344.819 125.926 344.65 126.198C344.484 126.466 344.401 126.773 344.401 127.117L344.4 131.95L343.227 131.949Z" fill="#1D1E25"/>
<rect x="87.1836" y="121.879" width="12.2" height="10" rx="2" transform="rotate(0.0158183 87.1836 121.879)" fill="#2280FF"/>
<path d="M110.376 121.703L111.848 121.704L115.306 130.156L115.425 130.156L118.888 121.706L120.359 121.706L120.357 131.888L119.203 131.888L119.205 124.152L119.106 124.152L115.922 131.887L114.808 131.886L111.629 124.15L111.529 124.15L111.527 131.885L110.374 131.885L110.376 121.703ZM122.924 134.752C122.726 134.752 122.548 134.736 122.392 134.702C122.237 134.672 122.129 134.643 122.069 134.613L122.368 133.579C122.653 133.652 122.905 133.678 123.124 133.659C123.342 133.639 123.536 133.541 123.705 133.365C123.878 133.193 124.035 132.913 124.178 132.525L124.397 131.929L121.575 124.252L122.848 124.252L124.954 130.338L125.034 130.338L127.143 124.253L128.416 124.254L125.172 133.003C125.026 133.397 124.845 133.724 124.63 133.982C124.414 134.244 124.164 134.438 123.879 134.564C123.597 134.689 123.279 134.752 122.924 134.752ZM132.899 134.755L132.902 124.255L134.036 124.255L134.035 125.468L134.175 125.468C134.261 125.336 134.38 125.167 134.533 124.961C134.688 124.753 134.911 124.567 135.199 124.405C135.491 124.239 135.885 124.156 136.382 124.156C137.025 124.157 137.592 124.318 138.082 124.639C138.573 124.961 138.956 125.417 139.23 126.007C139.505 126.597 139.643 127.293 139.643 128.095C139.642 128.904 139.505 129.605 139.229 130.198C138.954 130.788 138.573 131.245 138.085 131.57C137.598 131.891 137.036 132.052 136.4 132.051C135.909 132.051 135.517 131.97 135.222 131.807C134.927 131.642 134.7 131.454 134.541 131.245C134.382 131.033 134.259 130.858 134.173 130.718L134.074 130.718L134.073 134.755L132.899 134.755ZM134.054 128.073C134.054 128.65 134.139 129.159 134.308 129.6C134.477 130.037 134.723 130.38 135.048 130.629C135.373 130.874 135.771 130.997 136.241 130.997C136.732 130.997 137.141 130.868 137.469 130.61C137.801 130.348 138.049 129.997 138.215 129.556C138.384 129.112 138.469 128.618 138.469 128.075C138.469 127.538 138.387 127.054 138.221 126.623C138.059 126.189 137.812 125.846 137.481 125.594C137.153 125.338 136.74 125.211 136.243 125.21C135.765 125.21 135.364 125.331 135.04 125.573C134.715 125.812 134.469 126.146 134.303 126.577C134.138 127.005 134.055 127.503 134.054 128.073ZM140.931 131.894L140.933 124.257L142.067 124.257L142.067 125.411L142.146 125.411C142.285 125.033 142.537 124.727 142.902 124.491C143.267 124.256 143.678 124.139 144.135 124.139C144.221 124.139 144.329 124.14 144.458 124.144C144.588 124.147 144.685 124.152 144.752 124.159L144.751 125.352C144.711 125.342 144.62 125.327 144.478 125.307C144.339 125.284 144.191 125.272 144.035 125.272C143.664 125.272 143.333 125.35 143.041 125.506C142.753 125.658 142.524 125.87 142.355 126.142C142.189 126.41 142.106 126.717 142.106 127.061L142.105 131.894L140.931 131.894ZM148.51 132.055C147.821 132.055 147.216 131.89 146.696 131.562C146.179 131.234 145.774 130.775 145.483 130.185C145.195 129.595 145.051 128.905 145.051 128.116C145.051 127.321 145.195 126.626 145.484 126.033C145.776 125.44 146.18 124.98 146.697 124.652C147.218 124.324 147.823 124.16 148.512 124.16C149.202 124.16 149.805 124.324 150.322 124.653C150.842 124.981 151.246 125.442 151.534 126.035C151.826 126.628 151.972 127.323 151.971 128.118C151.971 128.907 151.825 129.596 151.533 130.186C151.245 130.776 150.84 131.235 150.32 131.563C149.803 131.891 149.199 132.055 148.51 132.055ZM148.51 131.001C149.034 131.001 149.465 130.867 149.803 130.598C150.141 130.33 150.392 129.977 150.554 129.54C150.717 129.102 150.798 128.628 150.798 128.118C150.798 127.607 150.717 127.132 150.555 126.691C150.393 126.25 150.142 125.894 149.804 125.622C149.466 125.35 149.036 125.214 148.512 125.214C147.988 125.214 147.557 125.349 147.219 125.621C146.881 125.893 146.631 126.249 146.468 126.69C146.306 127.131 146.224 127.606 146.224 128.117C146.224 128.627 146.305 129.101 146.467 129.539C146.63 129.976 146.88 130.329 147.218 130.598C147.556 130.866 147.987 131.001 148.51 131.001ZM156.145 132.057C155.508 132.057 154.947 131.896 154.46 131.574C153.972 131.249 153.591 130.792 153.316 130.202C153.042 129.608 152.904 128.907 152.904 128.099C152.905 127.296 153.042 126.6 153.318 126.011C153.593 125.421 153.976 124.965 154.466 124.644C154.957 124.322 155.524 124.162 156.167 124.162C156.664 124.162 157.057 124.245 157.345 124.411C157.637 124.573 157.859 124.759 158.011 124.968C158.167 125.173 158.288 125.342 158.374 125.475L158.473 125.475L158.474 121.717L159.648 121.717L159.645 131.899L158.511 131.898L158.512 130.725L158.372 130.725C158.286 130.864 158.164 131.04 158.004 131.252C157.845 131.461 157.618 131.648 157.323 131.814C157.028 131.976 156.635 132.057 156.145 132.057ZM156.304 131.003C156.775 131.003 157.173 130.88 157.497 130.635C157.822 130.387 158.069 130.044 158.239 129.606C158.408 129.166 158.492 128.657 158.493 128.08C158.493 127.51 158.41 127.011 158.244 126.584C158.079 126.153 157.834 125.818 157.509 125.579C157.184 125.337 156.783 125.216 156.306 125.216C155.809 125.216 155.394 125.343 155.063 125.598C154.735 125.85 154.488 126.193 154.322 126.627C154.159 127.058 154.078 127.542 154.078 128.079C154.078 128.623 154.16 129.116 154.326 129.561C154.495 130.001 154.743 130.353 155.071 130.615C155.403 130.873 155.814 131.003 156.304 131.003ZM166.27 128.778L166.271 124.264L167.445 124.264L167.442 131.901L166.269 131.901L166.27 130.608L166.19 130.608C166.011 130.996 165.732 131.325 165.354 131.597C164.977 131.865 164.499 131.999 163.923 131.999C163.445 131.999 163.021 131.895 162.65 131.686C162.279 131.474 161.987 131.155 161.775 130.731C161.563 130.303 161.457 129.765 161.457 129.115L161.459 124.263L162.632 124.263L162.631 129.036C162.631 129.593 162.786 130.037 163.098 130.368C163.412 130.7 163.813 130.866 164.301 130.866C164.592 130.866 164.889 130.791 165.191 130.642C165.496 130.493 165.751 130.265 165.956 129.957C166.165 129.648 166.27 129.256 166.27 128.778ZM172.194 132.061C171.478 132.061 170.861 131.892 170.344 131.554C169.827 131.215 169.43 130.75 169.152 130.156C168.873 129.563 168.734 128.885 168.735 128.123C168.735 127.347 168.877 126.663 169.163 126.07C169.451 125.473 169.852 125.008 170.366 124.673C170.883 124.335 171.487 124.166 172.176 124.166C172.713 124.167 173.197 124.266 173.628 124.465C174.058 124.664 174.411 124.943 174.686 125.301C174.961 125.659 175.132 126.076 175.198 126.554L174.025 126.553C173.935 126.205 173.737 125.897 173.428 125.628C173.124 125.356 172.713 125.22 172.196 125.22C171.738 125.22 171.337 125.339 170.992 125.578C170.651 125.813 170.384 126.146 170.192 126.577C170.003 127.005 169.908 127.507 169.908 128.083C169.908 128.673 170 129.187 170.186 129.625C170.375 130.062 170.64 130.402 170.981 130.644C171.326 130.886 171.73 131.007 172.194 131.007C172.499 131.007 172.776 130.954 173.024 130.848C173.273 130.742 173.483 130.59 173.656 130.391C173.828 130.192 173.951 129.954 174.024 129.675L175.197 129.676C175.131 130.126 174.967 130.532 174.705 130.894C174.446 131.252 174.103 131.536 173.675 131.748C173.251 131.957 172.757 132.061 172.194 132.061ZM179.735 124.268L179.735 125.262L175.777 125.261L175.777 124.267L179.735 124.268ZM176.931 122.438L178.105 122.438L178.103 129.716C178.103 130.048 178.151 130.296 178.247 130.462C178.346 130.625 178.472 130.734 178.624 130.79C178.78 130.843 178.944 130.87 179.117 130.87C179.246 130.87 179.352 130.863 179.435 130.85C179.518 130.834 179.584 130.82 179.634 130.81L179.872 131.865C179.792 131.894 179.681 131.924 179.539 131.954C179.396 131.987 179.216 132.004 178.997 132.003C178.665 132.003 178.341 131.932 178.023 131.789C177.708 131.647 177.446 131.43 177.237 131.138C177.032 130.846 176.929 130.478 176.929 130.034L176.931 122.438Z" fill="#1D1E25"/>
</g>
</g>
<defs>
<filter id="filter0_d_256_1038" x="0" y="0.871216" width="579.096" height="506.116" filterUnits="userSpaceOnUse" color-interpolation-filters="sRGB">
<feFlood flood-opacity="0" result="BackgroundImageFix"/>
<feColorMatrix in="SourceAlpha" type="matrix" values="0 0 0 0 0 0 0 0 0 0 0 0 0 0 0 0 0 0 127 0" result="hardAlpha"/>
<feOffset dx="20" dy="40"/>
<feGaussianBlur stdDeviation="40"/>
<feComposite in2="hardAlpha" operator="out"/>
<feColorMatrix type="matrix" values="0 0 0 0 0.348368 0 0 0 0 0.377296 0 0 0 0 0.529167 0 0 0 0.12 0"/>
<feBlend mode="multiply" in2="BackgroundImageFix" result="effect1_dropShadow_256_1038"/>
<feBlend mode="normal" in="SourceGraphic" in2="effect1_dropShadow_256_1038" result="shape"/>
</filter>
<filter id="filter1_d_256_1038" x="252.053" y="138.934" width="116.007" height="82.0133" filterUnits="userSpaceOnUse" color-interpolation-filters="sRGB">
<feFlood flood-opacity="0" result="BackgroundImageFix"/>
<feColorMatrix in="SourceAlpha" type="matrix" values="0 0 0 0 0 0 0 0 0 0 0 0 0 0 0 0 0 0 127 0" result="hardAlpha"/>
<feOffset dy="4"/>
<feGaussianBlur stdDeviation="11"/>
<feComposite in2="hardAlpha" operator="out"/>
<feColorMatrix type="matrix" values="0 0 0 0 0.624722 0 0 0 0 0.6401 0 0 0 0 0.720833 0 0 0 0.25 0"/>
<feBlend mode="multiply" in2="BackgroundImageFix" result="effect1_dropShadow_256_1038"/>
<feBlend mode="normal" in="SourceGraphic" in2="effect1_dropShadow_256_1038" result="shape"/>
</filter>
<filter id="filter2_d_256_1038" x="254.052" y="188.928" width="22" height="22" filterUnits="userSpaceOnUse" color-interpolation-filters="sRGB">
<feFlood flood-opacity="0" result="BackgroundImageFix"/>
<feColorMatrix in="SourceAlpha" type="matrix" values="0 0 0 0 0 0 0 0 0 0 0 0 0 0 0 0 0 0 127 0" result="hardAlpha"/>
<feOffset dy="2"/>
<feGaussianBlur stdDeviation="2"/>
<feColorMatrix type="matrix" values="0 0 0 0 0.268354 0 0 0 0 0.268354 0 0 0 0 0.31049 0 0 0 0.15 0"/>
<feBlend mode="normal" in2="BackgroundImageFix" result="effect1_dropShadow_256_1038"/>
<feBlend mode="normal" in="SourceGraphic" in2="effect1_dropShadow_256_1038" result="shape"/>
</filter>
<linearGradient id="paint0_linear_256_1038" x1="266.513" y1="160.928" x2="266.462" y2="343.928" gradientUnits="userSpaceOnUse">
<stop stop-color="#2A85FF"/>
<stop offset="1" stop-color="#2A85FF" stop-opacity="0"/>
</linearGradient>
<clipPath id="clip0_256_1038">
<rect width="366" height="260" fill="white" transform="translate(86.5776 106.879) rotate(0.0158183)"/>
</clipPath>
<clipPath id="clip1_256_1038">
<rect width="26.84" height="206" fill="white" transform="translate(411.692 160.968) rotate(0.0158183)"/>
</clipPath>
<clipPath id="clip2_256_1038">
<rect width="29.28" height="206" fill="white" transform="translate(358.013 160.953) rotate(0.0158183)"/>
</clipPath>
<clipPath id="clip3_256_1038">
<rect width="30.5" height="206" fill="white" transform="translate(303.113 160.938) rotate(0.0158183)"/>
</clipPath>
<clipPath id="clip4_256_1038">
<rect width="48.8" height="206" fill="white" transform="translate(242.113 160.921) rotate(0.0158183)"/>
</clipPath>
<clipPath id="clip5_256_1038">
<rect width="29.28" height="206" fill="white" transform="translate(200.633 160.91) rotate(0.0158183)"/>
</clipPath>
<clipPath id="clip6_256_1038">
<rect width="32.94" height="206" fill="white" transform="translate(143.292 160.894) rotate(0.0158183)"/>
</clipPath>
<clipPath id="clip7_256_1038">
<rect width="28.06" height="206" fill="white" transform="translate(90.833 160.88) rotate(0.0158183)"/>
</clipPath>
<clipPath id="clip8_256_1038">
<rect width="29.28" height="24" fill="white" transform="translate(85.9155 294.878) rotate(0.0158183)"/>
</clipPath>
<clipPath id="clip9_256_1038">
<rect width="29.28" height="24" fill="white" transform="translate(85.9248 260.878) rotate(0.0158183)"/>
</clipPath>
<clipPath id="clip10_256_1038">
<rect width="29.28" height="24" fill="white" transform="translate(85.9346 226.878) rotate(0.0158183)"/>
</clipPath>
<clipPath id="clip11_256_1038">
<rect width="29.28" height="24" fill="white" transform="translate(85.9438 192.878) rotate(0.0158183)"/>
</clipPath>
</defs>
</svg>
