<svg width="327" height="381" viewBox="0 0 327 381" fill="none" xmlns="http://www.w3.org/2000/svg">
<g filter="url(#filter0_d_256_1138)">
<rect x="60" y="40" width="213.214" height="220.629" rx="8" fill="white"/>
<path d="M89.2784 68.502H86.7898C86.7443 68.18 86.6515 67.894 86.5114 67.644C86.3712 67.3903 86.1913 67.1743 85.9716 66.9963C85.7519 66.8183 85.4981 66.6819 85.2102 66.5872C84.9261 66.4925 84.6174 66.4452 84.2841 66.4452C83.6818 66.4452 83.1572 66.5948 82.7102 66.894C82.2633 67.1895 81.9167 67.6213 81.6705 68.1895C81.4242 68.7539 81.3011 69.4395 81.3011 70.2463C81.3011 71.0759 81.4242 71.7728 81.6705 72.3372C81.9205 72.9016 82.2689 73.3278 82.7159 73.6156C83.1629 73.9035 83.6799 74.0475 84.267 74.0475C84.5966 74.0475 84.9015 74.0039 85.1818 73.9168C85.4659 73.8297 85.7178 73.7028 85.9375 73.5361C86.1572 73.3656 86.339 73.1592 86.483 72.9168C86.6307 72.6743 86.733 72.3978 86.7898 72.0872L89.2784 72.0986C89.214 72.6327 89.053 73.1478 88.7955 73.644C88.5417 74.1365 88.1989 74.5778 87.767 74.9679C87.339 75.3543 86.8277 75.6611 86.233 75.8884C85.642 76.1118 84.9735 76.2236 84.2273 76.2236C83.1894 76.2236 82.2614 75.9887 81.4432 75.519C80.6288 75.0493 79.9848 74.3694 79.5114 73.4793C79.0417 72.5891 78.8068 71.5115 78.8068 70.2463C78.8068 68.9774 79.0455 67.8978 79.5227 67.0077C80 66.1175 80.6477 65.4395 81.4659 64.9736C82.2841 64.5039 83.2045 64.269 84.2273 64.269C84.9015 64.269 85.5265 64.3637 86.1023 64.5531C86.6818 64.7425 87.1951 65.019 87.642 65.3827C88.089 65.7425 88.4527 66.1838 88.733 66.7065C89.017 67.2293 89.1989 67.8278 89.2784 68.502ZM96.0938 72.3486V67.3372H98.5142V76.0645H96.1903V74.4793H96.0994C95.9025 74.9906 95.5748 75.4016 95.1165 75.7122C94.6619 76.0228 94.107 76.1781 93.4517 76.1781C92.8684 76.1781 92.3551 76.0456 91.9119 75.7804C91.4688 75.5153 91.1222 75.1384 90.8722 74.6497C90.6259 74.1611 90.5009 73.5759 90.4972 72.894V67.3372H92.9176V72.4622C92.9214 72.9774 93.0597 73.3846 93.3324 73.6838C93.6051 73.9831 93.9706 74.1327 94.429 74.1327C94.7206 74.1327 94.9934 74.0664 95.2472 73.9338C95.5009 73.7975 95.7055 73.5967 95.8608 73.3315C96.0199 73.0664 96.0975 72.7387 96.0938 72.3486ZM107.212 69.8259L104.996 69.9622C104.958 69.7728 104.876 69.6024 104.751 69.4509C104.626 69.2956 104.462 69.1725 104.257 69.0815C104.056 68.9868 103.816 68.9395 103.536 68.9395C103.161 68.9395 102.844 69.019 102.587 69.1781C102.329 69.3334 102.2 69.5418 102.2 69.8031C102.2 70.0115 102.284 70.1876 102.45 70.3315C102.617 70.4755 102.903 70.591 103.308 70.6781L104.888 70.9963C105.736 71.1706 106.369 71.4509 106.786 71.8372C107.202 72.2236 107.411 72.7312 107.411 73.36C107.411 73.9319 107.242 74.4338 106.905 74.8656C106.571 75.2975 106.113 75.6346 105.53 75.877C104.95 76.1156 104.282 76.235 103.524 76.235C102.369 76.235 101.448 75.9944 100.763 75.5134C100.081 75.0285 99.6813 74.3694 99.5639 73.5361L101.945 73.4111C102.017 73.7634 102.191 74.0323 102.467 74.2179C102.744 74.3997 103.098 74.4906 103.53 74.4906C103.954 74.4906 104.295 74.4092 104.553 74.2463C104.814 74.0797 104.946 73.8656 104.95 73.6043C104.946 73.3846 104.854 73.2047 104.672 73.0645C104.49 72.9206 104.21 72.8107 103.831 72.735L102.32 72.4338C101.467 72.2634 100.833 71.9679 100.416 71.5475C100.003 71.127 99.7969 70.591 99.7969 69.9395C99.7969 69.3789 99.9484 68.8959 100.251 68.4906C100.558 68.0853 100.988 67.7728 101.541 67.5531C102.098 67.3334 102.75 67.2236 103.496 67.2236C104.598 67.2236 105.465 67.4565 106.098 67.9225C106.734 68.3884 107.106 69.0228 107.212 69.8259ZM113.077 67.3372V69.1554H107.821V67.3372H113.077ZM109.014 65.2463H111.435V73.3827C111.435 73.6062 111.469 73.7804 111.537 73.9054C111.605 74.0266 111.7 74.1118 111.821 74.1611C111.946 74.2103 112.09 74.235 112.253 74.235C112.366 74.235 112.48 74.2255 112.594 74.2065C112.707 74.1838 112.795 74.1668 112.855 74.1554L113.236 75.9565C113.115 75.9944 112.944 76.038 112.724 76.0872C112.505 76.1403 112.238 76.1725 111.923 76.1838C111.34 76.2065 110.829 76.1289 110.389 75.9509C109.954 75.7728 109.615 75.4963 109.372 75.1213C109.13 74.7463 109.01 74.2728 109.014 73.7009V65.2463ZM118.003 76.235C117.12 76.235 116.357 76.0475 115.713 75.6725C115.073 75.2937 114.579 74.7672 114.23 74.0929C113.882 73.4149 113.707 72.6289 113.707 71.735C113.707 70.8334 113.882 70.0456 114.23 69.3713C114.579 68.6933 115.073 68.1668 115.713 67.7918C116.357 67.413 117.12 67.2236 118.003 67.2236C118.885 67.2236 119.647 67.413 120.287 67.7918C120.931 68.1668 121.427 68.6933 121.776 69.3713C122.124 70.0456 122.298 70.8334 122.298 71.735C122.298 72.6289 122.124 73.4149 121.776 74.0929C121.427 74.7672 120.931 75.2937 120.287 75.6725C119.647 76.0475 118.885 76.235 118.003 76.235ZM118.014 74.36C118.416 74.36 118.751 74.2463 119.02 74.019C119.289 73.788 119.491 73.4736 119.628 73.0759C119.768 72.6781 119.838 72.2255 119.838 71.7179C119.838 71.2103 119.768 70.7577 119.628 70.36C119.491 69.9622 119.289 69.6478 119.02 69.4168C118.751 69.1857 118.416 69.0702 118.014 69.0702C117.609 69.0702 117.268 69.1857 116.991 69.4168C116.719 69.6478 116.512 69.9622 116.372 70.36C116.236 70.7577 116.168 71.2103 116.168 71.7179C116.168 72.2255 116.236 72.6781 116.372 73.0759C116.512 73.4736 116.719 73.788 116.991 74.019C117.268 74.2463 117.609 74.36 118.014 74.36ZM123.372 76.0645V67.3372H125.679V68.877H125.781C125.963 68.3656 126.266 67.9622 126.69 67.6668C127.115 67.3713 127.622 67.2236 128.213 67.2236C128.812 67.2236 129.321 67.3732 129.741 67.6725C130.162 67.9679 130.442 68.3694 130.582 68.877H130.673C130.851 68.377 131.173 67.9774 131.639 67.6781C132.109 67.3751 132.664 67.2236 133.304 67.2236C134.118 67.2236 134.779 67.4831 135.287 68.002C135.798 68.5172 136.054 69.2482 136.054 70.1952V76.0645H133.639V70.6725C133.639 70.1876 133.51 69.824 133.253 69.5815C132.995 69.3391 132.673 69.2179 132.287 69.2179C131.848 69.2179 131.505 69.3581 131.259 69.6384C131.012 69.9149 130.889 70.2804 130.889 70.735V76.0645H128.543V70.6213C128.543 70.1933 128.42 69.8524 128.173 69.5986C127.931 69.3448 127.611 69.2179 127.213 69.2179C126.944 69.2179 126.702 69.2861 126.486 69.4225C126.274 69.555 126.105 69.7425 125.98 69.985C125.855 70.2236 125.793 70.5039 125.793 70.8259V76.0645H123.372ZM141.443 76.235C140.545 76.235 139.773 76.0531 139.125 75.6895C138.481 75.3221 137.985 74.8031 137.636 74.1327C137.288 73.4584 137.114 72.6611 137.114 71.7406C137.114 70.8429 137.288 70.055 137.636 69.377C137.985 68.699 138.475 68.1706 139.108 67.7918C139.744 67.413 140.491 67.2236 141.347 67.2236C141.922 67.2236 142.458 67.3164 142.955 67.502C143.455 67.6838 143.89 67.9584 144.261 68.3259C144.636 68.6933 144.928 69.1554 145.136 69.7122C145.345 70.2653 145.449 70.913 145.449 71.6554V72.3202H138.08V70.8202H143.17C143.17 70.4717 143.095 70.163 142.943 69.894C142.792 69.6251 142.581 69.4149 142.312 69.2634C142.047 69.1081 141.739 69.0304 141.386 69.0304C141.019 69.0304 140.693 69.1156 140.409 69.2861C140.129 69.4528 139.909 69.6781 139.75 69.9622C139.591 70.2425 139.509 70.555 139.506 70.8997V72.3259C139.506 72.7577 139.585 73.1308 139.744 73.4452C139.907 73.7596 140.136 74.002 140.432 74.1725C140.727 74.3429 141.078 74.4281 141.483 74.4281C141.752 74.4281 141.998 74.3903 142.222 74.3145C142.445 74.2387 142.636 74.1251 142.795 73.9736C142.955 73.8221 143.076 73.6365 143.159 73.4168L145.398 73.5645C145.284 74.1024 145.051 74.5721 144.699 74.9736C144.35 75.3713 143.9 75.6819 143.347 75.9054C142.797 76.1251 142.163 76.235 141.443 76.235ZM146.528 76.0645V67.3372H148.875V68.86H148.966C149.125 68.3183 149.392 67.9092 149.767 67.6327C150.142 67.3524 150.574 67.2122 151.062 67.2122C151.184 67.2122 151.314 67.2198 151.455 67.235C151.595 67.2501 151.718 67.2709 151.824 67.2975V69.4452C151.71 69.4111 151.553 69.3808 151.352 69.3543C151.152 69.3278 150.968 69.3145 150.801 69.3145C150.445 69.3145 150.127 69.3922 149.847 69.5475C149.57 69.699 149.35 69.9111 149.188 70.1838C149.028 70.4565 148.949 70.7709 148.949 71.127V76.0645H146.528ZM163.54 68.1895C163.46 67.913 163.348 67.6687 163.205 67.4565C163.061 67.2406 162.884 67.0588 162.676 66.9111C162.472 66.7596 162.237 66.644 161.972 66.5645C161.71 66.485 161.42 66.4452 161.102 66.4452C160.508 66.4452 159.985 66.5929 159.534 66.8884C159.087 67.1838 158.739 67.6137 158.489 68.1781C158.239 68.7387 158.114 69.4243 158.114 70.235C158.114 71.0456 158.237 71.735 158.483 72.3031C158.729 72.8713 159.078 73.305 159.528 73.6043C159.979 73.8997 160.511 74.0475 161.125 74.0475C161.682 74.0475 162.157 73.949 162.551 73.752C162.949 73.5512 163.252 73.269 163.46 72.9054C163.672 72.5418 163.778 72.1118 163.778 71.6156L164.278 71.6895H161.278V69.8372H166.148V71.3031C166.148 72.3259 165.932 73.2047 165.5 73.9395C165.068 74.6706 164.473 75.235 163.716 75.6327C162.958 76.0266 162.091 76.2236 161.114 76.2236C160.023 76.2236 159.064 75.9831 158.239 75.502C157.413 75.0172 156.769 74.3297 156.307 73.4395C155.848 72.5456 155.619 71.485 155.619 70.2577C155.619 69.3145 155.756 68.4736 156.028 67.735C156.305 66.9925 156.691 66.3637 157.188 65.8486C157.684 65.3334 158.261 64.9414 158.92 64.6725C159.58 64.4035 160.294 64.269 161.062 64.269C161.722 64.269 162.335 64.3656 162.903 64.5588C163.472 64.7482 163.975 65.0172 164.415 65.3656C164.858 65.7141 165.22 66.1289 165.5 66.61C165.78 67.0872 165.96 67.6137 166.04 68.1895H163.54ZM167.45 76.0645V67.3372H169.797V68.86H169.888C170.047 68.3183 170.314 67.9092 170.689 67.6327C171.064 67.3524 171.496 67.2122 171.984 67.2122C172.106 67.2122 172.236 67.2198 172.376 67.235C172.517 67.2501 172.64 67.2709 172.746 67.2975V69.4452C172.632 69.4111 172.475 69.3808 172.274 69.3543C172.073 69.3278 171.89 69.3145 171.723 69.3145C171.367 69.3145 171.049 69.3922 170.768 69.5475C170.492 69.699 170.272 69.9111 170.109 70.1838C169.95 70.4565 169.871 70.7709 169.871 71.127V76.0645H167.45ZM177.034 76.235C176.152 76.235 175.388 76.0475 174.744 75.6725C174.104 75.2937 173.61 74.7672 173.261 74.0929C172.913 73.4149 172.739 72.6289 172.739 71.735C172.739 70.8334 172.913 70.0456 173.261 69.3713C173.61 68.6933 174.104 68.1668 174.744 67.7918C175.388 67.413 176.152 67.2236 177.034 67.2236C177.917 67.2236 178.678 67.413 179.318 67.7918C179.962 68.1668 180.458 68.6933 180.807 69.3713C181.155 70.0456 181.33 70.8334 181.33 71.735C181.33 72.6289 181.155 73.4149 180.807 74.0929C180.458 74.7672 179.962 75.2937 179.318 75.6725C178.678 76.0475 177.917 76.235 177.034 76.235ZM177.045 74.36C177.447 74.36 177.782 74.2463 178.051 74.019C178.32 73.788 178.523 73.4736 178.659 73.0759C178.799 72.6781 178.869 72.2255 178.869 71.7179C178.869 71.2103 178.799 70.7577 178.659 70.36C178.523 69.9622 178.32 69.6478 178.051 69.4168C177.782 69.1857 177.447 69.0702 177.045 69.0702C176.64 69.0702 176.299 69.1857 176.023 69.4168C175.75 69.6478 175.544 69.9622 175.403 70.36C175.267 70.7577 175.199 71.2103 175.199 71.7179C175.199 72.2255 175.267 72.6781 175.403 73.0759C175.544 73.4736 175.75 73.788 176.023 74.019C176.299 74.2463 176.64 74.36 177.045 74.36ZM183.906 76.0645L181.531 67.3372H183.98L185.332 73.2009H185.412L186.821 67.3372H189.224L190.656 73.1668H190.73L192.06 67.3372H194.503L192.134 76.0645H189.571L188.071 70.5759H187.963L186.463 76.0645H183.906ZM199.936 67.3372V69.1554H194.68V67.3372H199.936ZM195.874 65.2463H198.294V73.3827C198.294 73.6062 198.328 73.7804 198.396 73.9054C198.464 74.0266 198.559 74.1118 198.68 74.1611C198.805 74.2103 198.949 74.235 199.112 74.235C199.226 74.235 199.339 74.2255 199.453 74.2065C199.567 74.1838 199.654 74.1668 199.714 74.1554L200.095 75.9565C199.974 75.9944 199.804 76.038 199.584 76.0872C199.364 76.1403 199.097 76.1725 198.783 76.1838C198.199 76.2065 197.688 76.1289 197.249 75.9509C196.813 75.7728 196.474 75.4963 196.232 75.1213C195.989 74.7463 195.87 74.2728 195.874 73.7009V65.2463ZM203.621 71.019V76.0645H201.2V64.4281H203.553V68.877H203.655C203.852 68.3618 204.17 67.9584 204.609 67.6668C205.049 67.3713 205.6 67.2236 206.263 67.2236C206.869 67.2236 207.397 67.3562 207.848 67.6213C208.303 67.8827 208.655 68.2596 208.905 68.752C209.159 69.2406 209.284 69.8259 209.28 70.5077V76.0645H206.859V70.9395C206.863 70.4016 206.727 69.9831 206.45 69.6838C206.178 69.3846 205.795 69.235 205.303 69.235C204.973 69.235 204.681 69.305 204.428 69.4452C204.178 69.5853 203.981 69.7899 203.837 70.0588C203.696 70.324 203.625 70.644 203.621 71.019Z" fill="#1D1E25"/>
<line x1="106.702" y1="109.773" x2="249.702" y2="109.773" stroke="#E6E9ED" stroke-dasharray="2 2"/>
<line x1="106.702" y1="161.773" x2="249.702" y2="161.773" stroke="#E6E9ED" stroke-dasharray="2 2"/>
<line x1="106.702" y1="216.773" x2="249.702" y2="216.773" stroke="#E6E9ED" stroke-dasharray="2 2"/>
<path d="M115.25 231.486H116.307V237.725C116.307 238.282 116.205 238.755 116 239.144C115.796 239.533 115.508 239.829 115.135 240.03C114.763 240.232 114.324 240.333 113.819 240.333C113.341 240.333 112.917 240.246 112.544 240.073C112.172 239.897 111.88 239.647 111.667 239.323C111.454 238.999 111.347 238.614 111.347 238.168H112.387C112.387 238.415 112.448 238.631 112.57 238.816C112.695 238.998 112.866 239.14 113.081 239.242C113.297 239.344 113.543 239.396 113.819 239.396C114.123 239.396 114.381 239.332 114.594 239.204C114.807 239.076 114.969 238.888 115.08 238.641C115.194 238.391 115.25 238.086 115.25 237.725V231.486ZM120.215 240.367C119.8 240.367 119.424 240.289 119.086 240.133C118.748 239.974 118.479 239.745 118.28 239.447C118.081 239.146 117.982 238.782 117.982 238.356C117.982 237.981 118.056 237.677 118.204 237.444C118.351 237.208 118.549 237.023 118.796 236.89C119.043 236.756 119.316 236.657 119.614 236.592C119.915 236.523 120.218 236.469 120.522 236.43C120.919 236.378 121.242 236.34 121.489 236.315C121.739 236.286 121.921 236.239 122.035 236.174C122.151 236.109 122.209 235.995 122.209 235.833V235.799C122.209 235.378 122.094 235.052 121.864 234.819C121.637 234.586 121.292 234.469 120.829 234.469C120.348 234.469 119.972 234.574 119.699 234.785C119.427 234.995 119.235 235.219 119.124 235.458L118.169 235.117C118.34 234.719 118.567 234.41 118.851 234.188C119.138 233.964 119.451 233.807 119.789 233.719C120.13 233.628 120.465 233.583 120.794 233.583C121.005 233.583 121.246 233.609 121.519 233.66C121.794 233.708 122.06 233.809 122.316 233.962C122.574 234.116 122.789 234.347 122.959 234.657C123.13 234.967 123.215 235.381 123.215 235.901V240.214H122.209V239.327H122.158C122.09 239.469 121.976 239.621 121.817 239.783C121.658 239.945 121.446 240.083 121.182 240.197C120.918 240.31 120.596 240.367 120.215 240.367ZM120.368 239.464C120.766 239.464 121.101 239.386 121.374 239.229C121.65 239.073 121.857 238.871 121.996 238.624C122.138 238.377 122.209 238.117 122.209 237.844V236.924C122.167 236.975 122.073 237.022 121.928 237.065C121.786 237.104 121.621 237.14 121.434 237.171C121.249 237.199 121.069 237.225 120.893 237.248C120.719 237.268 120.579 237.285 120.471 237.299C120.209 237.333 119.965 237.388 119.738 237.465C119.513 237.539 119.331 237.651 119.192 237.802C119.056 237.949 118.988 238.151 118.988 238.407C118.988 238.756 119.117 239.021 119.375 239.199C119.637 239.376 119.968 239.464 120.368 239.464ZM126.056 236.276V240.214H125.051V233.668H126.022V234.691H126.107C126.261 234.359 126.494 234.092 126.806 233.89C127.119 233.685 127.522 233.583 128.016 233.583C128.46 233.583 128.847 233.674 129.18 233.856C129.512 234.035 129.771 234.307 129.955 234.674C130.14 235.038 130.232 235.498 130.232 236.055V240.214H129.227V236.123C129.227 235.609 129.093 235.208 128.826 234.921C128.559 234.631 128.193 234.486 127.727 234.486C127.406 234.486 127.119 234.556 126.866 234.695C126.616 234.834 126.418 235.038 126.274 235.305C126.129 235.572 126.056 235.896 126.056 236.276Z" fill="#808D9E"/>
<path opacity="0.7" d="M78.7303 104.814V103.774H80.8103V111.064H79.6603V104.814H78.7303ZM82.3764 107.324C82.3764 106.171 82.5697 105.271 82.9564 104.624C83.3497 103.971 84.023 103.644 84.9764 103.644C85.9297 103.644 86.5997 103.971 86.9864 104.624C87.3797 105.271 87.5764 106.171 87.5764 107.324C87.5764 108.491 87.3797 109.404 86.9864 110.064C86.5997 110.718 85.9297 111.044 84.9764 111.044C84.023 111.044 83.3497 110.718 82.9564 110.064C82.5697 109.404 82.3764 108.491 82.3764 107.324ZM86.4564 107.324C86.4564 106.784 86.4197 106.328 86.3464 105.954C86.2797 105.581 86.1397 105.278 85.9264 105.044C85.713 104.804 85.3964 104.684 84.9764 104.684C84.5564 104.684 84.2397 104.804 84.0264 105.044C83.813 105.278 83.6697 105.581 83.5964 105.954C83.5297 106.328 83.4964 106.784 83.4964 107.324C83.4964 107.884 83.5297 108.354 83.5964 108.734C83.663 109.114 83.803 109.421 84.0164 109.654C84.2364 109.888 84.5564 110.004 84.9764 110.004C85.3964 110.004 85.713 109.888 85.9264 109.654C86.1464 109.421 86.2897 109.114 86.3564 108.734C86.423 108.354 86.4564 107.884 86.4564 107.324ZM91.1126 108.314L93.6526 111.064H92.1126L90.0726 108.694V111.064H88.9326V103.664H90.0726V107.964L92.0726 105.554H93.6526L91.1126 108.314Z" fill="#1D1E25"/>
<path opacity="0.7" d="M85.3381 158.754H81.9881V160.744C82.1281 160.558 82.3348 160.401 82.6081 160.274C82.8881 160.148 83.1848 160.084 83.4981 160.084C84.0581 160.084 84.5114 160.204 84.8581 160.444C85.2114 160.684 85.4614 160.988 85.6081 161.354C85.7614 161.721 85.8381 162.108 85.8381 162.514C85.8381 163.008 85.7414 163.448 85.5481 163.834C85.3614 164.214 85.0781 164.514 84.6981 164.734C84.3248 164.954 83.8648 165.064 83.3181 165.064C82.5914 165.064 82.0081 164.884 81.5681 164.524C81.1281 164.164 80.8648 163.688 80.7781 163.094H81.8881C81.9614 163.408 82.1248 163.658 82.3781 163.844C82.6314 164.024 82.9481 164.114 83.3281 164.114C83.8014 164.114 84.1548 163.971 84.3881 163.684C84.6281 163.398 84.7481 163.018 84.7481 162.544C84.7481 162.064 84.6281 161.698 84.3881 161.444C84.1481 161.184 83.7948 161.054 83.3281 161.054C83.0014 161.054 82.7248 161.138 82.4981 161.304C82.2781 161.464 82.1181 161.684 82.0181 161.964H80.9381V157.754H85.3381V158.754ZM89.3548 162.314L91.8948 165.064H90.3548L88.3148 162.694V165.064H87.1748V157.664H88.3148V161.964L90.3148 159.554H91.8948L89.3548 162.314Z" fill="#1D1E25"/>
<path opacity="0.7" d="M83.3969 215.324C83.3969 214.171 83.5902 213.271 83.9769 212.624C84.3702 211.971 85.0435 211.644 85.9969 211.644C86.9502 211.644 87.6202 211.971 88.0069 212.624C88.4002 213.271 88.5969 214.171 88.5969 215.324C88.5969 216.491 88.4002 217.404 88.0069 218.064C87.6202 218.718 86.9502 219.044 85.9969 219.044C85.0435 219.044 84.3702 218.718 83.9769 218.064C83.5902 217.404 83.3969 216.491 83.3969 215.324ZM87.4769 215.324C87.4769 214.784 87.4402 214.328 87.3669 213.954C87.3002 213.581 87.1602 213.278 86.9469 213.044C86.7335 212.804 86.4169 212.684 85.9969 212.684C85.5769 212.684 85.2602 212.804 85.0469 213.044C84.8335 213.278 84.6902 213.581 84.6169 213.954C84.5502 214.328 84.5169 214.784 84.5169 215.324C84.5169 215.884 84.5502 216.354 84.6169 216.734C84.6835 217.114 84.8235 217.421 85.0369 217.654C85.2569 217.888 85.5769 218.004 85.9969 218.004C86.4169 218.004 86.7335 217.888 86.9469 217.654C87.1669 217.421 87.3102 217.114 87.3769 216.734C87.4435 216.354 87.4769 215.884 87.4769 215.324Z" fill="#1D1E25"/>
<path d="M224.619 231.486H225.88L228.846 238.731H228.948L231.914 231.486H233.175V240.214H232.187V233.583H232.102L229.374 240.214H228.42L225.692 233.583H225.607V240.214H224.619V231.486ZM237.084 240.367C236.669 240.367 236.293 240.289 235.955 240.133C235.617 239.974 235.348 239.745 235.149 239.447C234.951 239.146 234.851 238.782 234.851 238.356C234.851 237.981 234.925 237.677 235.073 237.444C235.22 237.208 235.418 237.023 235.665 236.89C235.912 236.756 236.185 236.657 236.483 236.592C236.784 236.523 237.087 236.469 237.391 236.43C237.789 236.378 238.111 236.34 238.358 236.315C238.608 236.286 238.79 236.239 238.904 236.174C239.02 236.109 239.078 235.995 239.078 235.833V235.799C239.078 235.378 238.963 235.052 238.733 234.819C238.506 234.586 238.161 234.469 237.698 234.469C237.218 234.469 236.841 234.574 236.568 234.785C236.296 234.995 236.104 235.219 235.993 235.458L235.039 235.117C235.209 234.719 235.436 234.41 235.72 234.188C236.007 233.964 236.32 233.807 236.658 233.719C236.999 233.628 237.334 233.583 237.664 233.583C237.874 233.583 238.115 233.609 238.388 233.66C238.664 233.708 238.929 233.809 239.185 233.962C239.443 234.116 239.658 234.347 239.828 234.657C239.999 234.967 240.084 235.381 240.084 235.901V240.214H239.078V239.327H239.027C238.959 239.469 238.845 239.621 238.686 239.783C238.527 239.945 238.316 240.083 238.051 240.197C237.787 240.31 237.465 240.367 237.084 240.367ZM237.238 239.464C237.635 239.464 237.97 239.386 238.243 239.229C238.519 239.073 238.726 238.871 238.865 238.624C239.007 238.377 239.078 238.117 239.078 237.844V236.924C239.036 236.975 238.942 237.022 238.797 237.065C238.655 237.104 238.49 237.14 238.303 237.171C238.118 237.199 237.938 237.225 237.762 237.248C237.588 237.268 237.448 237.285 237.34 237.299C237.078 237.333 236.834 237.388 236.607 237.465C236.382 237.539 236.201 237.651 236.061 237.802C235.925 237.949 235.857 238.151 235.857 238.407C235.857 238.756 235.986 239.021 236.245 239.199C236.506 239.376 236.837 239.464 237.238 239.464ZM241.92 240.214V233.668H242.891V234.657H242.959C243.079 234.333 243.295 234.07 243.607 233.869C243.92 233.667 244.272 233.566 244.664 233.566C244.738 233.566 244.83 233.567 244.941 233.57C245.052 233.573 245.136 233.577 245.192 233.583V234.606C245.158 234.597 245.08 234.584 244.958 234.567C244.839 234.548 244.712 234.538 244.579 234.538C244.261 234.538 243.977 234.604 243.727 234.738C243.479 234.869 243.283 235.05 243.138 235.283C242.996 235.513 242.925 235.776 242.925 236.072V240.214H241.92Z" fill="#808D9E"/>
<path d="M168.619 240.214V231.486H173.852V232.424H169.676V235.373H173.46V236.31H169.676V240.214H168.619ZM177.79 240.35C177.159 240.35 176.615 240.211 176.157 239.932C175.703 239.651 175.352 239.259 175.105 238.756C174.861 238.251 174.738 237.663 174.738 236.992C174.738 236.322 174.861 235.731 175.105 235.219C175.352 234.705 175.696 234.305 176.136 234.018C176.579 233.728 177.096 233.583 177.687 233.583C178.028 233.583 178.365 233.64 178.697 233.753C179.03 233.867 179.332 234.052 179.605 234.307C179.878 234.56 180.095 234.896 180.257 235.313C180.419 235.731 180.5 236.245 180.5 236.856V237.282H175.454V236.413H179.477C179.477 236.043 179.403 235.714 179.255 235.424C179.111 235.134 178.903 234.905 178.633 234.738C178.366 234.57 178.051 234.486 177.687 234.486C177.287 234.486 176.94 234.586 176.648 234.785C176.358 234.981 176.135 235.236 175.978 235.552C175.822 235.867 175.744 236.205 175.744 236.566V237.146C175.744 237.64 175.829 238.059 176 238.403C176.173 238.744 176.413 239.003 176.72 239.182C177.027 239.359 177.383 239.447 177.79 239.447C178.054 239.447 178.292 239.41 178.505 239.336C178.721 239.259 178.907 239.146 179.064 238.995C179.22 238.842 179.341 238.651 179.426 238.424L180.398 238.697C180.295 239.026 180.123 239.316 179.882 239.566C179.64 239.813 179.342 240.006 178.987 240.146C178.632 240.282 178.233 240.35 177.79 240.35ZM182.166 240.214V231.486H183.172V234.708H183.257C183.331 234.594 183.433 234.449 183.564 234.273C183.697 234.094 183.888 233.935 184.135 233.796C184.385 233.654 184.723 233.583 185.149 233.583C185.7 233.583 186.186 233.721 186.606 233.996C187.027 234.272 187.355 234.663 187.591 235.168C187.827 235.674 187.944 236.271 187.944 236.958C187.944 237.651 187.827 238.252 187.591 238.761C187.355 239.266 187.028 239.658 186.611 239.937C186.193 240.212 185.711 240.35 185.166 240.35C184.746 240.35 184.409 240.28 184.156 240.141C183.903 239.999 183.709 239.839 183.572 239.66C183.436 239.478 183.331 239.327 183.257 239.208H183.138V240.214H182.166ZM183.155 236.941C183.155 237.435 183.227 237.871 183.372 238.249C183.517 238.624 183.728 238.918 184.007 239.131C184.285 239.342 184.626 239.447 185.03 239.447C185.45 239.447 185.801 239.336 186.082 239.114C186.366 238.89 186.579 238.589 186.721 238.211C186.866 237.83 186.939 237.407 186.939 236.941C186.939 236.481 186.868 236.066 186.726 235.697C186.586 235.324 186.375 235.03 186.091 234.815C185.809 234.596 185.456 234.486 185.03 234.486C184.621 234.486 184.277 234.59 183.998 234.798C183.72 235.002 183.51 235.289 183.368 235.658C183.226 236.025 183.155 236.452 183.155 236.941Z" fill="#808D9E"/>
<rect x="114.75" y="114.564" width="15" height="52.5351" rx="7.5" fill="#EB6E46" stroke="white" stroke-width="3"/>
<rect x="114.75" y="129.361" width="15" height="52.5351" rx="7.5" fill="#20BFF7" stroke="white" stroke-width="3"/>
<rect x="114.75" y="166.673" width="15" height="52.5351" rx="7.5" fill="#2280FF" stroke="white" stroke-width="3"/>
<rect x="170.75" y="148.66" width="15" height="35.2918" rx="7.5" fill="#EB6E46" stroke="white" stroke-width="3"/>
<rect x="170.75" y="173.106" width="15" height="35.2918" rx="7.5" fill="#20BFF7" stroke="white" stroke-width="3"/>
<rect x="170.75" y="198.839" width="15" height="20.3694" rx="7.5" fill="#2280FF" stroke="white" stroke-width="3"/>
<rect x="226.75" y="153.163" width="15" height="33.7243" rx="7.5" fill="#EB6E46" stroke="white" stroke-width="3"/>
<rect x="226.75" y="162.341" width="15" height="33.7243" rx="7.5" fill="#20BFF7" stroke="white" stroke-width="3"/>
<rect x="226.75" y="185.485" width="15" height="33.7243" rx="7.5" fill="#2280FF" stroke="white" stroke-width="3"/>
</g>
<defs>
<filter id="filter0_d_256_1138" x="0" y="0" width="373.213" height="380.629" filterUnits="userSpaceOnUse" color-interpolation-filters="sRGB">
<feFlood flood-opacity="0" result="BackgroundImageFix"/>
<feColorMatrix in="SourceAlpha" type="matrix" values="0 0 0 0 0 0 0 0 0 0 0 0 0 0 0 0 0 0 127 0" result="hardAlpha"/>
<feOffset dx="20" dy="40"/>
<feGaussianBlur stdDeviation="40"/>
<feComposite in2="hardAlpha" operator="out"/>
<feColorMatrix type="matrix" values="0 0 0 0 0.178125 0 0 0 0 0.200292 0 0 0 0 0.316667 0 0 0 0.12 0"/>
<feBlend mode="multiply" in2="BackgroundImageFix" result="effect1_dropShadow_256_1138"/>
<feBlend mode="normal" in="SourceGraphic" in2="effect1_dropShadow_256_1138" result="shape"/>
</filter>
</defs>
</svg>
