<svg width="580" height="280" viewBox="0 0 580 280" fill="none" xmlns="http://www.w3.org/2000/svg">
<g filter="url(#filter0_d_256_1112)">
<rect x="60.0957" y="40.7371" width="419" height="119" rx="8" transform="rotate(0.0158183 60.0957 40.7371)" fill="black"/>
<path d="M94.6428 106.565L94.6478 88.383L95.8126 88.3833L95.8076 106.565L94.6428 106.565ZM97.7357 94.3852C97.679 93.8123 97.4353 93.3672 97.0045 93.0498C96.5737 92.7325 95.989 92.5737 95.2504 92.5735C94.7485 92.5733 94.3247 92.6442 93.979 92.7862C93.6333 92.9234 93.3681 93.1151 93.1834 93.3613C93.0034 93.6074 92.9134 93.8868 92.9133 94.1993C92.9037 94.4597 92.9581 94.687 93.0764 94.8811C93.1995 95.0753 93.3675 95.2434 93.5806 95.3855C93.7936 95.5229 94.0398 95.6437 94.3191 95.7479C94.5984 95.8474 94.8967 95.9328 95.2139 96.0039L96.5206 96.3167C97.1551 96.4589 97.7374 96.6485 98.2676 96.8854C98.7979 97.1223 99.2571 97.4136 99.6452 97.7594C100.033 98.1051 100.334 98.5124 100.547 98.9812C100.765 99.45 100.876 99.9874 100.88 100.593C100.875 101.484 100.648 102.255 100.198 102.909C99.7525 103.557 99.1085 104.061 98.2656 104.421C97.4274 104.776 96.4165 104.953 95.2327 104.953C94.0585 104.952 93.0358 104.772 92.1647 104.412C91.2983 104.052 90.6214 103.519 90.1339 102.814C89.6511 102.103 89.3981 101.225 89.3747 100.178L92.3505 100.179C92.3836 100.667 92.5231 101.074 92.7692 101.401C93.0201 101.723 93.3538 101.967 93.7705 102.133C94.1918 102.294 94.6676 102.374 95.1979 102.375C95.7188 102.375 96.171 102.299 96.5545 102.148C96.9428 101.996 97.2436 101.786 97.4567 101.516C97.6699 101.246 97.7765 100.936 97.7766 100.586C97.7767 100.259 97.6797 99.9842 97.4856 99.7616C97.2963 99.539 97.017 99.3495 96.6477 99.1932C96.2831 99.0368 95.8357 98.8947 95.3055 98.7667L93.7218 98.3685C92.4955 98.0699 91.5274 97.6032 90.8173 96.9686C90.1073 96.3339 89.7548 95.4792 89.7598 94.4043C89.7553 93.5237 89.9899 92.7543 90.4636 92.0963C90.942 91.4383 91.5979 90.9247 92.4313 90.5557C93.2648 90.1866 94.2118 90.0022 95.2724 90.0025C96.3519 90.0028 97.2941 90.1877 98.0989 90.5572C98.9085 90.9268 99.5381 91.4407 99.9877 92.0989C100.437 92.7572 100.669 93.5196 100.683 94.3861L97.7357 94.3852ZM108.239 104.949C107.178 104.949 106.234 104.766 105.405 104.402C104.581 104.032 103.93 103.525 103.452 102.881C102.979 102.232 102.735 101.484 102.722 100.637L105.818 100.637C105.837 100.993 105.953 101.305 106.166 101.575C106.384 101.84 106.672 102.046 107.032 102.193C107.392 102.34 107.797 102.414 108.247 102.414C108.715 102.414 109.13 102.331 109.49 102.165C109.849 102 110.131 101.77 110.335 101.477C110.539 101.183 110.64 100.845 110.641 100.461C110.641 100.073 110.532 99.7297 110.314 99.4313C110.101 99.1282 109.793 98.8914 109.391 98.7208C108.993 98.5503 108.52 98.4649 107.971 98.4648L106.614 98.4644L106.615 96.2059L107.971 96.2063C108.435 96.2064 108.845 96.126 109.2 95.9651C109.56 95.8042 109.839 95.5818 110.038 95.2977C110.237 95.009 110.337 94.6728 110.337 94.2893C110.337 93.9247 110.249 93.6051 110.074 93.3304C109.904 93.051 109.663 92.8331 109.35 92.6768C109.042 92.5205 108.683 92.4422 108.271 92.4421C107.854 92.442 107.473 92.5177 107.127 92.6691C106.781 92.8158 106.504 93.0264 106.296 93.301C106.088 93.5755 105.976 93.8975 105.962 94.2668L103.014 94.266C103.029 93.4279 103.268 92.6893 103.732 92.0503C104.197 91.4112 104.822 90.9118 105.608 90.5522C106.399 90.1878 107.291 90.0058 108.286 90.0061C109.289 90.0063 110.168 90.1889 110.92 90.5537C111.673 90.9184 112.258 91.411 112.674 92.0314C113.095 92.6471 113.304 93.3384 113.299 94.1055C113.303 94.9198 113.05 95.5992 112.538 96.1436C112.031 96.688 111.371 97.0334 110.556 97.18L110.556 97.2936C111.626 97.4312 112.441 97.8031 112.999 98.4093C113.562 99.0108 113.842 99.7637 113.837 100.668C113.841 101.497 113.602 102.233 113.119 102.877C112.64 103.521 111.98 104.027 111.137 104.396C110.294 104.765 109.328 104.95 108.239 104.949ZM122.378 90.2088L122.374 104.754L119.299 104.753L119.302 93.127L119.217 93.127L115.885 95.2141L115.886 92.4868L119.488 90.208L122.378 90.2088ZM128.367 102.767L128.289 103.549C128.227 104.173 128.109 104.796 127.933 105.416C127.763 106.041 127.583 106.607 127.393 107.114C127.208 107.62 127.059 108.018 126.945 108.307L124.985 108.306C125.056 108.027 125.153 107.636 125.277 107.134C125.4 106.637 125.516 106.079 125.625 105.458C125.734 104.838 125.803 104.206 125.831 103.562L125.867 102.767L128.367 102.767ZM136.222 105.078C135 105.073 133.949 104.772 133.069 104.175C132.193 103.578 131.518 102.714 131.045 101.582C130.577 100.45 130.345 99.0888 130.35 97.4979C130.351 95.9118 130.585 94.56 131.054 93.4427C131.528 92.3254 132.203 91.4757 133.079 90.8936C133.96 90.3067 135.009 90.0134 136.226 90.0138C137.443 90.0141 138.489 90.308 139.365 90.8953C140.245 91.4827 140.922 92.3351 141.395 93.4527C141.869 94.5655 142.103 95.915 142.097 97.5012C142.097 99.0968 141.86 100.46 141.386 101.592C140.917 102.723 140.244 103.587 139.368 104.184C138.492 104.78 137.443 105.078 136.222 105.078ZM136.222 102.528C137.056 102.528 137.721 102.109 138.218 101.271C138.716 100.433 138.962 99.1765 138.958 97.5003C138.958 96.3971 138.845 95.4785 138.618 94.7445C138.396 94.0106 138.079 93.4589 137.667 93.0895C137.26 92.72 136.779 92.5352 136.225 92.5351C135.397 92.5348 134.734 92.949 134.236 93.7774C133.739 94.6059 133.488 95.8463 133.482 97.4988C133.482 98.6162 133.593 99.549 133.815 100.297C134.042 101.041 134.362 101.599 134.774 101.974C135.186 102.343 135.668 102.528 136.222 102.528ZM149.555 90.0174C150.303 90.0177 151.023 90.1433 151.714 90.3945C152.41 90.6456 153.03 91.0459 153.575 91.5953C154.124 92.1447 154.557 92.8739 154.874 93.7831C155.195 94.6876 155.358 95.7979 155.363 97.1142C155.362 98.35 155.222 99.4532 154.943 100.424C154.668 101.39 154.272 102.211 153.756 102.888C153.24 103.565 152.617 104.081 151.888 104.436C151.158 104.786 150.344 104.961 149.444 104.961C148.474 104.96 147.617 104.773 146.874 104.399C146.13 104.02 145.531 103.506 145.077 102.857C144.627 102.204 144.355 101.47 144.261 100.655L147.294 100.656C147.412 101.186 147.66 101.598 148.039 101.892C148.418 102.181 148.886 102.326 149.445 102.326C150.392 102.326 151.112 101.914 151.605 101.09C152.097 100.262 152.346 99.1281 152.351 97.6887L152.252 97.6886C152.034 98.1147 151.74 98.4816 151.371 98.7893C151.001 99.0922 150.578 99.3264 150.099 99.492C149.626 99.6576 149.121 99.7403 148.586 99.7402C147.729 99.74 146.965 99.5385 146.293 99.1359C145.62 98.7332 145.09 98.1791 144.702 97.4735C144.314 96.7679 144.12 95.9629 144.12 95.0586C144.116 94.0832 144.341 93.2144 144.796 92.4522C145.251 91.69 145.885 91.0936 146.7 90.663C147.519 90.2276 148.471 90.0124 149.555 90.0174ZM149.576 92.4322C149.097 92.4321 148.671 92.5456 148.297 92.7728C147.928 93 147.634 93.3053 147.416 93.6887C147.203 94.0722 147.099 94.5007 147.103 94.9742C147.103 95.4524 147.207 95.8833 147.416 96.2669C147.629 96.6457 147.917 96.9488 148.282 97.1762C148.651 97.3988 149.072 97.5102 149.546 97.5103C149.901 97.5104 150.23 97.4442 150.533 97.3118C150.836 97.1793 151.099 96.997 151.322 96.7651C151.549 96.5284 151.727 96.2562 151.855 95.9485C151.982 95.6408 152.046 95.3141 152.047 94.9684C152.042 94.5091 151.933 94.0877 151.72 93.7041C151.507 93.3205 151.214 93.0127 150.84 92.7806C150.466 92.5485 150.044 92.4324 149.576 92.4322ZM157.491 104.764L157.492 102.548L162.671 97.7554C163.111 97.3294 163.481 96.946 163.779 96.6052C164.082 96.2644 164.312 95.9306 164.468 95.604C164.625 95.2726 164.703 94.9151 164.703 94.5316C164.703 94.1054 164.606 93.7385 164.412 93.4306C164.218 93.1181 163.953 92.8789 163.617 92.7131C163.281 92.5425 162.9 92.4572 162.473 92.4571C162.028 92.457 161.64 92.5468 161.309 92.7267C160.977 92.9065 160.721 93.1645 160.541 93.5006C160.361 93.8367 160.271 94.2368 160.271 94.7008L157.352 94.7C157.352 93.7483 157.568 92.9221 157.999 92.2215C158.43 91.5208 159.034 90.9789 159.811 90.5956C160.587 90.2123 161.482 90.0207 162.495 90.021C163.537 90.0213 164.444 90.2062 165.215 90.5757C165.992 90.9405 166.595 91.4473 167.026 92.0961C167.457 92.7449 167.672 93.4884 167.672 94.3264C167.672 94.8757 167.563 95.4178 167.345 95.9528C167.131 96.4877 166.75 97.0819 166.201 97.7351C165.651 98.3836 164.877 99.1623 163.878 100.071L161.753 102.151L161.753 102.251L167.861 102.253L167.861 104.767L157.491 104.764Z" fill="white"/>
<path d="M149.047 126.125L149.047 127.12L144.93 127.118L144.93 126.124L149.047 126.125ZM146.161 133.761L146.164 125.071C146.164 124.633 146.267 124.268 146.472 123.977C146.678 123.685 146.945 123.467 147.273 123.321C147.601 123.175 147.947 123.102 148.312 123.102C148.6 123.102 148.836 123.126 149.018 123.172C149.2 123.219 149.336 123.262 149.425 123.302L149.087 124.316C149.027 124.296 148.945 124.271 148.839 124.241C148.736 124.211 148.6 124.196 148.431 124.196C148.043 124.196 147.763 124.294 147.591 124.489C147.422 124.685 147.337 124.971 147.337 125.349L147.334 133.761L146.161 133.761ZM150.189 133.762L150.191 126.126L151.325 126.126L151.324 127.279L151.404 127.279C151.543 126.902 151.795 126.595 152.16 126.36C152.525 126.125 152.936 126.007 153.393 126.007C153.479 126.007 153.587 126.009 153.716 126.012C153.845 126.016 153.943 126.021 154.009 126.027L154.009 127.22C153.969 127.21 153.878 127.196 153.736 127.176C153.596 127.152 153.449 127.141 153.293 127.141C152.922 127.141 152.591 127.218 152.299 127.374C152.01 127.526 151.782 127.738 151.613 128.01C151.447 128.279 151.364 128.585 151.364 128.93L151.362 133.762L150.189 133.762ZM157.768 133.923C157.078 133.923 156.474 133.759 155.953 133.43C155.436 133.102 155.032 132.643 154.741 132.053C154.452 131.463 154.309 130.774 154.309 129.985C154.309 129.189 154.453 128.495 154.742 127.902C155.034 127.309 155.438 126.848 155.955 126.52C156.476 126.192 157.081 126.028 157.77 126.028C158.459 126.028 159.063 126.193 159.58 126.521C160.1 126.849 160.504 127.31 160.792 127.903C161.084 128.497 161.229 129.191 161.229 129.987C161.229 130.775 161.083 131.465 160.791 132.055C160.503 132.645 160.098 133.103 159.578 133.431C159.061 133.759 158.457 133.923 157.768 133.923ZM157.768 132.869C158.292 132.869 158.723 132.735 159.061 132.467C159.399 132.198 159.649 131.846 159.812 131.408C159.974 130.971 160.056 130.497 160.056 129.986C160.056 129.476 159.975 129 159.813 128.559C159.65 128.118 159.4 127.762 159.062 127.49C158.724 127.218 158.293 127.082 157.77 127.082C157.246 127.082 156.815 127.218 156.477 127.49C156.139 127.761 155.889 128.117 155.726 128.558C155.563 128.999 155.482 129.475 155.482 129.985C155.482 130.495 155.563 130.969 155.725 131.407C155.888 131.844 156.138 132.198 156.476 132.466C156.814 132.735 157.244 132.869 157.768 132.869ZM162.519 133.765L162.521 126.129L163.655 126.129L163.654 127.322L163.754 127.323C163.913 126.915 164.17 126.598 164.525 126.373C164.879 126.145 165.305 126.03 165.803 126.03C166.306 126.031 166.726 126.145 167.06 126.374C167.398 126.599 167.662 126.916 167.85 127.324L167.93 127.324C168.126 126.929 168.419 126.616 168.81 126.384C169.201 126.149 169.67 126.032 170.217 126.032C170.9 126.032 171.458 126.246 171.893 126.673C172.327 127.098 172.544 127.759 172.543 128.657L172.542 133.768L171.369 133.768L171.37 128.657C171.37 128.094 171.216 127.691 170.908 127.449C170.6 127.207 170.237 127.086 169.819 127.086C169.282 127.085 168.866 127.248 168.571 127.572C168.276 127.894 168.129 128.301 168.128 128.795L168.127 133.767L166.934 133.767L166.935 128.536C166.935 128.102 166.795 127.753 166.513 127.487C166.231 127.219 165.869 127.084 165.424 127.084C165.119 127.084 164.834 127.165 164.569 127.328C164.307 127.49 164.095 127.715 163.933 128.004C163.774 128.289 163.694 128.618 163.694 128.993L163.692 133.766L162.519 133.765ZM178.801 123.588L178.798 133.77L177.625 133.77L177.627 123.588L178.801 123.588ZM182.694 133.95C182.21 133.95 181.771 133.859 181.377 133.676C180.982 133.49 180.669 133.223 180.437 132.875C180.205 132.524 180.089 132.1 180.09 131.603C180.09 131.165 180.176 130.81 180.348 130.539C180.521 130.264 180.751 130.048 181.04 129.893C181.328 129.737 181.646 129.621 181.994 129.545C182.346 129.465 182.699 129.403 183.053 129.356C183.517 129.297 183.893 129.252 184.182 129.222C184.473 129.189 184.686 129.135 184.818 129.058C184.954 128.982 185.022 128.85 185.022 128.661L185.022 128.621C185.022 128.13 184.888 127.749 184.62 127.477C184.355 127.206 183.952 127.07 183.412 127.069C182.852 127.069 182.412 127.192 182.094 127.437C181.776 127.682 181.552 127.944 181.423 128.222L180.309 127.824C180.508 127.36 180.774 126.999 181.105 126.741C181.44 126.479 181.805 126.297 182.199 126.194C182.597 126.088 182.988 126.035 183.372 126.035C183.618 126.035 183.899 126.065 184.217 126.125C184.539 126.181 184.849 126.299 185.147 126.478C185.449 126.657 185.699 126.928 185.898 127.289C186.096 127.65 186.196 128.134 186.195 128.741L186.194 133.772L185.021 133.772L185.021 132.737L184.961 132.737C184.882 132.903 184.749 133.08 184.564 133.269C184.378 133.458 184.131 133.619 183.823 133.751C183.514 133.884 183.138 133.95 182.694 133.95ZM182.873 132.896C183.337 132.896 183.728 132.805 184.047 132.623C184.368 132.441 184.61 132.205 184.773 131.917C184.938 131.629 185.021 131.326 185.022 131.007L185.022 129.934C184.972 129.993 184.863 130.048 184.694 130.097C184.528 130.144 184.336 130.185 184.117 130.222C183.901 130.255 183.691 130.284 183.485 130.311C183.283 130.334 183.119 130.354 182.993 130.37C182.688 130.41 182.403 130.475 182.138 130.564C181.876 130.65 181.664 130.781 181.502 130.957C181.343 131.129 181.263 131.364 181.263 131.663C181.263 132.07 181.413 132.379 181.715 132.587C182.02 132.793 182.406 132.896 182.873 132.896ZM193.246 127.848L192.192 128.146C192.126 127.97 192.028 127.799 191.899 127.634C191.773 127.464 191.601 127.325 191.382 127.216C191.163 127.106 190.883 127.052 190.542 127.052C190.075 127.051 189.685 127.159 189.374 127.374C189.065 127.586 188.911 127.856 188.911 128.185C188.911 128.476 189.017 128.707 189.229 128.876C189.441 129.045 189.772 129.186 190.223 129.299L191.357 129.577C192.039 129.743 192.548 129.997 192.883 130.338C193.217 130.677 193.385 131.112 193.384 131.646C193.384 132.084 193.258 132.475 193.006 132.819C192.758 133.164 192.41 133.436 191.962 133.634C191.515 133.833 190.994 133.932 190.401 133.932C189.622 133.932 188.977 133.763 188.467 133.425C187.957 133.086 187.634 132.592 187.498 131.943L188.612 131.665C188.718 132.076 188.918 132.384 189.213 132.589C189.511 132.795 189.901 132.898 190.381 132.898C190.928 132.898 191.362 132.782 191.684 132.55C192.009 132.315 192.171 132.033 192.171 131.705C192.171 131.44 192.079 131.218 191.893 131.039C191.708 130.857 191.423 130.721 191.038 130.631L189.765 130.333C189.066 130.167 188.553 129.91 188.225 129.562C187.9 129.21 187.738 128.771 187.738 128.244C187.738 127.813 187.859 127.432 188.101 127.101C188.346 126.769 188.679 126.509 189.1 126.32C189.525 126.131 190.005 126.037 190.542 126.037C191.298 126.038 191.891 126.203 192.322 126.535C192.756 126.867 193.064 127.304 193.246 127.848ZM197.973 126.139L197.973 127.133L194.015 127.132L194.016 126.138L197.973 126.139ZM195.17 124.308L196.343 124.309L196.341 131.587C196.341 131.919 196.389 132.167 196.485 132.333C196.584 132.495 196.71 132.605 196.863 132.661C197.018 132.714 197.182 132.741 197.355 132.741C197.484 132.741 197.59 132.734 197.673 132.721C197.756 132.705 197.822 132.691 197.872 132.681L198.11 133.735C198.031 133.765 197.92 133.795 197.777 133.825C197.635 133.858 197.454 133.874 197.235 133.874C196.904 133.874 196.579 133.803 196.261 133.66C195.946 133.518 195.684 133.301 195.476 133.009C195.27 132.717 195.167 132.349 195.168 131.905L195.17 124.308ZM203.428 136.64C203.229 136.64 203.052 136.624 202.896 136.59C202.741 136.561 202.633 136.531 202.573 136.501L202.872 135.467C203.157 135.54 203.409 135.566 203.628 135.547C203.846 135.527 204.04 135.429 204.209 135.253C204.382 135.081 204.539 134.801 204.682 134.413L204.901 133.817L202.079 126.14L203.352 126.14L205.458 132.226L205.538 132.226L207.647 126.141L208.92 126.142L205.676 134.891C205.53 135.285 205.349 135.612 205.134 135.87C204.918 136.132 204.668 136.326 204.383 136.452C204.101 136.578 203.783 136.64 203.428 136.64ZM212.895 133.938C212.159 133.938 211.524 133.776 210.991 133.451C210.46 133.122 210.051 132.665 209.763 132.078C209.478 131.488 209.336 130.802 209.336 130.02C209.336 129.238 209.479 128.548 209.764 127.952C210.053 127.352 210.454 126.885 210.968 126.55C211.485 126.212 212.088 126.043 212.777 126.043C213.175 126.044 213.568 126.11 213.956 126.243C214.343 126.375 214.696 126.591 215.014 126.889C215.333 127.184 215.586 127.575 215.775 128.063C215.964 128.55 216.058 129.15 216.058 129.863L216.058 130.36L210.171 130.358L210.171 129.344L214.865 129.345C214.865 128.914 214.779 128.53 214.606 128.192C214.438 127.854 214.196 127.587 213.881 127.391C213.569 127.195 213.201 127.098 212.777 127.097C212.31 127.097 211.905 127.213 211.564 127.445C211.226 127.674 210.966 127.972 210.783 128.34C210.601 128.708 210.51 129.102 210.509 129.523L210.509 130.199C210.509 130.776 210.608 131.265 210.807 131.666C211.009 132.064 211.289 132.367 211.647 132.576C212.005 132.781 212.421 132.884 212.895 132.884C213.203 132.884 213.482 132.841 213.73 132.755C213.982 132.666 214.199 132.533 214.382 132.358C214.564 132.179 214.705 131.957 214.804 131.692L215.938 132.01C215.818 132.395 215.618 132.733 215.336 133.024C215.054 133.313 214.706 133.538 214.292 133.7C213.877 133.859 213.412 133.939 212.895 133.938ZM219.589 133.96C219.105 133.96 218.665 133.869 218.271 133.686C217.877 133.501 217.564 133.234 217.332 132.886C217.1 132.534 216.984 132.11 216.984 131.613C216.984 131.175 217.07 130.821 217.243 130.549C217.415 130.274 217.646 130.059 217.934 129.903C218.222 129.747 218.541 129.631 218.889 129.555C219.24 129.476 219.593 129.413 219.948 129.366C220.412 129.307 220.788 129.262 221.076 129.233C221.368 129.199 221.58 129.145 221.713 129.069C221.849 128.992 221.917 128.86 221.917 128.671L221.917 128.631C221.917 128.141 221.783 127.759 221.514 127.488C221.249 127.216 220.847 127.08 220.306 127.08C219.746 127.079 219.307 127.202 218.989 127.447C218.671 127.692 218.447 127.954 218.317 128.232L217.204 127.834C217.403 127.37 217.668 127.009 218 126.751C218.334 126.489 218.699 126.307 219.094 126.204C219.491 126.098 219.882 126.045 220.267 126.046C220.512 126.046 220.794 126.075 221.112 126.135C221.433 126.192 221.743 126.309 222.042 126.488C222.343 126.668 222.593 126.938 222.792 127.299C222.991 127.66 223.09 128.144 223.09 128.751L223.089 133.782L221.915 133.782L221.916 132.748L221.856 132.748C221.776 132.913 221.644 133.091 221.458 133.28C221.272 133.468 221.025 133.629 220.717 133.762C220.409 133.894 220.033 133.96 219.589 133.96ZM219.768 132.906C220.232 132.906 220.623 132.815 220.941 132.633C221.263 132.451 221.505 132.216 221.667 131.927C221.833 131.639 221.916 131.336 221.916 131.018L221.916 129.944C221.867 130.003 221.757 130.058 221.588 130.108C221.422 130.154 221.23 130.195 221.011 130.232C220.796 130.265 220.586 130.295 220.38 130.321C220.178 130.344 220.014 130.364 219.888 130.381C219.583 130.42 219.298 130.485 219.033 130.574C218.771 130.66 218.559 130.791 218.396 130.967C218.237 131.139 218.157 131.374 218.157 131.673C218.157 132.08 218.308 132.389 218.609 132.598C218.914 132.803 219.3 132.906 219.768 132.906ZM224.73 133.783L224.732 126.146L225.866 126.146L225.865 127.3L225.945 127.3C226.084 126.922 226.336 126.616 226.701 126.38C227.066 126.145 227.477 126.028 227.934 126.028C228.02 126.028 228.128 126.029 228.257 126.033C228.386 126.036 228.484 126.041 228.55 126.048L228.55 127.241C228.51 127.231 228.419 127.216 228.277 127.196C228.137 127.173 227.99 127.161 227.834 127.161C227.463 127.161 227.132 127.239 226.84 127.395C226.551 127.547 226.323 127.759 226.154 128.031C225.988 128.299 225.905 128.606 225.905 128.95L225.903 133.783L224.73 133.783Z" fill="#5C616E"/>
<path d="M105.291 131.86L105.292 130.393L109.614 123.569L110.837 123.569L110.837 125.657L110.091 125.657L107.181 130.265L107.181 130.344L113.212 130.346L113.211 131.862L105.291 131.86ZM110.148 133.751L110.149 131.414L110.169 130.758L110.171 123.569L111.911 123.569L111.908 133.751L110.148 133.751ZM115.641 133.861C115.339 133.861 115.08 133.755 114.865 133.543C114.65 133.331 114.544 133.072 114.547 132.767C114.544 132.469 114.65 132.214 114.865 132.002C115.081 131.79 115.34 131.684 115.641 131.684C115.933 131.684 116.186 131.79 116.402 132.002C116.62 132.214 116.731 132.47 116.735 132.768C116.731 132.97 116.678 133.154 116.575 133.32C116.476 133.486 116.343 133.618 116.178 133.717C116.015 133.813 115.836 133.862 115.641 133.861ZM118.573 133.753L118.573 132.421L122.109 128.956C122.447 128.615 122.729 128.312 122.954 128.047C123.18 127.782 123.349 127.525 123.461 127.276C123.574 127.028 123.631 126.763 123.631 126.481C123.631 126.159 123.558 125.884 123.412 125.656C123.266 125.423 123.066 125.244 122.811 125.118C122.556 124.992 122.266 124.929 121.941 124.929C121.606 124.929 121.313 124.999 121.061 125.138C120.809 125.274 120.613 125.467 120.474 125.719C120.338 125.971 120.27 126.271 120.27 126.619L118.515 126.619C118.515 125.972 118.663 125.411 118.958 124.933C119.253 124.456 119.659 124.087 120.176 123.825C120.697 123.563 121.293 123.433 121.966 123.433C122.649 123.433 123.249 123.561 123.766 123.816C124.283 124.071 124.684 124.421 124.968 124.865C125.257 125.31 125.401 125.817 125.401 126.387C125.4 126.768 125.327 127.143 125.182 127.51C125.036 127.878 124.779 128.286 124.411 128.733C124.046 129.181 123.534 129.722 122.874 130.358L121.118 132.143L121.118 132.212L125.553 132.214L125.553 133.755L118.573 133.753ZM132.712 131.848L132.712 131.311C132.713 130.916 132.796 130.553 132.961 130.222C133.13 129.891 133.376 129.624 133.697 129.422C134.019 129.22 134.408 129.119 134.866 129.119C135.336 129.119 135.731 129.22 136.049 129.422C136.367 129.621 136.607 129.887 136.77 130.218C136.935 130.55 137.018 130.914 137.018 131.312L137.018 131.849C137.018 132.243 136.935 132.606 136.769 132.938C136.603 133.269 136.359 133.536 136.038 133.738C135.72 133.94 135.328 134.041 134.864 134.041C134.4 134.041 134.008 133.939 133.686 133.737C133.365 133.535 133.121 133.268 132.956 132.937C132.793 132.605 132.712 132.242 132.712 131.848ZM134.01 131.311L134.01 131.848C134.01 132.11 134.073 132.35 134.199 132.569C134.324 132.788 134.547 132.897 134.865 132.897C135.186 132.897 135.407 132.79 135.526 132.574C135.649 132.356 135.71 132.114 135.71 131.849L135.71 131.312C135.71 131.046 135.652 130.804 135.537 130.586C135.421 130.364 135.197 130.253 134.865 130.252C134.554 130.252 134.333 130.363 134.204 130.585C134.075 130.804 134.01 131.046 134.01 131.311ZM127.538 126.02L127.539 125.483C127.539 125.085 127.623 124.72 127.792 124.389C127.962 124.058 128.207 123.792 128.528 123.594C128.85 123.392 129.24 123.291 129.697 123.291C130.164 123.291 130.557 123.392 130.875 123.594C131.197 123.793 131.438 124.059 131.601 124.39C131.763 124.721 131.844 125.086 131.844 125.484L131.844 126.021C131.844 126.418 131.761 126.783 131.595 127.114C131.432 127.443 131.19 127.706 130.869 127.905C130.547 128.103 130.156 128.203 129.696 128.203C129.228 128.203 128.834 128.103 128.512 127.904C128.194 127.705 127.952 127.44 127.787 127.108C127.621 126.777 127.538 126.414 127.538 126.02ZM128.846 125.483L128.846 126.02C128.846 126.285 128.907 126.527 129.03 126.746C129.156 126.961 129.378 127.069 129.696 127.069C130.014 127.069 130.233 126.962 130.352 126.746C130.475 126.527 130.536 126.286 130.536 126.02L130.536 125.483C130.537 125.218 130.479 124.976 130.363 124.758C130.247 124.535 130.025 124.424 129.697 124.424C129.382 124.424 129.161 124.535 129.035 124.757C128.909 124.979 128.846 125.221 128.846 125.483ZM128.103 133.756L135.106 123.576L136.349 123.576L129.346 133.756L128.103 133.756Z" fill="#60D39C"/>
<g clip-path="url(#clip0_256_1112)">
<path d="M90.8217 127.995L94.5728 124.246L98.3217 127.997" stroke="#60D39C" stroke-width="2" stroke-linecap="round" stroke-linejoin="round"/>
<path d="M94.5703 133.246L94.5728 124.246" stroke="#60D39C" stroke-width="2" stroke-linecap="round"/>
</g>
<path d="M95.244 68.364C95.1978 67.9298 95.0023 67.5916 94.6577 67.3496C94.3164 67.1075 93.8723 66.9864 93.3254 66.9863C92.9409 66.9862 92.6111 67.0441 92.336 67.16C92.0609 67.276 91.8504 67.4333 91.7045 67.6322C91.5586 67.831 91.4839 68.058 91.4806 68.3132C91.4805 68.5253 91.5285 68.7093 91.6246 68.8651C91.724 69.0209 91.8582 69.1535 92.0272 69.2629C92.1962 69.369 92.3834 69.4586 92.5889 69.5315C92.7944 69.6045 93.0015 69.6659 93.2103 69.7157L94.1648 69.9546C94.5492 70.0442 94.9187 70.1652 95.2733 70.3178C95.6312 70.4704 95.951 70.6627 96.2327 70.8948C96.5177 71.1269 96.743 71.407 96.9086 71.7352C97.0742 72.0633 97.157 72.4478 97.1568 72.8886C97.1567 73.4852 97.0041 74.0105 96.699 74.4645C96.394 74.9152 95.9531 75.268 95.3763 75.5231C94.8028 75.7748 94.1084 75.9006 93.2931 75.9004C92.501 75.9001 91.8132 75.7773 91.23 75.5319C90.65 75.2865 90.1961 74.9284 89.8681 74.4576C89.5434 73.9869 89.3679 73.4135 89.3415 72.7373L91.1562 72.7378C91.1826 73.0925 91.2919 73.3875 91.4841 73.6229C91.6762 73.8582 91.9264 74.034 92.2346 74.1501C92.5461 74.2661 92.8941 74.3242 93.2786 74.3244C93.6797 74.3245 94.031 74.2649 94.3326 74.1457C94.6376 74.0231 94.8763 73.8542 95.0487 73.6388C95.2211 73.4201 95.309 73.1649 95.3124 72.8732C95.3092 72.6081 95.2313 72.3893 95.0789 72.2169C94.9265 72.0412 94.7128 71.8953 94.4377 71.7792C94.1659 71.6598 93.8478 71.5537 93.4832 71.4608L92.3249 71.1622C91.4865 70.9465 90.8237 70.6198 90.3366 70.1822C89.8528 69.7413 89.611 69.1562 89.6112 68.427C89.6114 67.8271 89.7739 67.3018 90.0989 66.8512C90.4271 66.4005 90.873 66.051 91.4365 65.8025C92 65.5508 92.6381 65.425 93.3507 65.4252C94.0732 65.4254 94.7062 65.5515 95.2497 65.8036C95.7965 66.0523 96.2256 66.3988 96.5371 66.843C96.8485 67.2839 97.0091 67.7911 97.0189 68.3644L95.244 68.364ZM100.918 75.9025C100.434 75.9023 99.9985 75.816 99.6108 75.6436C99.2264 75.4678 98.9215 75.2092 98.6963 74.8678C98.4743 74.5263 98.3634 74.1054 98.3635 73.6049C98.3636 73.174 98.4433 72.8177 98.6024 72.5361C98.7616 72.2544 98.9788 72.0291 99.2539 71.8601C99.529 71.6911 99.839 71.5636 100.184 71.4775C100.532 71.3881 100.891 71.3236 101.263 71.2839C101.71 71.2377 102.073 71.1963 102.351 71.16C102.63 71.1203 102.832 71.0607 102.958 70.9811C103.087 70.8983 103.152 70.7707 103.152 70.5984L103.152 70.5686C103.152 70.194 103.041 69.904 102.819 69.6984C102.597 69.4929 102.277 69.39 101.86 69.3899C101.419 69.3898 101.069 69.4858 100.811 69.678C100.555 69.8702 100.383 70.0971 100.293 70.359L98.613 70.1199C98.7457 69.6559 98.9646 69.2682 99.2696 68.9567C99.5746 68.6419 99.9476 68.4067 100.388 68.251C100.829 68.0921 101.317 68.0127 101.85 68.0128C102.218 68.0129 102.584 68.0561 102.949 68.1424C103.313 68.2286 103.646 68.3712 103.948 68.5702C104.25 68.7658 104.491 69.0327 104.674 69.3708C104.859 69.7089 104.952 70.1316 104.952 70.6387L104.95 75.7495L103.22 75.749L103.22 74.7L103.161 74.7C103.051 74.912 102.897 75.1109 102.698 75.2964C102.503 75.4787 102.256 75.6261 101.957 75.7387C101.662 75.848 101.316 75.9026 100.918 75.9025ZM101.386 74.5801C101.747 74.5802 102.06 74.5091 102.326 74.3666C102.591 74.2209 102.795 74.0287 102.937 73.7901C103.083 73.5515 103.156 73.2913 103.156 73.0096L103.157 72.1098C103.1 72.1561 103.004 72.1992 102.868 72.2389C102.736 72.2787 102.586 72.3134 102.421 72.3432C102.255 72.373 102.091 72.3995 101.928 72.4226C101.766 72.4458 101.625 72.4656 101.506 72.4822C101.237 72.5185 100.997 72.5781 100.785 72.6609C100.573 72.7437 100.405 72.8597 100.283 73.0088C100.16 73.1546 100.099 73.3435 100.099 73.5755C100.099 73.907 100.219 74.1572 100.461 74.3263C100.703 74.4954 101.011 74.58 101.386 74.5801ZM108.562 65.5686L108.56 75.7504L106.76 75.75L106.763 65.5681L108.562 65.5686ZM113.791 75.901C113.025 75.9008 112.364 75.7416 111.807 75.4232C111.254 75.1016 110.828 74.6474 110.53 74.0607C110.232 73.4706 110.083 72.7762 110.083 71.9774C110.083 71.1919 110.233 70.5026 110.531 69.9094C110.833 69.3129 111.254 68.849 111.794 68.5177C112.335 68.1831 112.97 68.0159 113.699 68.0161C114.169 68.0162 114.613 68.0926 115.031 68.2451C115.452 68.3944 115.823 68.6265 116.144 68.9415C116.469 69.2564 116.724 69.6575 116.91 70.1448C117.095 70.6288 117.188 71.2055 117.188 71.875L117.188 72.4268L110.928 72.4251L110.929 71.212L115.463 71.2133C115.459 70.8686 115.385 70.562 115.239 70.2935C115.093 70.0217 114.89 69.8078 114.628 69.652C114.369 69.4961 114.068 69.4182 113.723 69.4181C113.355 69.418 113.032 69.5074 112.754 69.6863C112.475 69.8619 112.258 70.0938 112.102 70.3821C111.95 70.6671 111.872 70.9803 111.868 71.3217L111.868 72.3806C111.868 72.8248 111.949 73.2059 112.111 73.5242C112.274 73.8391 112.501 74.0811 112.792 74.2502C113.084 74.416 113.425 74.4989 113.816 74.4991C114.078 74.4991 114.315 74.4627 114.527 74.3899C114.739 74.3137 114.923 74.2027 115.079 74.0569C115.235 73.9111 115.353 73.7305 115.432 73.5151L117.113 73.7045C117.006 74.1486 116.804 74.5363 116.506 74.8677C116.211 75.1957 115.833 75.4508 115.372 75.633C114.911 75.8119 114.384 75.9012 113.791 75.901ZM124.746 70.137L123.106 70.3155C123.059 70.1498 122.978 69.994 122.862 69.8481C122.749 69.7023 122.597 69.5846 122.405 69.495C122.213 69.4055 121.977 69.3607 121.699 69.3606C121.324 69.3605 121.009 69.4416 120.754 69.604C120.502 69.7663 120.378 69.9767 120.381 70.2352C120.378 70.4573 120.459 70.638 120.625 70.7772C120.794 70.9165 121.072 71.0309 121.46 71.1205L122.762 71.3993C123.485 71.5552 124.022 71.8023 124.373 72.1405C124.727 72.4786 124.906 72.9212 124.909 73.468C124.906 73.9486 124.765 74.3728 124.486 74.7406C124.211 75.1051 123.828 75.3901 123.338 75.5954C122.847 75.8008 122.284 75.9034 121.647 75.9032C120.713 75.903 119.96 75.7072 119.39 75.3159C118.82 74.9214 118.481 74.3727 118.372 73.6701L120.127 73.5015C120.206 73.8462 120.375 74.1065 120.634 74.2822C120.892 74.4579 121.228 74.5458 121.643 74.546C122.07 74.5461 122.413 74.4583 122.672 74.2828C122.934 74.1072 123.065 73.8901 123.065 73.6316C123.065 73.4128 122.98 73.2322 122.811 73.0896C122.646 72.947 122.387 72.8376 122.036 72.7613L120.733 72.4875C120.001 72.3348 119.459 72.0778 119.108 71.7164C118.757 71.3517 118.583 70.891 118.586 70.3342C118.583 69.8635 118.711 69.4559 118.97 69.1113C119.231 68.7633 119.594 68.495 120.059 68.3062C120.526 68.1141 121.065 68.0181 121.674 68.0183C122.569 68.0185 123.273 68.2093 123.787 68.5906C124.304 68.9719 124.624 69.4874 124.746 70.137Z" fill="#5C616F"/>
<path d="M315.687 106.626L315.692 88.444L316.857 88.4443L316.852 106.626L315.687 106.626ZM318.78 94.4462C318.723 93.8733 318.48 93.4282 318.049 93.1108C317.618 92.7935 317.033 92.6347 316.295 92.6345C315.793 92.6343 315.369 92.7053 315.023 92.8472C314.678 92.9844 314.413 93.1761 314.228 93.4223C314.048 93.6684 313.958 93.9478 313.958 94.2603C313.948 94.5207 314.003 94.748 314.121 94.9421C314.244 95.1363 314.412 95.3044 314.625 95.4465C314.838 95.5839 315.084 95.7047 315.364 95.8089C315.643 95.9085 315.941 95.9938 316.258 96.0649L317.565 96.3777C318.2 96.52 318.782 96.7095 319.312 96.9464C319.842 97.1833 320.302 97.4746 320.69 97.8204C321.078 98.1661 321.378 98.5734 321.591 99.0422C321.809 99.511 321.92 100.048 321.925 100.655C321.92 101.545 321.692 102.316 321.242 102.97C320.797 103.618 320.153 104.122 319.31 104.482C318.472 104.837 317.461 105.014 316.277 105.014C315.103 105.013 314.08 104.833 313.209 104.473C312.343 104.113 311.666 103.58 311.178 102.875C310.696 102.164 310.443 101.286 310.419 100.239L313.395 100.24C313.428 100.728 313.568 101.135 313.814 101.462C314.065 101.784 314.398 102.028 314.815 102.194C315.236 102.355 315.712 102.435 316.242 102.436C316.763 102.436 317.215 102.36 317.599 102.209C317.987 102.057 318.288 101.847 318.501 101.577C318.714 101.307 318.821 100.997 318.821 100.647C318.821 100.32 318.724 100.045 318.53 99.8226C318.341 99.6 318.061 99.4105 317.692 99.2542C317.328 99.0978 316.88 98.9557 316.35 98.8277L314.766 98.4295C313.54 98.1309 312.572 97.6642 311.862 97.0296C311.152 96.3949 310.799 95.5402 310.804 94.4654C310.8 93.5847 311.034 92.8153 311.508 92.1573C311.986 91.4993 312.642 90.9857 313.476 90.6167C314.309 90.2476 315.256 90.0632 316.317 90.0635C317.396 90.0638 318.339 90.2487 319.143 90.6182C319.953 90.9878 320.583 91.5017 321.032 92.1599C321.482 92.8182 321.714 93.5806 321.728 94.4471L318.78 94.4462ZM323.907 104.81L323.907 102.594L329.086 97.8014C329.527 97.3754 329.896 96.9919 330.195 96.6511C330.498 96.3103 330.727 95.9765 330.884 95.6499C331.04 95.3185 331.118 94.961 331.118 94.5775C331.119 94.1514 331.022 93.7844 330.828 93.4766C330.634 93.164 330.368 92.9248 330.032 92.759C329.696 92.5885 329.315 92.5031 328.889 92.503C328.444 92.5029 328.056 92.5927 327.724 92.7726C327.393 92.9524 327.137 93.2104 326.957 93.5465C326.777 93.8826 326.687 94.2827 326.687 94.7467L323.768 94.7459C323.768 93.7942 323.984 92.968 324.415 92.2674C324.846 91.5668 325.449 91.0248 326.226 90.6415C327.003 90.2582 327.898 90.0667 328.911 90.0669C329.953 90.0672 330.859 90.2521 331.631 90.6217C332.407 90.9865 333.011 91.4933 333.442 92.1421C333.872 92.7909 334.088 93.5343 334.087 94.3724C334.087 94.9216 333.978 95.4637 333.76 95.9987C333.547 96.5337 333.166 97.1278 332.616 97.781C332.067 98.4296 331.292 99.2082 330.293 100.117L328.169 102.197L328.169 102.297L334.277 102.299L334.276 104.813L323.907 104.81ZM341.771 90.0705C342.519 90.0707 343.239 90.1964 343.93 90.4475C344.626 90.6986 345.246 91.0989 345.791 91.6483C346.34 92.1977 346.773 92.927 347.09 93.8362C347.412 94.7406 347.575 95.851 347.579 97.1673C347.579 98.4031 347.439 99.5062 347.159 100.477C346.884 101.443 346.489 102.264 345.972 102.941C345.456 103.618 344.833 104.134 344.104 104.489C343.375 104.839 342.56 105.014 341.661 105.014C340.69 105.013 339.833 104.826 339.09 104.452C338.347 104.073 337.748 103.559 337.293 102.91C336.844 102.257 336.572 101.523 336.477 100.708L339.51 100.709C339.628 101.239 339.877 101.651 340.255 101.945C340.634 102.234 341.103 102.379 341.661 102.379C342.608 102.379 343.328 101.967 343.821 101.144C344.314 100.315 344.562 99.1811 344.568 97.7417L344.468 97.7417C344.25 98.1678 343.957 98.5346 343.587 98.8423C343.218 99.1452 342.794 99.3795 342.316 99.5451C341.842 99.7107 341.338 99.7934 340.803 99.7932C339.946 99.793 339.181 99.5916 338.509 99.1889C337.837 98.7863 337.307 98.2321 336.918 97.5265C336.53 96.8209 336.336 96.016 336.337 95.1116C336.332 94.1362 336.557 93.2674 337.012 92.5053C337.467 91.7431 338.102 91.1467 338.916 90.716C339.735 90.2806 340.687 90.0655 341.771 90.0705ZM341.792 92.4853C341.314 92.4851 340.888 92.5987 340.514 92.8258C340.144 93.053 339.85 93.3583 339.633 93.7418C339.419 94.1252 339.315 94.5537 339.32 95.0272C339.32 95.5054 339.424 95.9363 339.632 96.3199C339.845 96.6988 340.134 97.0019 340.498 97.2292C340.867 97.4519 341.289 97.5633 341.762 97.5634C342.117 97.5635 342.446 97.4973 342.749 97.3648C343.053 97.2323 343.315 97.0501 343.538 96.8181C343.765 96.5815 343.943 96.3093 344.071 96.0015C344.199 95.6938 344.263 95.3671 344.263 95.0215C344.258 94.5622 344.15 94.1408 343.937 93.7572C343.724 93.3736 343.43 93.0657 343.056 92.8336C342.682 92.6015 342.261 92.4854 341.792 92.4853ZM352.439 102.829L352.361 103.61C352.299 104.235 352.18 104.858 352.005 105.478C351.834 106.103 351.654 106.669 351.465 107.175C351.28 107.682 351.131 108.08 351.017 108.369L349.057 108.368C349.128 108.089 349.225 107.698 349.348 107.196C349.472 106.699 349.588 106.14 349.697 105.52C349.806 104.9 349.875 104.268 349.903 103.624L349.939 102.828L352.439 102.829ZM359.692 90.2743L359.688 104.82L356.613 104.819L356.616 93.1925L356.531 93.1925L353.199 95.2796L353.2 92.5523L356.801 90.2735L359.692 90.2743ZM363.145 104.821L363.146 102.605L368.325 97.8122C368.765 97.3862 369.135 97.0028 369.433 96.6619C369.736 96.3211 369.966 95.9874 370.122 95.6607C370.278 95.3293 370.357 94.9719 370.357 94.5883C370.357 94.1622 370.26 93.7952 370.066 93.4874C369.872 93.1748 369.607 92.9357 369.271 92.7698C368.934 92.5993 368.553 92.514 368.127 92.5139C367.682 92.5137 367.294 92.6036 366.962 92.7834C366.631 92.9632 366.375 93.2212 366.195 93.5574C366.015 93.8935 365.925 94.2935 365.925 94.7576L363.006 94.7568C363.006 93.8051 363.222 92.9789 363.653 92.2782C364.084 91.5776 364.688 91.0356 365.464 90.6523C366.241 90.269 367.136 90.0775 368.149 90.0778C369.191 90.0781 370.098 90.263 370.869 90.6325C371.646 90.9973 372.249 91.5041 372.68 92.1529C373.111 92.8017 373.326 93.5451 373.326 94.3832C373.325 94.9324 373.216 95.4745 372.998 96.0095C372.785 96.5445 372.404 97.1386 371.854 97.7919C371.305 98.4404 370.531 99.2191 369.531 100.128L367.407 102.208L367.407 102.308L373.515 102.309L373.514 104.824L363.145 104.821ZM381.169 105.025C380.075 105.024 379.102 104.846 378.25 104.491C377.403 104.131 376.737 103.641 376.255 103.02C375.772 102.4 375.531 101.697 375.531 100.911C375.531 100.305 375.668 99.7484 375.943 99.2419C376.223 98.7306 376.602 98.3069 377.08 97.9709C377.558 97.6301 378.093 97.4124 378.685 97.3179L378.685 97.2185C377.909 97.062 377.279 96.6854 376.796 96.0887C376.314 95.4872 376.072 94.7888 376.072 93.9933C376.073 93.2405 376.293 92.5706 376.734 91.9836C377.174 91.3918 377.778 90.928 378.545 90.592C379.317 90.2513 380.193 90.0811 381.173 90.0814C382.153 90.0816 383.027 90.2523 383.794 90.5935C384.565 90.9346 385.171 91.4011 385.611 91.9931C386.052 92.5804 386.274 93.248 386.278 93.9961C386.273 94.7963 386.027 95.4946 385.539 96.0911C385.051 96.6876 384.426 97.0638 383.664 97.2198L383.664 97.3193C384.246 97.4141 384.774 97.6321 385.248 97.9731C385.726 98.3094 386.104 98.7333 386.384 99.2447C386.667 99.7515 386.812 100.308 386.816 100.914C386.811 101.7 386.567 102.403 386.084 103.023C385.601 103.643 384.933 104.133 384.081 104.493C383.233 104.848 382.263 105.025 381.169 105.025ZM381.169 102.766C381.657 102.766 382.083 102.679 382.448 102.504C382.813 102.324 383.097 102.078 383.3 101.765C383.509 101.448 383.613 101.083 383.613 100.672C383.613 100.25 383.507 99.8784 383.294 99.5564C383.081 99.2296 382.792 98.9739 382.428 98.7891C382.063 98.5996 381.644 98.5048 381.171 98.5047C380.702 98.5045 380.283 98.5991 379.913 98.7884C379.544 98.973 379.253 99.2286 379.04 99.5552C378.831 99.8771 378.727 100.249 378.727 100.67C378.727 101.082 378.828 101.447 379.032 101.764C379.235 102.077 379.522 102.323 379.891 102.503C380.26 102.678 380.687 102.766 381.169 102.766ZM381.171 96.2675C381.578 96.2676 381.941 96.1848 382.258 96.0192C382.575 95.8535 382.824 95.624 383.004 95.3305C383.184 95.0369 383.274 94.6984 383.274 94.3149C383.274 93.9361 383.184 93.6047 383.004 93.3205C382.825 93.0316 382.578 92.8067 382.266 92.6456C381.954 92.4798 381.589 92.3968 381.172 92.3967C380.76 92.3966 380.396 92.4794 380.079 92.645C379.761 92.8059 379.513 93.0307 379.333 93.3195C379.157 93.6035 379.07 93.935 379.07 94.3137C379.069 94.6973 379.159 95.0358 379.339 95.3294C379.519 95.6231 379.768 95.8528 380.085 96.0186C380.402 96.1844 380.764 96.2673 381.171 96.2675Z" fill="white"/>
<path d="M370.091 126.186L370.091 127.181L365.974 127.179L365.974 126.185L370.091 126.186ZM367.205 133.822L367.208 125.132C367.208 124.694 367.311 124.329 367.516 124.038C367.722 123.746 367.989 123.528 368.317 123.382C368.645 123.236 368.991 123.163 369.356 123.163C369.644 123.163 369.879 123.187 370.062 123.233C370.244 123.28 370.38 123.323 370.469 123.363L370.131 124.377C370.071 124.357 369.989 124.332 369.882 124.302C369.78 124.272 369.644 124.257 369.475 124.257C369.087 124.257 368.807 124.355 368.635 124.55C368.465 124.746 368.381 125.032 368.381 125.41L368.378 133.822L367.205 133.822ZM371.233 133.823L371.235 126.187L372.369 126.187L372.368 127.34L372.448 127.34C372.587 126.963 372.839 126.656 373.204 126.421C373.568 126.186 373.979 126.068 374.437 126.068C374.523 126.068 374.631 126.07 374.76 126.073C374.889 126.077 374.987 126.082 375.053 126.088L375.053 127.281C375.013 127.271 374.922 127.257 374.78 127.237C374.64 127.213 374.493 127.202 374.337 127.202C373.966 127.202 373.634 127.279 373.343 127.435C373.054 127.587 372.826 127.799 372.656 128.071C372.491 128.34 372.408 128.646 372.408 128.991L372.406 133.823L371.233 133.823ZM378.812 133.984C378.122 133.984 377.518 133.82 376.997 133.491C376.48 133.163 376.076 132.704 375.785 132.114C375.496 131.524 375.352 130.835 375.353 130.046C375.353 129.25 375.497 128.556 375.786 127.963C376.078 127.37 376.482 126.909 376.999 126.581C377.52 126.253 378.125 126.089 378.814 126.089C379.503 126.089 380.107 126.254 380.624 126.582C381.144 126.91 381.548 127.371 381.836 127.964C382.128 128.558 382.273 129.252 382.273 130.048C382.273 130.836 382.127 131.526 381.835 132.116C381.547 132.706 381.142 133.164 380.622 133.492C380.104 133.82 379.501 133.984 378.812 133.984ZM378.812 132.93C379.336 132.93 379.767 132.796 380.105 132.528C380.443 132.259 380.693 131.907 380.856 131.469C381.018 131.032 381.1 130.558 381.1 130.047C381.1 129.537 381.019 129.061 380.857 128.62C380.694 128.18 380.444 127.823 380.106 127.551C379.768 127.279 379.337 127.143 378.814 127.143C378.29 127.143 377.859 127.279 377.521 127.551C377.183 127.822 376.932 128.178 376.77 128.619C376.607 129.06 376.526 129.536 376.526 130.046C376.526 130.556 376.607 131.03 376.769 131.468C376.931 131.906 377.182 132.259 377.52 132.527C377.858 132.796 378.288 132.93 378.812 132.93ZM383.563 133.826L383.565 126.19L384.699 126.19L384.698 127.383L384.798 127.384C384.957 126.976 385.214 126.659 385.569 126.434C385.923 126.206 386.349 126.091 386.846 126.091C387.35 126.092 387.77 126.206 388.104 126.435C388.442 126.66 388.706 126.977 388.894 127.385L388.974 127.385C389.17 126.99 389.463 126.677 389.854 126.445C390.245 126.21 390.714 126.093 391.261 126.093C391.944 126.093 392.502 126.307 392.937 126.734C393.371 127.159 393.587 127.82 393.587 128.718L393.586 133.829L392.413 133.829L392.414 128.718C392.414 128.155 392.26 127.752 391.952 127.51C391.644 127.268 391.281 127.147 390.863 127.147C390.326 127.146 389.91 127.309 389.615 127.633C389.32 127.955 389.173 128.362 389.172 128.856L389.171 133.828L387.978 133.828L387.979 128.597C387.979 128.163 387.839 127.814 387.557 127.548C387.275 127.28 386.912 127.145 386.468 127.145C386.163 127.145 385.878 127.226 385.613 127.389C385.351 127.551 385.139 127.776 384.977 128.065C384.817 128.35 384.738 128.679 384.738 129.054L384.736 133.827L383.563 133.826ZM399.845 123.649L399.842 133.831L398.669 133.831L398.671 123.649L399.845 123.649ZM403.738 134.011C403.254 134.011 402.815 133.92 402.421 133.737C402.026 133.551 401.713 133.285 401.481 132.936C401.249 132.585 401.133 132.161 401.133 131.664C401.134 131.226 401.22 130.871 401.392 130.6C401.565 130.325 401.795 130.109 402.084 129.954C402.372 129.798 402.69 129.682 403.038 129.606C403.39 129.526 403.743 129.464 404.097 129.417C404.561 129.358 404.937 129.313 405.226 129.283C405.517 129.25 405.73 129.196 405.862 129.119C405.998 129.043 406.066 128.911 406.066 128.722L406.066 128.682C406.066 128.191 405.932 127.81 405.664 127.538C405.399 127.267 404.996 127.131 404.456 127.13C403.896 127.13 403.456 127.253 403.138 127.498C402.82 127.743 402.596 128.005 402.467 128.283L401.353 127.885C401.552 127.421 401.818 127.06 402.149 126.802C402.484 126.54 402.848 126.358 403.243 126.255C403.641 126.149 404.032 126.096 404.416 126.096C404.662 126.096 404.943 126.126 405.261 126.186C405.583 126.242 405.893 126.36 406.191 126.539C406.493 126.718 406.743 126.989 406.941 127.35C407.14 127.711 407.24 128.195 407.239 128.802L407.238 133.833L406.065 133.833L406.065 132.798L406.005 132.798C405.926 132.964 405.793 133.141 405.607 133.33C405.422 133.519 405.175 133.68 404.867 133.812C404.558 133.945 404.182 134.011 403.738 134.011ZM403.917 132.957C404.381 132.957 404.772 132.866 405.091 132.684C405.412 132.502 405.654 132.266 405.817 131.978C405.982 131.69 406.065 131.387 406.065 131.068L406.066 129.995C406.016 130.054 405.907 130.109 405.738 130.158C405.572 130.205 405.38 130.246 405.161 130.283C404.945 130.316 404.735 130.345 404.529 130.372C404.327 130.395 404.163 130.415 404.037 130.431C403.732 130.471 403.447 130.536 403.182 130.625C402.92 130.711 402.708 130.842 402.546 131.018C402.386 131.19 402.307 131.425 402.307 131.724C402.307 132.131 402.457 132.44 402.759 132.648C403.064 132.854 403.45 132.957 403.917 132.957ZM414.29 127.909L413.236 128.207C413.17 128.031 413.072 127.86 412.943 127.695C412.817 127.525 412.645 127.386 412.426 127.277C412.207 127.167 411.927 127.113 411.586 127.113C411.119 127.112 410.729 127.22 410.417 127.435C410.109 127.647 409.955 127.917 409.955 128.246C409.955 128.537 410.061 128.768 410.273 128.937C410.485 129.106 410.816 129.247 411.267 129.36L412.401 129.638C413.083 129.804 413.592 130.058 413.927 130.399C414.261 130.738 414.429 131.173 414.428 131.707C414.428 132.145 414.302 132.536 414.05 132.88C413.802 133.225 413.453 133.497 413.006 133.695C412.558 133.894 412.038 133.993 411.445 133.993C410.666 133.993 410.021 133.824 409.511 133.486C409.001 133.147 408.678 132.653 408.542 132.004L409.656 131.726C409.762 132.137 409.962 132.445 410.257 132.65C410.555 132.856 410.945 132.959 411.425 132.959C411.972 132.959 412.406 132.843 412.728 132.611C413.053 132.376 413.215 132.094 413.215 131.766C413.215 131.501 413.123 131.279 412.937 131.1C412.752 130.918 412.467 130.782 412.082 130.692L410.809 130.394C410.11 130.228 409.596 129.971 409.268 129.623C408.944 129.271 408.781 128.832 408.782 128.305C408.782 127.874 408.903 127.493 409.145 127.162C409.39 126.83 409.723 126.57 410.144 126.381C410.569 126.192 411.049 126.098 411.586 126.098C412.342 126.099 412.935 126.264 413.366 126.596C413.8 126.928 414.108 127.365 414.29 127.909ZM419.017 126.2L419.017 127.194L415.059 127.193L415.06 126.199L419.017 126.2ZM416.214 124.369L417.387 124.37L417.385 131.648C417.385 131.98 417.433 132.228 417.529 132.394C417.628 132.556 417.754 132.666 417.907 132.722C418.062 132.775 418.226 132.802 418.399 132.802C418.528 132.802 418.634 132.795 418.717 132.782C418.8 132.766 418.866 132.752 418.916 132.742L419.154 133.796C419.075 133.826 418.964 133.856 418.821 133.886C418.679 133.919 418.498 133.935 418.279 133.935C417.948 133.935 417.623 133.864 417.305 133.721C416.99 133.579 416.728 133.362 416.519 133.07C416.314 132.778 416.211 132.41 416.212 131.966L416.214 124.369ZM424.472 136.701C424.273 136.701 424.096 136.685 423.94 136.651C423.785 136.622 423.677 136.592 423.617 136.562L423.916 135.528C424.201 135.601 424.453 135.627 424.671 135.608C424.89 135.588 425.084 135.49 425.253 135.314C425.426 135.142 425.583 134.862 425.726 134.474L425.945 133.878L423.123 126.201L424.396 126.201L426.502 132.287L426.581 132.287L428.691 126.202L429.964 126.203L426.72 134.952C426.574 135.346 426.393 135.673 426.178 135.931C425.962 136.193 425.712 136.387 425.427 136.513C425.145 136.639 424.827 136.701 424.472 136.701ZM433.939 133.999C433.203 133.999 432.568 133.837 432.035 133.512C431.504 133.183 431.095 132.726 430.807 132.139C430.522 131.549 430.38 130.863 430.38 130.081C430.38 129.299 430.523 128.609 430.808 128.013C431.097 127.413 431.498 126.946 432.012 126.611C432.529 126.273 433.132 126.104 433.821 126.104C434.219 126.105 434.612 126.171 435 126.304C435.387 126.436 435.74 126.652 436.058 126.95C436.377 127.245 436.63 127.636 436.819 128.124C437.008 128.611 437.102 129.211 437.102 129.924L437.102 130.421L431.215 130.419L431.215 129.405L435.909 129.406C435.909 128.975 435.823 128.591 435.65 128.253C435.481 127.915 435.24 127.648 434.925 127.452C434.613 127.256 434.245 127.159 433.821 127.158C433.354 127.158 432.949 127.274 432.608 127.506C432.27 127.735 432.01 128.033 431.827 128.401C431.645 128.769 431.554 129.163 431.553 129.584L431.553 130.26C431.553 130.837 431.652 131.326 431.851 131.727C432.053 132.125 432.333 132.428 432.691 132.637C433.049 132.842 433.465 132.945 433.939 132.945C434.247 132.945 434.526 132.902 434.774 132.816C435.026 132.727 435.243 132.594 435.426 132.419C435.608 132.24 435.749 132.018 435.848 131.753L436.982 132.071C436.862 132.456 436.662 132.794 436.38 133.085C436.098 133.374 435.75 133.599 435.336 133.761C434.921 133.92 434.456 134 433.939 133.999ZM440.632 134.021C440.149 134.021 439.709 133.93 439.315 133.747C438.921 133.562 438.608 133.295 438.376 132.947C438.144 132.595 438.028 132.171 438.028 131.674C438.028 131.236 438.114 130.882 438.287 130.61C438.459 130.335 438.69 130.12 438.978 129.964C439.266 129.808 439.585 129.692 439.933 129.616C440.284 129.537 440.637 129.474 440.992 129.427C441.456 129.368 441.832 129.323 442.12 129.294C442.412 129.26 442.624 129.206 442.757 129.13C442.893 129.053 442.961 128.921 442.961 128.732L442.961 128.692C442.961 128.202 442.827 127.82 442.558 127.549C442.293 127.277 441.891 127.141 441.35 127.141C440.79 127.14 440.351 127.263 440.033 127.508C439.714 127.753 439.491 128.015 439.361 128.293L438.248 127.895C438.447 127.431 438.712 127.07 439.044 126.812C439.378 126.55 439.743 126.368 440.137 126.265C440.535 126.159 440.926 126.106 441.311 126.107C441.556 126.107 441.838 126.136 442.156 126.196C442.477 126.253 442.787 126.37 443.086 126.549C443.387 126.729 443.637 126.999 443.836 127.36C444.035 127.721 444.134 128.205 444.134 128.812L444.133 133.843L442.959 133.843L442.96 132.809L442.9 132.809C442.82 132.974 442.688 133.152 442.502 133.341C442.316 133.529 442.069 133.69 441.761 133.823C441.453 133.955 441.077 134.021 440.632 134.021ZM440.812 132.967C441.276 132.967 441.667 132.876 441.985 132.694C442.307 132.512 442.549 132.277 442.711 131.988C442.877 131.7 442.96 131.397 442.96 131.079L442.96 130.005C442.911 130.064 442.801 130.119 442.632 130.169C442.466 130.215 442.274 130.256 442.055 130.293C441.84 130.326 441.629 130.356 441.424 130.382C441.222 130.405 441.058 130.425 440.932 130.442C440.627 130.481 440.342 130.546 440.077 130.635C439.815 130.721 439.603 130.852 439.44 131.028C439.281 131.2 439.201 131.435 439.201 131.734C439.201 132.141 439.352 132.45 439.653 132.659C439.958 132.864 440.344 132.967 440.812 132.967ZM445.774 133.844L445.776 126.207L446.91 126.207L446.909 127.361L446.989 127.361C447.128 126.983 447.38 126.677 447.745 126.441C448.109 126.206 448.52 126.089 448.978 126.089C449.064 126.089 449.172 126.09 449.301 126.094C449.43 126.097 449.528 126.102 449.594 126.109L449.594 127.302C449.554 127.292 449.463 127.277 449.321 127.257C449.181 127.234 449.034 127.222 448.878 127.222C448.507 127.222 448.175 127.3 447.884 127.456C447.595 127.608 447.367 127.82 447.197 128.092C447.032 128.36 446.949 128.667 446.949 129.011L446.947 133.844L445.774 133.844Z" fill="#5C616E"/>
<path d="M332.011 123.63L332.008 133.812L330.163 133.811L330.166 125.424L330.106 125.424L327.724 126.945L327.725 125.254L330.256 123.629L332.011 123.63ZM335.161 133.922C334.859 133.922 334.601 133.816 334.386 133.604C334.17 133.391 334.064 133.133 334.068 132.828C334.064 132.53 334.17 132.275 334.386 132.062C334.601 131.85 334.86 131.744 335.162 131.744C335.453 131.745 335.707 131.851 335.922 132.063C336.141 132.275 336.252 132.53 336.255 132.829C336.252 133.031 336.199 133.215 336.096 133.38C335.996 133.546 335.864 133.679 335.698 133.778C335.536 133.874 335.357 133.922 335.161 133.922ZM338.093 133.813L338.093 132.481L341.629 129.017C341.967 128.676 342.249 128.372 342.475 128.107C342.7 127.842 342.869 127.585 342.982 127.337C343.095 127.088 343.151 126.823 343.151 126.541C343.151 126.22 343.078 125.945 342.933 125.716C342.787 125.484 342.586 125.305 342.331 125.179C342.076 125.053 341.786 124.99 341.461 124.99C341.127 124.99 340.833 125.059 340.581 125.198C340.329 125.334 340.134 125.528 339.994 125.78C339.858 126.032 339.79 126.332 339.79 126.68L338.035 126.679C338.036 126.033 338.183 125.471 338.478 124.994C338.773 124.517 339.18 124.147 339.697 123.886C340.217 123.624 340.814 123.493 341.487 123.493C342.169 123.494 342.769 123.621 343.286 123.877C343.803 124.132 344.204 124.482 344.489 124.926C344.777 125.37 344.921 125.877 344.921 126.447C344.921 126.829 344.848 127.203 344.702 127.571C344.556 127.939 344.299 128.346 343.931 128.794C343.566 129.241 343.054 129.783 342.394 130.419L340.639 132.203L340.639 132.273L345.074 132.274L345.073 133.815L338.093 133.813ZM352.233 131.908L352.233 131.371C352.233 130.977 352.316 130.614 352.482 130.283C352.651 129.951 352.896 129.685 353.218 129.482C353.539 129.28 353.929 129.179 354.386 129.179C354.857 129.18 355.251 129.281 355.569 129.483C355.888 129.682 356.128 129.947 356.29 130.279C356.456 130.61 356.538 130.975 356.538 131.373L356.538 131.909C356.538 132.304 356.455 132.667 356.289 132.998C356.124 133.33 355.88 133.596 355.558 133.798C355.24 134 354.849 134.101 354.385 134.101C353.921 134.101 353.528 134 353.207 133.798C352.885 133.595 352.642 133.329 352.476 132.997C352.314 132.666 352.233 132.303 352.233 131.908ZM353.531 131.372L353.53 131.909C353.53 132.17 353.593 132.411 353.719 132.63C353.845 132.848 354.067 132.958 354.385 132.958C354.707 132.958 354.927 132.85 355.047 132.635C355.169 132.416 355.231 132.174 355.231 131.909L355.231 131.372C355.231 131.107 355.173 130.865 355.057 130.646C354.941 130.424 354.717 130.313 354.386 130.313C354.074 130.313 353.854 130.424 353.725 130.646C353.595 130.865 353.531 131.107 353.531 131.372ZM347.059 126.08L347.059 125.543C347.059 125.145 347.144 124.781 347.313 124.45C347.482 124.118 347.727 123.853 348.049 123.654C348.371 123.452 348.76 123.351 349.217 123.351C349.685 123.351 350.077 123.453 350.396 123.655C350.717 123.854 350.959 124.119 351.121 124.451C351.284 124.782 351.365 125.147 351.365 125.544L351.364 126.081C351.364 126.479 351.281 126.844 351.116 127.175C350.953 127.503 350.711 127.767 350.389 127.965C350.068 128.164 349.677 128.263 349.216 128.263C348.749 128.263 348.354 128.164 348.033 127.965C347.715 127.766 347.473 127.5 347.307 127.169C347.142 126.838 347.059 126.475 347.059 126.08ZM348.367 125.544L348.367 126.081C348.366 126.346 348.428 126.588 348.55 126.806C348.676 127.022 348.898 127.13 349.216 127.13C349.535 127.13 349.753 127.022 349.873 126.807C349.995 126.588 350.057 126.346 350.057 126.081L350.057 125.544C350.057 125.279 349.999 125.037 349.883 124.818C349.767 124.596 349.545 124.485 349.217 124.485C348.902 124.485 348.682 124.596 348.556 124.818C348.43 125.04 348.367 125.282 348.367 125.544ZM347.624 133.816L354.626 123.636L355.869 123.637L348.867 133.816L347.624 133.816Z" fill="#E35454"/>
<g clip-path="url(#clip1_256_1112)">
<path d="M311.86 129.528L315.581 133.307L319.36 129.586" stroke="#E35454" stroke-width="2" stroke-linecap="round" stroke-linejoin="round"/>
<path d="M315.65 124.307L315.581 133.307" stroke="#E35454" stroke-width="2" stroke-linecap="round"/>
</g>
<path d="M310.637 65.6244L312.894 65.625L315.915 73.0037L316.034 73.0037L319.059 65.6267L321.316 65.6273L321.313 75.8092L319.543 75.8087L319.545 68.8136L319.451 68.8136L316.635 75.778L315.313 75.7777L312.501 68.7968L312.406 68.7968L312.404 75.8067L310.634 75.8062L310.637 65.6244ZM325.44 75.9644C324.956 75.9643 324.52 75.878 324.132 75.7055C323.748 75.5298 323.443 75.2712 323.218 74.9297C322.996 74.5883 322.885 74.1673 322.885 73.6668C322.885 73.236 322.965 72.8797 323.124 72.598C323.283 72.3163 323.5 72.091 323.775 71.9221C324.051 71.7531 324.36 71.6256 324.705 71.5395C325.053 71.4501 325.413 71.3856 325.784 71.3459C326.232 71.2996 326.594 71.2583 326.873 71.2219C327.151 71.1822 327.353 71.1226 327.479 71.0431C327.609 70.9603 327.673 70.8327 327.673 70.6604L327.673 70.6305C327.674 70.256 327.563 69.966 327.341 69.7604C327.119 69.5548 326.799 69.452 326.381 69.4519C325.94 69.4518 325.591 69.5478 325.332 69.74C325.077 69.9321 324.904 70.1591 324.815 70.4209L323.135 70.1818C323.267 69.7178 323.486 69.3301 323.791 69.0187C324.096 68.7039 324.469 68.4687 324.91 68.313C325.351 68.154 325.838 68.0746 326.372 68.0748C326.74 68.0749 327.106 68.1181 327.47 68.2043C327.835 68.2906 328.168 68.4332 328.469 68.6322C328.771 68.8278 329.013 69.0947 329.195 69.4328C329.381 69.7709 329.473 70.1935 329.473 70.7006L329.472 75.8114L327.742 75.8109L327.742 74.7619L327.682 74.7619C327.573 74.974 327.419 75.1728 327.22 75.3584C327.024 75.5406 326.777 75.688 326.479 75.8006C326.184 75.9099 325.837 75.9645 325.44 75.9644ZM325.907 74.6421C326.269 74.6422 326.582 74.571 326.847 74.4286C327.112 74.2828 327.316 74.0907 327.459 73.8521C327.605 73.6135 327.678 73.3533 327.678 73.0716L327.678 72.1717C327.622 72.2181 327.526 72.2612 327.39 72.3009C327.257 72.3406 327.108 72.3754 326.942 72.4052C326.776 72.435 326.612 72.4614 326.45 72.4846C326.288 72.5077 326.147 72.5276 326.027 72.5441C325.759 72.5805 325.519 72.6401 325.306 72.7229C325.094 72.8057 324.927 72.9217 324.804 73.0708C324.682 73.2166 324.62 73.4055 324.62 73.6375C324.62 73.9689 324.741 74.2192 324.983 74.3883C325.225 74.5574 325.533 74.642 325.907 74.6421ZM331.281 75.8119L331.284 68.1756L333.029 68.176L333.028 69.4488L333.108 69.4488C333.247 69.008 333.486 68.6683 333.824 68.4298C334.165 68.1879 334.555 68.0671 334.992 68.0672C335.092 68.0672 335.203 68.0722 335.325 68.0822C335.451 68.0889 335.556 68.1005 335.639 68.1171L335.638 69.7726C335.562 69.7461 335.441 69.7229 335.275 69.7029C335.113 69.6797 334.955 69.668 334.803 69.668C334.475 69.6679 334.18 69.7391 333.918 69.8815C333.659 70.0207 333.456 70.2145 333.306 70.463C333.157 70.7116 333.082 70.9983 333.082 71.3231L333.081 75.8124L331.281 75.8119ZM338.473 73.4176L338.469 71.245L338.757 71.2451L341.503 68.1784L343.606 68.179L340.229 71.9365L339.856 71.9364L338.473 73.4176ZM336.832 75.8134L336.835 65.6316L338.635 65.6321L338.632 75.8139L336.832 75.8134ZM341.625 75.8148L339.14 72.3389L340.353 71.0715L343.778 75.8154L341.625 75.8148ZM347.869 75.9656C347.103 75.9654 346.442 75.8062 345.886 75.4878C345.332 75.1662 344.906 74.712 344.608 74.1253C344.31 73.5352 344.161 72.8408 344.161 72.042C344.162 71.2565 344.311 70.5672 344.609 69.974C344.911 69.3775 345.332 68.9136 345.873 68.5823C346.413 68.2477 347.048 68.0805 347.777 68.0807C348.247 68.0808 348.692 68.1572 349.109 68.3097C349.53 68.459 349.901 68.6911 350.223 69.0061C350.547 69.321 350.802 69.7221 350.988 70.2094C351.173 70.6934 351.266 71.2701 351.266 71.9396L351.266 72.4914L345.006 72.4897L345.007 71.2766L349.541 71.2779C349.538 70.9332 349.463 70.6266 349.317 70.3581C349.172 70.0863 348.968 69.8724 348.706 69.7166C348.448 69.5607 348.146 69.4828 347.801 69.4827C347.433 69.4826 347.11 69.572 346.832 69.7509C346.553 69.9265 346.336 70.1584 346.18 70.4467C346.028 70.7317 345.95 71.0449 345.946 71.3863L345.946 72.4452C345.946 72.8894 346.027 73.2705 346.189 73.5888C346.352 73.9037 346.579 74.1457 346.87 74.3148C347.162 74.4806 347.503 74.5636 347.894 74.5637C348.156 74.5637 348.393 74.5273 348.605 74.4545C348.817 74.3783 349.001 74.2673 349.157 74.1215C349.313 73.9757 349.431 73.7951 349.51 73.5797L351.191 73.7691C351.085 74.2132 350.882 74.6009 350.584 74.9323C350.289 75.2603 349.911 75.5154 349.45 75.6976C348.989 75.8765 348.462 75.9658 347.869 75.9656ZM356.603 68.1825L356.602 69.5746L352.212 69.5734L352.213 68.1813L356.603 68.1825ZM353.297 66.3521L355.097 66.3526L355.095 73.5216C355.095 73.7636 355.131 73.9492 355.204 74.0785C355.28 74.2044 355.38 74.2906 355.502 74.3371C355.625 74.3835 355.761 74.4067 355.91 74.4068C356.023 74.4068 356.125 74.3986 356.218 74.382C356.314 74.3655 356.387 74.3506 356.437 74.3373L356.74 75.7444C356.644 75.7775 356.506 75.8139 356.327 75.8536C356.151 75.8934 355.936 75.9165 355.681 75.9231C355.23 75.9362 354.824 75.8681 354.463 75.7189C354.101 75.5663 353.815 75.3309 353.603 75.0127C353.394 74.6944 353.291 74.2967 353.295 73.8194L353.297 66.3521ZM358.106 75.8193L358.108 68.183L359.907 68.1835L359.905 75.8198L358.106 75.8193ZM359.013 67.0994C358.728 67.0993 358.483 67.0048 358.277 66.8158C358.072 66.6235 357.969 66.3931 357.969 66.1247C357.969 65.8529 358.072 65.6226 358.278 65.4337C358.483 65.2415 358.728 65.1455 359.013 65.1456C359.302 65.1456 359.547 65.2418 359.749 65.4341C359.955 65.6231 360.057 65.8535 360.057 66.1253C360.057 66.3937 359.954 66.624 359.749 66.8162C359.547 67.0051 359.301 67.0995 359.013 67.0994ZM363.557 71.3464L363.556 75.8208L361.756 75.8203L361.758 68.184L363.478 68.1844L363.478 69.482L363.567 69.4821C363.743 69.0545 364.023 68.7149 364.408 68.4631C364.796 68.2113 365.275 68.0855 365.845 68.0857C366.372 68.0858 366.831 68.1986 367.222 68.4241C367.616 68.6496 367.921 68.9761 368.136 69.4038C368.355 69.8314 368.463 70.3501 368.459 70.96L368.458 75.8222L366.658 75.8217L366.659 71.2379C366.659 70.7275 366.527 70.328 366.262 70.0396C366 69.7512 365.637 69.6069 365.173 69.6068C364.858 69.6067 364.578 69.6762 364.333 69.8154C364.091 69.9512 363.9 70.1483 363.761 70.4068C363.625 70.6653 363.557 70.9785 363.557 71.3464ZM373.607 78.8463C372.961 78.8461 372.406 78.7582 371.942 78.5824C371.478 78.4099 371.105 78.1778 370.824 77.886C370.542 77.5943 370.347 77.2711 370.237 76.9164L371.858 76.5241C371.931 76.6733 372.037 76.8208 372.176 76.9667C372.315 77.1159 372.503 77.2385 372.738 77.3347C372.976 77.4342 373.276 77.484 373.638 77.4841C374.148 77.4843 374.571 77.3601 374.906 77.1116C375.24 76.8664 375.408 76.4621 375.408 75.8987L375.408 74.4519L375.319 74.4519C375.226 74.6375 375.09 74.828 374.911 75.0235C374.735 75.219 374.502 75.383 374.21 75.5155C373.922 75.648 373.559 75.7142 373.121 75.7141C372.534 75.7139 372.003 75.5762 371.525 75.301C371.051 75.0225 370.674 74.6081 370.392 74.0578C370.114 73.5042 369.975 72.8115 369.975 71.9796C369.975 71.141 370.115 70.4334 370.393 69.8568C370.675 69.2769 371.055 68.8378 371.532 68.5396C372.01 68.2382 372.542 68.0875 373.128 68.0877C373.576 68.0878 373.944 68.1641 374.232 68.3167C374.523 68.4659 374.755 68.6466 374.928 68.8588C375.1 69.0676 375.231 69.2649 375.32 69.4505L375.42 69.4505L375.42 68.1877L377.195 68.1882L377.193 75.9489C377.193 76.6018 377.037 77.142 376.725 77.5695C376.413 77.997 375.987 78.3167 375.447 78.5287C374.907 78.7406 374.294 78.8465 373.607 78.8463ZM373.624 74.3023C374.005 74.3024 374.33 74.2097 374.598 74.0242C374.867 73.8386 375.071 73.5719 375.21 73.2239C375.349 72.8759 375.419 72.4583 375.419 71.9711C375.419 71.4905 375.35 71.0696 375.211 70.7083C375.075 70.347 374.873 70.0668 374.604 69.8679C374.339 69.6657 374.013 69.5645 373.625 69.5644C373.224 69.5643 372.889 69.6686 372.621 69.8773C372.352 70.086 372.15 70.3727 372.014 70.7372C371.878 71.0985 371.81 71.5094 371.81 71.9701C371.81 72.4375 371.877 72.8468 372.013 73.1982C372.152 73.5462 372.356 73.818 372.624 74.0137C372.896 74.206 373.229 74.3022 373.624 74.3023Z" fill="#5C616F"/>
</g>
<defs>
<filter id="filter0_d_256_1112" x="0.0629883" y="0.737061" width="579.033" height="279.116" filterUnits="userSpaceOnUse" color-interpolation-filters="sRGB">
<feFlood flood-opacity="0" result="BackgroundImageFix"/>
<feColorMatrix in="SourceAlpha" type="matrix" values="0 0 0 0 0 0 0 0 0 0 0 0 0 0 0 0 0 0 127 0" result="hardAlpha"/>
<feOffset dx="20" dy="40"/>
<feGaussianBlur stdDeviation="40"/>
<feComposite in2="hardAlpha" operator="out"/>
<feColorMatrix type="matrix" values="0 0 0 0 0.178125 0 0 0 0 0.200292 0 0 0 0 0.316667 0 0 0 0.12 0"/>
<feBlend mode="multiply" in2="BackgroundImageFix" result="effect1_dropShadow_256_1112"/>
<feBlend mode="normal" in="SourceGraphic" in2="effect1_dropShadow_256_1112" result="shape"/>
</filter>
<clipPath id="clip0_256_1112">
<rect width="12" height="12" fill="white" transform="translate(88.5732 122.745) rotate(0.0158183)"/>
</clipPath>
<clipPath id="clip1_256_1112">
<rect width="12" height="12" fill="white" transform="matrix(0.999971 0.0076744 0.0076744 -0.999971 309.57 134.761)"/>
</clipPath>
</defs>
</svg>
